<?xml version='1.0' encoding='UTF-8' standalone='no'?>
<svg width="67.7333mm" version="1.2" xmlns="http://www.w3.org/2000/svg" height="63.8528mm" viewBox="-236 -90 384 362" xmlns:xlink="http://www.w3.org/1999/xlink" baseProfile="tiny">
    <title>Qt Svg Document</title>
    <desc>Generated with Qt</desc>
    <defs/>
    <g fill="none" stroke="black" fill-rule="evenodd" stroke-linejoin="bevel" stroke-linecap="square" stroke-width="1">
        <g stroke-opacity="1" fill="none" font-family="SimSun" stroke="#000000" stroke-linejoin="bevel" font-style="normal" stroke-linecap="square" font-weight="400" stroke-width="1" transform="matrix(1,0,0,1,0,0)" font-size="9"/>
        <g stroke-opacity="1" fill="none" font-family="SimSun" stroke="#000000" stroke-linejoin="bevel" font-style="normal" stroke-linecap="square" font-weight="400" stroke-width="1" transform="matrix(1,0,0,1,96,90.5)" font-size="9"/>
        <g stroke-opacity="1" fill="#ffffff" font-family="SimSun" stroke="#000080" stroke-linejoin="bevel" font-style="normal" fill-opacity="1" stroke-linecap="square" font-weight="400" stroke-width="1" transform="matrix(1,0,0,1,96,90.5)" font-size="9">
            <path fill-rule="evenodd" vector-effect="non-scaling-stroke" d="M-95,-84.13 C-95,-87.0958 -92.448,-89.5 -89.3,-89.5 L89.3,-89.5 C92.448,-89.5 95,-87.0958 95,-84.13 L95,84.13 C95,87.0958 92.448,89.5 89.3,89.5 L-89.3,89.5 C-92.448,89.5 -95,87.0958 -95,84.13 L-95,-84.13"/>
        </g>
        <g stroke-opacity="1" fill="#ffffff" font-family="微软雅黑" stroke="#008000" stroke-linejoin="bevel" font-style="normal" fill-opacity="1" stroke-linecap="square" font-weight="400" stroke-width="1" transform="matrix(1,0,0,1,96,90.5)" font-size="15">
            <image width="174" x="-87" y="-84.5" preserveAspectRatio="none" height="146" xlink:href="./res/inverter.png"/>
            <text x="-47" y="81.5" fill="#008000" font-family="微软雅黑" stroke="none" font-style="normal" fill-opacity="1" font-weight="400" xml:space="preserve" font-size="15">5#方阵逆变器</text>
            <a xlink:href="./系统站长园集团光伏电站.svg">
                <rect width="174" x="-87" y="-84.5" stroke-opacity="0" height="146" fill-opacity="0"/>
            </a>
        </g>
        <g stroke-opacity="1" fill="none" font-family="SimSun" stroke="#000000" stroke-linejoin="bevel" font-style="normal" stroke-linecap="square" font-weight="400" stroke-width="1" transform="matrix(1,0,0,1,96,90.5)" font-size="9"/>
        <g stroke-opacity="1" fill="none" font-family="SimSun" stroke="#000000" stroke-linejoin="bevel" font-style="normal" stroke-linecap="square" font-weight="400" stroke-width="1" transform="matrix(1,0,0,1,0,0)" font-size="9"/>
    </g>
</svg>
