<?xml version="1.0" encoding="utf-8"?>
<!-- Generator: Adobe Illustrator 19.0.0, SVG Export Plug-In . SVG Version: 6.00 Build 0)  -->
<svg version="1.1" id="图层_1" xmlns="http://www.w3.org/2000/svg" xmlns:xlink="http://www.w3.org/1999/xlink" x="0px" y="0px"
	 viewBox="0 0 340.2 340.2" style="enable-background:new 0 0 340.2 340.2;" xml:space="preserve">
<style type="text/css">
	.st0{fill:none;stroke:#000000;stroke-width:5;stroke-miterlimit:10;}
</style>
<rect id="XMLID_1_" x="42.1" y="6" class="st0" width="256.4" height="327.6"/>
<line id="XMLID_2_" class="st0" x1="42.1" y1="100.3" x2="298.6" y2="100.3"/>
<g id="XMLID_4_">
	<path id="XMLID_5_" d="M139.7,239.8h-50l-8.8,22.3c-2.2,5.5-3.2,9.6-3.2,12.3c0,2.2,0.9,4,2.8,5.7c1.9,1.6,5.9,2.7,12.2,3.2v3.8
		H51.9v-3.8c5.4-1,8.9-2.4,10.5-4.1c3.2-3.3,6.8-10.1,10.8-20.3l45.5-116.1h3.3l45,117.4c3.6,9.4,6.9,15.6,9.9,18.4
		s7.1,4.4,12.3,4.7v3.8h-51v-3.8c5.1-0.3,8.6-1.2,10.4-2.8c1.8-1.6,2.7-3.5,2.7-5.8c0-3.1-1.3-7.9-3.8-14.5L139.7,239.8z M137,232.1
		l-21.9-57l-22.5,57H137z"/>
	<path id="XMLID_8_" d="M223.1,139.1v69.7c7.1-8.5,12.6-13.9,16.8-16.3c4.1-2.4,8.3-3.6,12.4-3.6c5,0,9.2,1.5,12.8,4.5
		s6.2,7.7,7.9,14c1.2,4.4,1.8,12.6,1.8,24.3v33.7c0,6,0.4,10.2,1.3,12.4c0.6,1.7,1.7,3,3.2,4s4.3,1.5,8.4,1.5v3.7h-42.9v-3.7h2
		c4.1,0,6.9-0.7,8.5-2c1.6-1.4,2.7-3.3,3.3-6c0.2-1.1,0.3-4.4,0.3-9.8v-33.7c0-10.4-0.5-17.2-1.5-20.5s-2.6-5.7-4.7-7.3
		c-2.2-1.6-4.8-2.4-7.8-2.4c-3.1,0-6.4,0.9-9.7,2.7c-3.4,1.8-7.4,5.4-12.1,10.9v50.4c0,6.5,0.3,10.6,1,12.2s1.9,2.9,3.7,4
		s4.9,1.6,9.4,1.6v3.7h-43.3v-3.7c3.9,0,6.9-0.7,9.2-2c1.3-0.7,2.3-2,3.1-4s1.1-5.9,1.1-11.9v-86.3c0-10.9-0.2-17.6-0.7-20.1
		s-1.2-4.2-2.2-5.1c-1-0.9-2.3-1.4-4-1.4c-1.3,0-3.5,0.6-6.5,1.7l-1.3-3.6l26.1-11.7L223.1,139.1L223.1,139.1z"/>
</g>
</svg>
