<?xml version="1.0" encoding="utf-8"?>
<!-- Generator: Adobe Illustrator 19.0.0, SVG Export Plug-In . SVG Version: 6.00 Build 0)  -->
<svg version="1.1" id="图层_1" xmlns="http://www.w3.org/2000/svg" xmlns:xlink="http://www.w3.org/1999/xlink" x="0px" y="0px"
	 viewBox="0 0 340.2 340.2" style="enable-background:new 0 0 340.2 340.2;" xml:space="preserve">
<style type="text/css">
	.st0{fill:none;stroke:#000000;stroke-width:5;stroke-miterlimit:10;}
</style>
<rect id="XMLID_1_" x="12" y="42" class="st0" width="316.1" height="256.1"/>
<g id="XMLID_4_">
	<path id="XMLID_5_" d="M162,228.9l-1.1,3.8h-57.3l1.4-3.8c5.8-0.1,9.6-0.6,11.4-1.4c3-1.2,5.2-2.8,6.7-4.8c2.3-3.2,4.6-9,7-17.3
		l24.3-84.1c2.1-7,3.1-12.3,3.1-15.8c0-1.8-0.4-3.3-1.3-4.5c-0.9-1.2-2.2-2.2-4.1-2.8c-1.8-0.7-5.4-1-10.6-1l1.2-3.8h53.8l-1.1,3.8
		c-4.4-0.1-7.6,0.4-9.8,1.4c-3.1,1.4-5.4,3.3-7,5.9c-1.6,2.5-3.7,8.2-6.2,16.9l-24.1,84.1c-2.2,7.7-3.3,12.7-3.3,14.8
		c0,1.7,0.4,3.2,1.3,4.4c0.9,1.2,2.2,2.1,4.1,2.8C152.1,227.9,156,228.5,162,228.9z"/>
</g>
<g id="XMLID_2_">
	<path id="XMLID_7_" d="M209.7,232.6c-2.3,2.4-4.5,4.1-6.7,5.1s-4.5,1.6-7.1,1.6c-5.1,0-9.6-2.1-13.4-6.4c-3.8-4.3-5.7-9.8-5.7-16.5
		s2.1-12.9,6.3-18.4c4.2-5.6,9.7-8.4,16.3-8.4c4.1,0,7.5,1.3,10.2,3.9v-8.6c0-5.4-0.1-8.6-0.4-9.9c-0.3-1.2-0.7-2.1-1.2-2.5
		s-1.2-0.7-2-0.7c-0.9,0-2.1,0.3-3.5,0.8l-0.7-1.8l14-5.7h2.3v54.2c0,5.5,0.1,8.8,0.4,10c0.3,1.2,0.7,2.1,1.2,2.5
		c0.6,0.5,1.2,0.7,2,0.7c0.9,0,2.1-0.3,3.7-0.9l0.6,1.8l-13.9,5.8h-2.4L209.7,232.6L209.7,232.6z M209.7,229.1V205
		c-0.2-2.3-0.8-4.4-1.8-6.3s-2.4-3.3-4.1-4.3c-1.7-1-3.3-1.5-4.9-1.5c-3,0-5.7,1.3-8,4c-3.1,3.5-4.7,8.7-4.7,15.5
		c0,6.9,1.5,12.2,4.5,15.8c3,3.7,6.3,5.5,10,5.5C203.8,233.7,206.8,232.2,209.7,229.1z"/>
</g>
</svg>
