<?xml version="1.0" encoding="utf-8"?>
<!-- Generator: Adobe Illustrator 19.0.0, SVG Export Plug-In . SVG Version: 6.00 Build 0)  -->
<svg version="1.1" id="图层_1" xmlns="http://www.w3.org/2000/svg" xmlns:xlink="http://www.w3.org/1999/xlink" x="0px" y="0px"
	 viewBox="0 0 340.2 340.2" style="enable-background:new 0 0 340.2 340.2;" xml:space="preserve">
<style type="text/css">
	.st0{fill:none;stroke:#000000;stroke-width:5;stroke-miterlimit:10;}
</style>
<rect id="XMLID_1_" x="12" y="42" class="st0" width="316.1" height="256.1"/>
<g id="XMLID_4_">
	<path id="XMLID_5_" d="M157.8,230.5l-1.2,3.9H97.1l1.5-3.9c6-0.1,9.9-0.6,11.8-1.5c3.1-1.2,5.4-2.9,6.9-5c2.3-3.3,4.8-9.3,7.3-17.9
		l25.2-87.3c2.1-7.3,3.2-12.7,3.2-16.4c0-1.8-0.5-3.4-1.4-4.7c-0.9-1.3-2.3-2.3-4.2-2.9c-1.9-0.7-5.6-1-11-1l1.3-3.9h55.9l-1.2,3.9
		c-4.6-0.1-7.9,0.4-10.1,1.5c-3.2,1.4-5.6,3.5-7.3,6.1s-3.8,8.5-6.5,17.5L143.4,206c-2.3,8-3.4,13.2-3.4,15.4c0,1.8,0.4,3.3,1.3,4.5
		c0.9,1.2,2.3,2.2,4.3,2.9C147.6,229.5,151.6,230,157.8,230.5z"/>
</g>
<g id="XMLID_2_">
	<path id="XMLID_7_" d="M202,233.9c-2.2,2.4-4.3,4.1-6.4,5.2c-2.1,1.1-4.3,1.6-6.8,1.6c-4.9,0-9.2-2.2-12.8-6.5
		c-3.7-4.3-5.5-9.9-5.5-16.7s2-13,6.1-18.6c4-5.6,9.3-8.5,15.6-8.5c4,0,7.2,1.3,9.8,4v-8.7c0-5.4-0.1-8.7-0.4-10
		c-0.2-1.2-0.6-2.1-1.2-2.5c-0.5-0.4-1.2-0.7-2-0.7s-2,0.3-3.4,0.8l-0.6-1.8l13.4-5.8h2.2v54.8c0,5.6,0.1,8.9,0.4,10.2
		c0.2,1.2,0.6,2.1,1.2,2.6c0.5,0.5,1.2,0.7,1.9,0.7c0.9,0,2.1-0.3,3.5-0.9l0.5,1.8l-13.3,5.8H202V233.9z M202,230.2v-24.4
		c-0.2-2.3-0.8-4.5-1.8-6.4s-2.3-3.4-3.9-4.4c-1.6-1-3.2-1.5-4.7-1.5c-2.9,0-5.4,1.4-7.7,4.1c-3,3.6-4.5,8.8-4.5,15.7
		c0,7,1.4,12.3,4.3,16c2.9,3.7,6.1,5.6,9.6,5.6C196.4,234.9,199.2,233.4,202,230.2z"/>
	<path id="XMLID_10_" d="M221,204.5c0-8,1.1-14.9,3.4-20.7c2.3-5.8,5.3-10.1,9.1-12.9c2.9-2.2,6-3.4,9.1-3.4c5.1,0,9.7,2.7,13.7,8.2
		c5.1,6.8,7.6,16,7.6,27.6c0,8.1-1.1,15-3.3,20.7c-2.2,5.7-5.1,9.8-8.5,12.4c-3.4,2.6-6.8,3.9-10,3.9c-6.3,0-11.6-3.9-15.8-11.8
		C222.8,221.9,221,213.9,221,204.5z M230.6,205.8c0,9.7,1.1,17.5,3.4,23.6c1.9,5.1,4.6,7.7,8.3,7.7c1.8,0,3.6-0.8,5.5-2.5
		s3.3-4.5,4.3-8.4c1.5-5.9,2.3-14.3,2.3-25.1c0-8-0.8-14.7-2.4-20c-1.2-4-2.7-6.8-4.6-8.4c-1.3-1.1-3-1.7-4.8-1.7
		c-2.2,0-4.2,1.1-5.9,3.2c-2.4,2.9-4,7.4-4.8,13.5C231,193.8,230.6,199.9,230.6,205.8z"/>
</g>
</svg>
