<?xml version="1.0" encoding="utf-8"?>
<!-- Generator: Adobe Illustrator 19.0.0, SVG Export Plug-In . SVG Version: 6.00 Build 0)  -->
<svg version="1.1" id="图层_1" xmlns="http://www.w3.org/2000/svg" xmlns:xlink="http://www.w3.org/1999/xlink" x="0px" y="0px"
	 viewBox="0 0 340.2 340.2" style="enable-background:new 0 0 340.2 340.2;" xml:space="preserve">
<style type="text/css">
	.st0{fill:none;stroke:#FFFF00;stroke-width:5;stroke-miterlimit:10;}
</style>
<g id="图层_1_1_">
	<circle id="XMLID_1_" class="st0" cx="40.6" cy="135.3" r="34.8"/>
	<circle id="XMLID_10_" class="st0" cx="40.6" cy="204.9" r="34.8"/>
	<line id="XMLID_2_" class="st0" x1="40" y1="81.1" x2="40" y2="260.3"/>
</g>
<g id="图层_2">
	<line id="XMLID_16_" class="st0" x1="77.5" y1="135.9" x2="109" y2="135.9"/>
	<line id="XMLID_15_" class="st0" x1="92.1" y1="119.5" x2="83.8" y2="152.9"/>
	<line id="XMLID_14_" class="st0" x1="101" y1="119.5" x2="92.7" y2="152.9"/>
</g>
<g id="图层_2_1_">
	<line id="XMLID_5_" class="st0" x1="77" y1="208.2" x2="108.5" y2="208.2"/>
	<line id="XMLID_4_" class="st0" x1="91.6" y1="191.8" x2="83.3" y2="225.2"/>
	<line id="XMLID_3_" class="st0" x1="100.5" y1="191.8" x2="92.2" y2="225.2"/>
</g>
<g id="图层_1_2_">
	<circle id="XMLID_18_" class="st0" cx="153.6" cy="135.3" r="34.8"/>
	<circle id="XMLID_17_" class="st0" cx="153.6" cy="204.9" r="34.8"/>
	<line id="XMLID_13_" class="st0" x1="153" y1="81.1" x2="153" y2="260.3"/>
</g>
<g id="图层_2_3_">
	<line id="XMLID_12_" class="st0" x1="190.5" y1="135.9" x2="222" y2="135.9"/>
	<line id="XMLID_11_" class="st0" x1="205.1" y1="119.5" x2="196.8" y2="152.9"/>
	<line id="XMLID_9_" class="st0" x1="214" y1="119.5" x2="205.7" y2="152.9"/>
</g>
<g id="图层_2_2_">
	<line id="XMLID_8_" class="st0" x1="190" y1="208.2" x2="221.5" y2="208.2"/>
	<line id="XMLID_7_" class="st0" x1="204.6" y1="191.8" x2="196.3" y2="225.2"/>
	<line id="XMLID_6_" class="st0" x1="213.5" y1="191.8" x2="205.2" y2="225.2"/>
</g>
<g id="图层_1_3_">
	<circle id="XMLID_27_" class="st0" cx="265.6" cy="135.3" r="34.8"/>
	<circle id="XMLID_26_" class="st0" cx="265.6" cy="204.9" r="34.8"/>
	<line id="XMLID_25_" class="st0" x1="265" y1="81.1" x2="265" y2="260.3"/>
</g>
<g id="图层_2_5_">
	<line id="XMLID_24_" class="st0" x1="302.5" y1="135.9" x2="334" y2="135.9"/>
	<line id="XMLID_23_" class="st0" x1="317.1" y1="119.5" x2="308.8" y2="152.9"/>
	<line id="XMLID_22_" class="st0" x1="326" y1="119.5" x2="317.7" y2="152.9"/>
</g>
<g id="图层_2_4_">
	<line id="XMLID_21_" class="st0" x1="302" y1="208.2" x2="333.5" y2="208.2"/>
	<line id="XMLID_20_" class="st0" x1="316.6" y1="191.8" x2="308.3" y2="225.2"/>
	<line id="XMLID_19_" class="st0" x1="325.5" y1="191.8" x2="317.2" y2="225.2"/>
</g>
</svg>
