<?xml version="1.0" encoding="utf-8"?>
<!-- Generator: Adobe Illustrator 19.0.0, SVG Export Plug-In . SVG Version: 6.00 Build 0)  -->
<svg version="1.1" id="图层_1" xmlns="http://www.w3.org/2000/svg" xmlns:xlink="http://www.w3.org/1999/xlink" x="0px" y="0px"
	 viewBox="0 0 340.2 340.2" style="enable-background:new 0 0 340.2 340.2;" xml:space="preserve">
<style type="text/css">
	.st0{fill:none;stroke:#040000;stroke-width:5;stroke-miterlimit:10;}
	.st1{fill:none;stroke:#040000;stroke-width:10;stroke-miterlimit:10;}
</style>
<circle id="XMLID_1_" class="st0" cx="170.1" cy="170.1" r="156.3"/>
<line id="XMLID_2_" class="st1" x1="80.4" y1="270" x2="259.4" y2="270"/>
<g id="XMLID_4_">
	<path id="XMLID_5_" d="M163,245.4l-54.9-153v121.5c0,11.2,0.9,18.2,2.8,20.9c2.6,3.8,6.7,5.6,12.3,5.6h5v5H78.8v-5h5
		c6,0,10.3-2.3,12.8-7c1.5-2.9,2.3-9.4,2.3-19.6V95c0-8-0.7-13.9-2.1-17.4c-1-2.6-2.8-4.8-5.4-6.5s-6.8-2.6-12.6-2.6v-5H119
		l51.6,142.3l50.7-142.3h40.2v5h-4.9c-6.1,0-10.4,2.3-12.9,7c-1.5,2.9-2.3,9.4-2.3,19.6v118.8c0,11.2,1,18.2,2.9,20.9
		c2.6,3.8,6.7,5.6,12.3,5.6h4.9v5h-60.4v-5h5c6.1,0,10.3-2.3,12.8-7c1.5-2.9,2.3-9.4,2.3-19.6V92.4l-54.8,153H163z"/>
</g>
</svg>
