<?xml version="1.0" encoding="utf-8"?>
<!-- Generator: Adobe Illustrator 19.0.0, SVG Export Plug-In . SVG Version: 6.00 Build 0)  -->
<svg version="1.1" id="图层_1" xmlns="http://www.w3.org/2000/svg" xmlns:xlink="http://www.w3.org/1999/xlink" x="0px" y="0px"
	 viewBox="0 0 340.2 340.2" style="enable-background:new 0 0 340.2 340.2;" xml:space="preserve">
<style type="text/css">
	.st0{fill:none;stroke:#040000;stroke-width:5;stroke-miterlimit:10;}
	.st1{fill:none;stroke:#000000;stroke-width:5;stroke-miterlimit:10;}
</style>
<line id="XMLID_2_" class="st0" x1="108.7" y1="12.5" x2="108.7" y2="330.2"/>
<path id="XMLID_6_" class="st1" d="M108.3,30c-17.7,0-32,13.4-32,31.1"/>
<path id="XMLID_5_" class="st1" d="M76.3,61.1c0,23.9,14,33.5,32,33.5"/>
<path id="XMLID_1_" class="st1" d="M108.3,94.6c-17.7,0-32.9,15.5-32.9,30.9"/>
<path id="XMLID_4_" class="st1" d="M75.4,125.5c-0.4,20.9,15.3,32,32.9,32"/>
<line id="XMLID_19_" class="st1" x1="108.3" y1="30" x2="279.3" y2="30"/>
<line id="XMLID_20_" class="st1" x1="108.3" y1="157.5" x2="279.3" y2="157.5"/>
<path id="XMLID_26_" class="st1" d="M109.3,185c-17.7,0-32,13.4-32,31.1"/>
<path id="XMLID_23_" class="st1" d="M77.3,216.1c0,23.9,14,33.5,32,33.5"/>
<path id="XMLID_22_" class="st1" d="M109.3,249.6c-17.7,0-32.9,15.5-32.9,30.9"/>
<path id="XMLID_21_" class="st1" d="M76.4,280.5c-0.4,20.9,15.3,32,32.9,32"/>
<line id="XMLID_27_" class="st1" x1="108.3" y1="185" x2="279.3" y2="185"/>
<line id="XMLID_28_" class="st1" x1="108.3" y1="312.5" x2="279.3" y2="312.5"/>
<line id="XMLID_3_" class="st1" x1="61.7" y1="30" x2="61.7" y2="312.5"/>
</svg>
