<?xml version="1.0" encoding="utf-8"?>
<!-- Generator: Adobe Illustrator 19.0.0, SVG Export Plug-In . SVG Version: 6.00 Build 0)  -->
<svg version="1.1" id="图层_1" xmlns="http://www.w3.org/2000/svg" xmlns:xlink="http://www.w3.org/1999/xlink" x="0px" y="0px"
	 viewBox="0 0 340.2 340.2" style="enable-background:new 0 0 340.2 340.2;" xml:space="preserve">
<style type="text/css">
	.st0{fill:none;stroke:#040000;stroke-width:5;stroke-miterlimit:10;}
	.st1{fill:#040000;}
</style>
<circle id="XMLID_1_" class="st0" cx="170.1" cy="170.1" r="156.3"/>
<g id="XMLID_4_">
	<path id="XMLID_5_" d="M97.2,249.4v-5.5h6.2c7,0,11.9-2.7,14.8-8.2c1.8-3.3,2.7-10.6,2.7-22.1V82.9c0-12.6-1.1-20.5-3.4-23.7
		c-3.2-4.4-7.9-6.6-14.1-6.6h-6.2v-5.5h67.1c24.6,0,43.4,3.4,56.2,10.3c12.8,6.9,23.2,18.3,31,34.3s11.7,34.5,11.7,55.5
		c0,28.1-7,51.7-20.9,70.5c-15.6,21.1-39.5,31.6-71.5,31.6L97.2,249.4L97.2,249.4z M144.3,234.7c10.3,2.8,18.9,4.2,25.9,4.2
		c18.8,0,34.4-8.1,46.8-24.3s18.6-38.2,18.6-65.9c0-27.9-6.2-50-18.6-66.1c-12.4-16.1-28.3-24.2-47.8-24.2c-7.3,0-15.6,1.4-24.9,4.3
		V234.7z"/>
</g>
<g id="XMLID_13_">
	<path id="XMLID_14_" class="st1" d="M100.3,292.7c12.2-29.8,29.9-34.2,42.4-34.2c13.1,0,23.7,3.3,40.1,11.1
		c15.4,6.4,26,11.4,37.5,11.4c15.1,0,22.3-8.1,29.2-26.9l9.9,4.6c-6.2,22.5-20.4,35.5-40.7,35.5c-16.1,0-31.2-7.1-45.3-13.4
		c-12.2-5.4-20.4-9-31.9-9c-14.8,0-24,9-30.6,26.9L100.3,292.7z"/>
</g>
</svg>
