<?xml version="1.0" encoding="utf-8"?>
<!-- Generator: Adobe Illustrator 19.0.0, SVG Export Plug-In . SVG Version: 6.00 Build 0)  -->
<svg version="1.1" id="图层_1" xmlns="http://www.w3.org/2000/svg" xmlns:xlink="http://www.w3.org/1999/xlink" x="0px" y="0px"
	 viewBox="0 0 340.2 340.2" style="enable-background:new 0 0 340.2 340.2;" xml:space="preserve">
<style type="text/css">
	.st0{fill:none;stroke:#040000;stroke-width:5;stroke-miterlimit:10;}
	.st1{fill:none;stroke:#000000;stroke-width:5;stroke-miterlimit:10;}
</style>
<line id="XMLID_2_" class="st0" x1="113.7" y1="14.2" x2="113.7" y2="324.5"/>
<circle id="XMLID_11_" class="st0" cx="113.7" cy="328" r="4.9"/>
<circle id="XMLID_3_" class="st0" cx="113.7" cy="10.7" r="4.9"/>
<path id="XMLID_6_" class="st1" d="M113.3,28c-17.7,0-32,13.4-32,31.1"/>
<path id="XMLID_5_" class="st1" d="M81.3,59.1c0,23.9,14,33.5,32,33.5"/>
<path id="XMLID_1_" class="st1" d="M113.3,92.6c-17.7,0-32.9,15.5-32.9,30.9"/>
<path id="XMLID_4_" class="st1" d="M80.4,123.5c-0.4,20.9,15.3,32,32.9,32"/>
<line id="XMLID_19_" class="st1" x1="113.3" y1="28" x2="284.3" y2="28"/>
<line id="XMLID_20_" class="st1" x1="113.3" y1="155.5" x2="284.3" y2="155.5"/>
<path id="XMLID_26_" class="st1" d="M114.3,183c-17.7,0-32,13.4-32,31.1"/>
<path id="XMLID_23_" class="st1" d="M82.3,214.1c0,23.9,14,33.5,32,33.5"/>
<path id="XMLID_22_" class="st1" d="M114.3,247.6c-17.7,0-32.9,15.5-32.9,30.9"/>
<path id="XMLID_21_" class="st1" d="M81.4,278.5c-0.4,20.9,15.3,32,32.9,32"/>
<line id="XMLID_27_" class="st1" x1="113.3" y1="183" x2="284.3" y2="183"/>
<line id="XMLID_28_" class="st1" x1="113.3" y1="310.5" x2="284.3" y2="310.5"/>
<line id="XMLID_30_" class="st0" x1="64.8" y1="28" x2="64.8" y2="155.5"/>
<line id="XMLID_31_" class="st0" x1="64.8" y1="183" x2="64.8" y2="310.5"/>
</svg>
