<?xml version="1.0" encoding="utf-8"?>
<!-- Generator: Adobe Illustrator 19.0.0, SVG Export Plug-In . SVG Version: 6.00 Build 0)  -->
<svg version="1.1" id="图层_1" xmlns="http://www.w3.org/2000/svg" xmlns:xlink="http://www.w3.org/1999/xlink" x="0px" y="0px"
	 viewBox="0 0 340.2 340.2" style="enable-background:new 0 0 340.2 340.2;" xml:space="preserve">
<style type="text/css">
	.st0{fill:none;stroke:#040000;stroke-width:5;stroke-miterlimit:10;}
	.st1{fill:#040000;}
</style>
<circle id="XMLID_1_" class="st0" cx="170.1" cy="170.1" r="156.3"/>
<g id="XMLID_4_">
	<path id="XMLID_5_" d="M163.1,238.9l-54-150.5v119.5c0,11,0.9,17.9,2.8,20.6c2.5,3.7,6.6,5.5,12.1,5.5h4.9v4.9H80.3V234h4.9
		c5.9,0,10.1-2.3,12.6-6.9c1.5-2.8,2.3-9.2,2.3-19.3V91c0-7.9-0.7-13.6-2.1-17.2c-1-2.6-2.7-4.7-5.3-6.4s-6.7-2.6-12.4-2.6V60h39.6
		l50.7,140l49.9-140H260v4.9h-4.8c-6,0-10.2,2.3-12.7,6.9c-1.5,2.8-2.3,9.2-2.3,19.3V208c0,11,1,17.9,2.9,20.6
		c2.5,3.7,6.6,5.5,12.1,5.5h4.8v4.9h-59.4v-5h4.9c6,0,10.2-2.3,12.6-6.9c1.5-2.8,2.3-9.2,2.3-19.3V88.4l-53.9,150.5H163.1z"/>
</g>
<g id="XMLID_13_">
	<path id="XMLID_14_" class="st1" d="M83.1,290.6c13.2-37.7,32.6-43.2,46.2-43.2c14.3,0,25.8,4.3,43.7,14
		c16.8,8,28.3,14.5,40.8,14.5c16.5,0,24.3-10.2,31.9-33.9l10.7,5.9c-6.8,28.4-22.2,44.9-44.4,44.9c-17.5,0-34-8.9-49.4-17
		c-13.2-6.8-22.2-11.4-34.7-11.4c-16.1,0-26.1,11.4-33.3,33.9L83.1,290.6z"/>
</g>
</svg>
