<?xml version="1.0" encoding="utf-8"?>
<!-- Generator: Adobe Illustrator 19.0.0, SVG Export Plug-In . SVG Version: 6.00 Build 0)  -->
<svg version="1.1" id="图层_1" xmlns="http://www.w3.org/2000/svg" xmlns:xlink="http://www.w3.org/1999/xlink" x="0px" y="0px"
	 viewBox="0 0 340.2 340.2" style="enable-background:new 0 0 340.2 340.2;" xml:space="preserve">
<style type="text/css">
	.st0{fill:none;stroke:#000000;stroke-width:5;stroke-miterlimit:10;}
</style>
<circle id="XMLID_1_" class="st0" cx="170.1" cy="170.1" r="162.3"/>
<g id="XMLID_3_">
	<path id="XMLID_4_" d="M269,75v5c-6.6,1.2-11.6,3.3-15,6.3c-4.9,4.5-9.2,11.4-12.9,20.6L176,265.8h-5.1L101,105
		c-3.6-8.3-6.1-13.3-7.6-15.1c-2.3-2.8-5.1-5.1-8.5-6.7c-3.3-1.6-7.9-2.6-13.6-3.1V75h76.2v5c-8.6,0.8-14.2,2.3-16.8,4.4
		s-3.9,4.8-3.9,8.1c0,4.6,2.1,11.7,6.3,21.5l47.5,109.4l44-108c4.3-10.6,6.5-18,6.5-22.2c0-2.7-1.3-5.2-4-7.6s-7.2-4.1-13.5-5.2
		c-0.5-0.1-1.2-0.2-2.3-0.4v-5H269z"/>
</g>
</svg>
