<?xml version="1.0" encoding="utf-8"?>
<!-- Generator: Adobe Illustrator 19.0.0, SVG Export Plug-In . SVG Version: 6.00 Build 0)  -->
<svg version="1.1" id="图层_1" xmlns="http://www.w3.org/2000/svg" xmlns:xlink="http://www.w3.org/1999/xlink" x="0px" y="0px"
	 viewBox="0 0 340.2 340.2" style="enable-background:new 0 0 340.2 340.2;" xml:space="preserve">
<style type="text/css">
	.st0{fill:none;stroke:#040000;stroke-width:5;stroke-miterlimit:10;}
	.st1{fill:none;stroke:#000000;stroke-width:5;stroke-miterlimit:10;}
</style>
<path id="XMLID_1_" class="st0" d="M314.2,214.2c0-19.6-14.9-35.5-34.5-35.5"/>
<path id="XMLID_2_" class="st0" d="M279.7,178.7c-26.5,0-37.2,15.5-37.2,35.5"/>
<path id="XMLID_3_" class="st0" d="M242.5,214.2c0-19.6-17.2-36.5-34.3-36.5"/>
<path id="XMLID_4_" class="st1" d="M208.2,177.8c-23.2-0.4-35.5,17-35.5,36.5"/>
<path id="XMLID_5_" class="st0" d="M172.7,214.2c0-19.6-19.3-36.5-35-36.5"/>
<path id="XMLID_6_" class="st0" d="M137.7,177.8c-14.5,0-35,16-35,36.5"/>
<path id="XMLID_7_" class="st0" d="M102.7,214.2c0-19.6-18.5-35.5-35.6-35.5"/>
<path id="XMLID_8_" class="st0" d="M67.1,178.7c-20.1,0-35.4,16.5-35.4,35.5"/>
<line id="XMLID_19_" class="st0" x1="314.2" y1="214.2" x2="314.2" y2="316"/>
<line id="XMLID_20_" class="st0" x1="31.7" y1="214.2" x2="31.7" y2="316"/>
<path id="XMLID_50_" class="st0" d="M314.2,60.2c0-19.6-14.9-35.5-34.5-35.5"/>
<path id="XMLID_49_" class="st0" d="M279.7,24.7c-26.5,0-37.2,15.5-37.2,35.5"/>
<path id="XMLID_48_" class="st0" d="M242.5,60.2c0-19.6-17.2-36.5-34.3-36.5"/>
<path id="XMLID_47_" class="st0" d="M208.2,23.7c-23.2-0.4-35.5,17-35.5,36.5"/>
<path id="XMLID_46_" class="st0" d="M172.7,60.2c0-19.6-19.3-36.5-35-36.5"/>
<path id="XMLID_45_" class="st0" d="M137.7,23.7c-14.5,0-35,16-35,36.5"/>
<path id="XMLID_44_" class="st0" d="M102.7,60.2c0-19.6-18.5-35.5-35.6-35.5"/>
<path id="XMLID_43_" class="st0" d="M67.1,24.7c-20.1,0-35.4,16.5-35.4,35.5"/>
<line id="XMLID_34_" class="st0" x1="314.2" y1="60.2" x2="314.2" y2="160.7"/>
<line id="XMLID_33_" class="st0" x1="31.7" y1="60.2" x2="31.7" y2="160.7"/>
<line id="XMLID_51_" class="st1" x1="31.7" y1="170.3" x2="314.2" y2="170.3"/>
</svg>
