<?xml version="1.0" encoding="utf-8"?>
<!-- Generator: Adobe Illustrator 19.0.0, SVG Export Plug-In . SVG Version: 6.00 Build 0)  -->
<svg version="1.1" id="图层_1" xmlns="http://www.w3.org/2000/svg" xmlns:xlink="http://www.w3.org/1999/xlink" x="0px" y="0px"
	 viewBox="0 0 340.2 340.2" style="enable-background:new 0 0 340.2 340.2;" xml:space="preserve">
<style type="text/css">
	.st0{fill:none;stroke:#000000;stroke-width:5;stroke-miterlimit:10;}
</style>
<path id="XMLID_1_" class="st0" d="M8.7,217.9c0,22.5,17.1,40.6,39.5,40.6"/>
<path id="XMLID_2_" class="st0" d="M48.2,258.6c30.4,0,42.6-17.8,42.6-40.7"/>
<path id="XMLID_3_" class="st0" d="M90.8,217.9c0,22.5,19.7,41.8,39.3,41.8"/>
<path id="XMLID_4_" class="st0" d="M130.1,259.7c26.6,0.5,40.7-19.5,40.7-41.8"/>
<path id="XMLID_5_" class="st0" d="M170.8,217.9c0,22.5,22.1,41.8,40.1,41.8"/>
<path id="XMLID_6_" class="st0" d="M210.9,259.7c16.6,0,40.1-18.3,40.1-41.8"/>
<path id="XMLID_7_" class="st0" d="M251,217.9c0,22.5,21.2,40.6,40.8,40.6"/>
<path id="XMLID_8_" class="st0" d="M291.8,258.6c23,0,40.5-18.8,40.5-40.6"/>
<line id="XMLID_19_" class="st0" x1="8.7" y1="217.9" x2="8.7" y2="79.6"/>
<line id="XMLID_20_" class="st0" x1="332.3" y1="217.9" x2="332.3" y2="79.6"/>
</svg>
