<?xml version="1.0" encoding="utf-8"?>
<!-- Generator: Adobe Illustrator 19.0.0, SVG Export Plug-In . SVG Version: 6.00 Build 0)  -->
<svg version="1.1" id="图层_1" xmlns="http://www.w3.org/2000/svg" xmlns:xlink="http://www.w3.org/1999/xlink" x="0px" y="0px"
	 viewBox="0 0 340.2 340.2" style="enable-background:new 0 0 340.2 340.2;" xml:space="preserve">
<style type="text/css">
	.st0{fill:none;stroke:#000000;stroke-width:5;stroke-miterlimit:10;}
</style>
<circle id="XMLID_1_" class="st0" cx="170.1" cy="170.1" r="162.3"/>
<g id="XMLID_3_">
	<path id="XMLID_4_" d="M199.6,193.3h-76.8l-13.5,31.3c-3.3,7.7-5,13.5-5,17.3c0,3,1.4,5.7,4.3,8s9.1,3.8,18.7,4.5v5.4H64.9v-5.4
		c8.3-1.5,13.7-3.4,16.1-5.7c5-4.7,10.5-14.2,16.5-28.5l69.8-163.3h5.1l69,165c5.6,13.3,10.6,21.9,15.1,25.8
		c4.5,3.9,10.8,6.2,18.9,6.7v5.4h-78.3v-5.4c7.9-0.4,13.2-1.7,16-3.9s4.2-5,4.2-8.2c0-4.3-2-11.1-5.9-20.3L199.6,193.3z
		 M195.5,182.5l-33.6-80.2l-34.5,80.2H195.5z"/>
</g>
</svg>
