<?xml version="1.0" encoding="utf-8"?>
<!-- Generator: Adobe Illustrator 19.0.0, SVG Export Plug-In . SVG Version: 6.00 Build 0)  -->
<svg version="1.1" id="图层_1" xmlns="http://www.w3.org/2000/svg" xmlns:xlink="http://www.w3.org/1999/xlink" x="0px" y="0px"
	 viewBox="0 0 340.2 340.2" style="enable-background:new 0 0 340.2 340.2;" xml:space="preserve">
<style type="text/css">
	.st0{fill:none;stroke:#000000;stroke-width:5;stroke-miterlimit:10;}
</style>
<rect id="XMLID_1_" x="42" y="20.3" class="st0" width="256.1" height="299.5"/>
<g id="XMLID_3_">
	<path id="XMLID_4_" d="M105.7,184.8H73.2l-5.7,20c-1.4,4.9-2.1,8.6-2.1,11c0,1.9,0.6,3.6,1.8,5.1c1.2,1.5,3.8,2.4,7.9,2.8v3.5H48.7
		v-3.5c3.5-0.9,5.8-2.1,6.8-3.6c2.1-3,4.4-9.1,7-18.2L92,97.6h2.2L123.4,203c2.4,8.5,4.5,14,6.4,16.5c1.9,2.5,4.6,3.9,8,4.3v3.5
		h-33.1v-3.5c3.3-0.2,5.6-1.1,6.8-2.5c1.2-1.4,1.8-3.2,1.8-5.2c0-2.7-0.8-7.1-2.5-13L105.7,184.8z M104,177.9l-14.2-51.2l-14.6,51.2
		H104z"/>
	<path id="XMLID_7_" d="M197.3,184.8h-32.5l-5.7,20c-1.4,4.9-2.1,8.6-2.1,11c0,1.9,0.6,3.6,1.8,5.1s3.8,2.4,7.9,2.8v3.5h-26.4v-3.5
		c3.5-0.9,5.8-2.1,6.8-3.6c2.1-3,4.4-9.1,7-18.2l29.5-104.3h2.2L215,203c2.4,8.5,4.5,14,6.4,16.5s4.6,3.9,8,4.3v3.5h-33.1v-3.5
		c3.3-0.2,5.6-1.1,6.8-2.5s1.8-3.2,1.8-5.2c0-2.7-0.8-7.1-2.5-13L197.3,184.8z M195.5,177.9l-14.2-51.2l-14.6,51.2H195.5z"/>
	<path id="XMLID_10_" d="M290.1,100.5l0.9,29.7h-2.4c-0.5-5.2-1.1-9-1.9-11.2c-1.3-3.6-3-6.3-5.1-8s-4.9-2.6-8.4-2.6h-11.8v96.8
		c0,7.8,0.6,12.6,1.7,14.6c1.6,2.6,4,3.9,7.2,3.9h2.9v3.5h-35.6v-3.5h3c3.5,0,6.1-1.6,7.6-4.9c0.9-2,1.4-6.5,1.4-13.6v-96.8h-10.1
		c-3.9,0-6.7,0.4-8.4,1.3c-2.1,1.2-4,3.5-5.5,6.8c-1.5,3.4-2.4,7.9-2.7,13.6h-2.4l1-29.7L290.1,100.5L290.1,100.5z"/>
</g>
</svg>
