<?xml version="1.0" encoding="utf-8"?>
<!-- Generator: Adobe Illustrator 19.0.0, SVG Export Plug-In . SVG Version: 6.00 Build 0)  -->
<svg version="1.1" id="图层_1" xmlns="http://www.w3.org/2000/svg" xmlns:xlink="http://www.w3.org/1999/xlink" x="0px" y="0px"
	 viewBox="0 0 340.2 340.2" style="enable-background:new 0 0 340.2 340.2;" xml:space="preserve">
<style type="text/css">
	.st0{fill:none;stroke:#000000;stroke-width:5;stroke-miterlimit:10;}
</style>
<rect id="XMLID_1_" x="98.3" y="20.3" class="st0" width="234" height="298.9"/>
<line id="XMLID_2_" class="st0" x1="98.3" y1="106.4" x2="332.3" y2="106.4"/>
<g id="XMLID_4_">
	<path id="XMLID_5_" d="M245.9,154.5v3.2c-2.5,0-4.5,0.5-6.1,1.6s-3.1,3.1-4.5,6.1c-0.9,2-2.4,6.8-4.5,14.4l-26.8,94h-2.8
		l-21.9-74.6l-21.8,74.6H155L126.4,177c-2.1-7.2-3.5-11.5-4-12.8c-0.9-2.2-2.2-3.8-3.9-4.9c-1.6-1.1-3.8-1.6-6.6-1.6v-3.2h35.6v3.2
		h-1.7c-2.5,0-4.4,0.7-5.7,2.1c-1.3,1.4-2,3-2,5s1,6.6,3.1,13.8l18.9,65.4l16-55.6l-2.8-9.8l-2.3-7.8c-1-2.9-2.1-5.4-3.3-7.6
		c-0.6-1.1-1.4-2-2.3-2.8c-1.2-1-2.4-1.8-3.5-2.2c-0.9-0.3-2.3-0.5-4.3-0.5v-3.2H195v3.2h-2.6c-2.6,0-4.6,0.7-5.8,2.1
		c-1.2,1.4-1.8,3.2-1.8,5.6c0,2.9,1.1,8,3.2,15.3l18.4,63.4l18.3-64.2c2.1-7.1,3.1-12,3.1-14.8c0-1.3-0.3-2.5-1-3.7
		c-0.7-1.1-1.5-1.9-2.6-2.4c-1.8-0.8-4.1-1.2-7-1.2v-3.2h28.7V154.5z"/>
	<path id="XMLID_7_" d="M270.7,148.8v57.6c5.2-7,9.4-11.5,12.5-13.5s6.1-3,9.2-3c3.7,0,6.9,1.2,9.5,3.7s4.6,6.3,5.9,11.6
		c0.9,3.7,1.3,10.4,1.3,20.1v27.9c0,5,0.3,8.4,1,10.2c0.5,1.4,1.3,2.5,2.4,3.3s3.2,1.2,6.2,1.2v3.1h-31.9v-3h1.5
		c3,0,5.1-0.6,6.3-1.7c1.2-1.1,2-2.8,2.5-4.9c0.1-0.9,0.2-3.6,0.2-8.1v-27.9c0-8.6-0.4-14.2-1.1-16.9s-1.9-4.7-3.5-6.1
		c-1.6-1.3-3.5-2-5.8-2s-4.7,0.7-7.2,2.2s-5.5,4.5-9,9v41.6c0,5.4,0.2,8.7,0.7,10.1c0.5,1.3,1.4,2.4,2.8,3.3c1.3,0.9,3.7,1.3,7,1.3
		v3.1H249v-3c2.9,0,5.2-0.5,6.8-1.6c0.9-0.6,1.7-1.7,2.3-3.3c0.6-1.6,0.9-4.9,0.9-9.8V182c0-9-0.2-14.5-0.5-16.6
		c-0.4-2.1-0.9-3.5-1.6-4.2s-1.7-1.1-2.9-1.1c-1,0-2.6,0.5-4.8,1.4l-1-3l19.4-9.6L270.7,148.8L270.7,148.8z"/>
</g>
<line id="XMLID_3_" class="st0" x1="0" y1="170.1" x2="97.8" y2="170.1"/>
<line id="XMLID_9_" class="st0" x1="40.8" y1="158.3" x2="58.2" y2="170.5"/>
<line id="XMLID_10_" class="st0" x1="57.7" y1="170.4" x2="40.2" y2="182.7"/>
</svg>
