<?xml version="1.0" encoding="utf-8"?>
<!-- Generator: Adobe Illustrator 19.0.0, SVG Export Plug-In . SVG Version: 6.00 Build 0)  -->
<svg version="1.1" id="图层_1" xmlns="http://www.w3.org/2000/svg" xmlns:xlink="http://www.w3.org/1999/xlink" x="0px" y="0px"
	 viewBox="0 0 340.2 340.2" style="enable-background:new 0 0 340.2 340.2;" xml:space="preserve">
<style type="text/css">
	.st0{fill:none;stroke:#000000;stroke-width:5;stroke-miterlimit:10;}
</style>
<rect id="XMLID_1_" x="41" y="20.3" class="st0" width="256.1" height="299.5"/>
<g id="XMLID_3_">
	<path id="XMLID_4_" d="M77.3,164.9v36.5c0,7.9,0.7,12.8,2.1,14.7c1.9,2.7,4.7,4.1,8.5,4.1h3.8v3.4H48.9v-3.4h3.8
		c4.2,0,7.2-1.7,9-5.2c1-1.9,1.5-6.4,1.5-13.6v-80.9c0-7.9-0.7-12.8-2-14.7c-1.9-2.7-4.8-4.1-8.5-4.1h-3.8v-3.4h36.5
		c8.9,0,16,1.2,21.1,3.5s9.5,6.2,13,11.7s5.3,12,5.3,19.5c0,10.2-2.7,18.5-8.1,24.9s-13,9.6-22.8,9.6c-2.4,0-5-0.2-7.8-0.6
		C83.4,166.5,80.4,165.8,77.3,164.9z M77.3,159.7c2.6,0.6,4.9,1.1,6.9,1.4c2,0.3,3.7,0.5,5.1,0.5c5.1,0,9.5-2.5,13.2-7.4
		c3.7-5,5.6-11.4,5.6-19.3c0-5.4-0.9-10.4-2.6-15.1c-1.8-4.6-4.3-8.1-7.5-10.4s-6.9-3.5-11-3.5c-2.5,0-5.7,0.6-9.6,1.8L77.3,159.7
		L77.3,159.7z"/>
	<path id="XMLID_7_" d="M199.2,95.5v43.3h-2.7c-0.9-8.3-2.5-14.9-4.7-19.9c-2.3-4.9-5.5-8.8-9.7-11.7c-4.2-2.9-8.6-4.3-13.1-4.3
		c-5.1,0-9.3,2-12.6,5.9s-5,8.4-5,13.3c0,3.8,1.1,7.3,3.2,10.4c3,4.6,10.3,10.8,21.7,18.5c9.3,6.3,15.7,11.1,19.1,14.4
		c3.4,3.4,6,7.3,7.9,11.9c1.8,4.6,2.8,9.3,2.8,14.3c0,9.5-2.9,17.7-8.8,24.5c-5.9,6.9-13.4,10.3-22.6,10.3c-2.9,0-5.6-0.3-8.2-0.8
		c-1.5-0.3-4.7-1.4-9.4-3.4s-7.8-2.9-9.1-2.9c-1.2,0-2.2,0.5-2.9,1.4s-1.2,2.8-1.6,5.7h-2.7v-42.9h2.7c1.3,9,3,15.7,5.1,20.2
		c2.2,4.5,5.5,8.2,9.9,11.1c4.4,3,9.3,4.4,14.6,4.4c6.1,0,11-2,14.5-6.1c3.6-4.1,5.3-8.9,5.3-14.4c0-3.1-0.7-6.2-2-9.3
		s-3.4-6.1-6.3-8.8c-1.9-1.8-7.1-5.8-15.7-11.8c-8.5-6-14.6-10.8-18.2-14.4c-3.6-3.6-6.3-7.5-8.2-11.8s-2.8-9-2.8-14.2
		c0-9,2.7-16.7,8.2-23.2s12.5-9.7,21-9.7c5.3,0,10.9,1.6,16.8,4.9c2.7,1.5,4.7,2.3,5.8,2.3c1.3,0,2.3-0.5,3.1-1.4
		c0.8-1,1.5-2.9,1.9-5.8H199.2z"/>
	<path id="XMLID_9_" d="M282.9,95.5v43.3h-2.7c-0.9-8.3-2.5-14.9-4.7-19.9c-2.3-4.9-5.5-8.8-9.7-11.7c-4.2-2.9-8.6-4.3-13.1-4.3
		c-5.1,0-9.3,2-12.6,5.9s-5,8.4-5,13.3c0,3.8,1.1,7.3,3.2,10.4c3,4.6,10.3,10.8,21.7,18.5c9.3,6.3,15.7,11.1,19.1,14.4
		c3.4,3.4,6,7.3,7.9,11.9c1.8,4.6,2.8,9.3,2.8,14.3c0,9.5-2.9,17.7-8.8,24.5c-5.9,6.9-13.4,10.3-22.6,10.3c-2.9,0-5.6-0.3-8.2-0.8
		c-1.5-0.3-4.7-1.4-9.4-3.4c-4.8-1.9-7.8-2.9-9.1-2.9c-1.2,0-2.2,0.5-2.9,1.4s-1.2,2.8-1.6,5.7h-2.7v-42.9h2.7
		c1.3,9,3,15.7,5.1,20.2c2.2,4.5,5.5,8.2,9.9,11.1c4.4,3,9.3,4.4,14.6,4.4c6.1,0,11-2,14.5-6.1c3.6-4.1,5.3-8.9,5.3-14.4
		c0-3.1-0.7-6.2-2-9.3s-3.4-6.1-6.3-8.8c-1.9-1.8-7.1-5.8-15.7-11.8c-8.5-6-14.6-10.8-18.2-14.4c-3.6-3.6-6.3-7.5-8.2-11.8
		s-2.8-9-2.8-14.2c0-9,2.7-16.7,8.2-23.2s12.5-9.7,21-9.7c5.3,0,10.9,1.6,16.8,4.9c2.7,1.5,4.7,2.3,5.8,2.3c1.3,0,2.3-0.5,3.1-1.4
		c0.8-1,1.5-2.9,1.9-5.8H282.9z"/>
</g>
</svg>
