<?xml version="1.0" encoding="utf-8"?>
<!-- Generator: Adobe Illustrator 19.0.0, SVG Export Plug-In . SVG Version: 6.00 Build 0)  -->
<svg version="1.1" id="图层_1" xmlns="http://www.w3.org/2000/svg" xmlns:xlink="http://www.w3.org/1999/xlink" x="0px" y="0px"
	 viewBox="0 0 340.2 340.2" style="enable-background:new 0 0 340.2 340.2;" xml:space="preserve">
<style type="text/css">
	.st0{fill:none;stroke:#040000;stroke-width:5;stroke-miterlimit:10;}
	.st1{fill:none;stroke:#000000;stroke-width:5;stroke-miterlimit:10;}
</style>
<line id="XMLID_2_" class="st0" x1="11.8" y1="226.6" x2="329.4" y2="226.6"/>
<circle id="XMLID_11_" class="st0" cx="334.3" cy="226.6" r="4.9"/>
<circle id="XMLID_3_" class="st0" cx="6.9" cy="226.6" r="4.9"/>
<path id="XMLID_6_" class="st1" d="M29.2,227c0,17.7,13.4,32,31.1,32"/>
<path id="XMLID_5_" class="st1" d="M60.3,259c23.9,0,33.5-14,33.5-32"/>
<path id="XMLID_1_" class="st1" d="M93.9,227c0,17.7,15.5,32.9,30.9,32.9"/>
<path id="XMLID_4_" class="st1" d="M124.8,259.9c20.9,0.4,32-15.3,32-32.9"/>
<line id="XMLID_19_" class="st1" x1="29.2" y1="227" x2="29.2" y2="56"/>
<line id="XMLID_20_" class="st1" x1="156.8" y1="227" x2="156.8" y2="56"/>
<path id="XMLID_26_" class="st1" d="M184.2,226c0,17.7,13.4,32,31.1,32"/>
<path id="XMLID_23_" class="st1" d="M215.3,258c23.9,0,33.5-14,33.5-32"/>
<path id="XMLID_22_" class="st1" d="M248.9,226c0,17.7,15.5,32.9,30.9,32.9"/>
<path id="XMLID_21_" class="st1" d="M279.8,258.9c20.9,0.4,32-15.3,32-32.9"/>
<line id="XMLID_27_" class="st1" x1="184.2" y1="227" x2="184.2" y2="56"/>
<line id="XMLID_28_" class="st1" x1="311.8" y1="227" x2="311.8" y2="56"/>
</svg>
