<?xml version="1.0" encoding="utf-8"?>
<!-- Generator: Adobe Illustrator 19.0.0, SVG Export Plug-In . SVG Version: 6.00 Build 0)  -->
<svg version="1.1" id="图层_1" xmlns="http://www.w3.org/2000/svg" xmlns:xlink="http://www.w3.org/1999/xlink" x="0px" y="0px"
	 viewBox="0 0 340.2 340.2" style="enable-background:new 0 0 340.2 340.2;" xml:space="preserve">
<style type="text/css">
	.st0{fill:none;stroke:#040000;stroke-width:5;stroke-miterlimit:10;}
	.st1{fill:none;stroke:#040000;stroke-width:10;stroke-miterlimit:10;}
</style>
<circle id="XMLID_1_" class="st0" cx="170.1" cy="170.1" r="156.3"/>
<line id="XMLID_2_" class="st1" x1="90.7" y1="280" x2="255.7" y2="280"/>
<g id="XMLID_4_">
	<path id="XMLID_5_" d="M90.9,262.3v-5.7h6.4c7.2,0,12.3-2.8,15.3-8.4c1.8-3.4,2.8-10.9,2.8-22.7V91c0-13-1.2-21.1-3.5-24.4
		c-3.3-4.5-8.1-6.8-14.5-6.8H91v-5.7h69c25.3,0,44.6,3.5,57.8,10.6s23.8,18.8,31.9,35.3c8,16.5,12.1,35.5,12.1,57.1
		c0,28.9-7.2,53.1-21.5,72.6c-16.1,21.7-40.6,32.5-73.5,32.5L90.9,262.3L90.9,262.3z M139.2,247.2c10.6,2.9,19.5,4.3,26.6,4.3
		c19.3,0,35.4-8.3,48.1-25c12.8-16.7,19.1-39.3,19.1-67.8c0-28.7-6.4-51.4-19.1-68s-29.1-24.9-49.1-24.9c-7.5,0-16,1.5-25.6,4.4
		L139.2,247.2L139.2,247.2z"/>
</g>
</svg>
