<?xml version="1.0" encoding="utf-8"?>
<!-- Generator: Adobe Illustrator 19.0.0, SVG Export Plug-In . SVG Version: 6.00 Build 0)  -->
<svg version="1.1" id="图层_1" xmlns="http://www.w3.org/2000/svg" xmlns:xlink="http://www.w3.org/1999/xlink" x="0px" y="0px"
	 viewBox="0 0 340.2 340.2" style="enable-background:new 0 0 340.2 340.2;" xml:space="preserve">
<style type="text/css">
	.st0{fill:none;stroke:#000000;stroke-width:5;stroke-miterlimit:10;}
</style>
<path id="XMLID_1_" class="st0" d="M226.5,22C206.9,22,191,36.9,191,56.5"/>
<path id="XMLID_2_" class="st0" d="M191,56.5c0,26.5,15.5,37.2,35.5,37.2"/>
<path id="XMLID_3_" class="st0" d="M226.5,93.7c-19.6,0-36.5,17.2-36.5,34.3"/>
<path id="XMLID_4_" class="st0" d="M190,128c-0.4,23.2,17,35.5,36.5,35.5"/>
<path id="XMLID_5_" class="st0" d="M226.5,163.5c-19.6,0-36.5,19.3-36.5,35"/>
<path id="XMLID_6_" class="st0" d="M190,198.5c0,14.5,16,35,36.5,35"/>
<path id="XMLID_7_" class="st0" d="M226.5,233.5c-19.6,0-35.5,18.5-35.5,35.6"/>
<path id="XMLID_8_" class="st0" d="M191,269.1c0,20.1,16.5,35.4,35.5,35.4"/>
<line id="XMLID_19_" class="st0" x1="226.5" y1="22" x2="340.2" y2="22"/>
<line id="XMLID_20_" class="st0" x1="226.5" y1="304.5" x2="340.2" y2="304.5"/>
<path id="XMLID_40_" class="st0" d="M114,22c19.6,0,35.5,14.9,35.5,34.5"/>
<path id="XMLID_39_" class="st0" d="M149.5,56.5c0,26.5-15.5,37.2-35.5,37.2"/>
<path id="XMLID_38_" class="st0" d="M114,93.7c19.6,0,36.5,17.2,36.5,34.3"/>
<path id="XMLID_37_" class="st0" d="M150.5,128c0.4,23.2-17,35.5-36.5,35.5"/>
<path id="XMLID_36_" class="st0" d="M114,163.5c19.6,0,36.5,19.3,36.5,35"/>
<path id="XMLID_35_" class="st0" d="M150.5,198.5c0,14.5-16,35-36.5,35"/>
<path id="XMLID_34_" class="st0" d="M114,233.5c19.6,0,35.5,18.5,35.5,35.6"/>
<path id="XMLID_33_" class="st0" d="M149.5,269.1c0,20.1-16.5,35.4-35.5,35.4"/>
<line id="XMLID_22_" class="st0" x1="114" y1="22" x2="0.3" y2="22"/>
<line id="XMLID_21_" class="st0" x1="114" y1="304.5" x2="0.3" y2="304.5"/>
</svg>
