<?xml version="1.0" encoding="utf-8"?>
<!-- Generator: Adobe Illustrator 19.0.0, SVG Export Plug-In . SVG Version: 6.00 Build 0)  -->
<svg version="1.1" id="图层_1" xmlns="http://www.w3.org/2000/svg" xmlns:xlink="http://www.w3.org/1999/xlink" x="0px" y="0px"
	 viewBox="0 0 340.2 340.2" style="enable-background:new 0 0 340.2 340.2;" xml:space="preserve">
<style type="text/css">
	.st0{fill:none;stroke:#000000;stroke-width:5;stroke-miterlimit:10;}
</style>
<rect id="XMLID_1_" x="12" y="42" class="st0" width="316.1" height="256.1"/>
<path id="XMLID_8_" d="M275.4,137.2l-78.2,32.7l78.2,33.1v13.1l-101.1-42.4V166l101.1-41.9V137.2z"/>
<g id="XMLID_3_">
	<path id="XMLID_4_" d="M102.9,168.1v42.2c0,9.1,1,14.8,3,17c2.7,3.1,6.8,4.7,12.3,4.7h5.6v4H61.6v-4h5.5c6.1,0,10.5-2,13.2-6
		c1.4-2.2,2.1-7.4,2.1-15.7v-93.7c0-9.1-1-14.8-2.9-17c-2.8-3.1-6.9-4.7-12.4-4.7h-5.5v-4h53.2c13,0,23.2,1.3,30.7,4
		s13.8,7.2,18.9,13.5c5.1,6.3,7.7,13.9,7.7,22.6c0,11.8-3.9,21.5-11.7,28.9S141.6,171,127.3,171c-3.5,0-7.3-0.2-11.3-0.7
		C111.9,169.9,107.5,169.1,102.9,168.1z M102.9,162c3.8,0.7,7.1,1.2,10.1,1.6c2.9,0.4,5.4,0.5,7.5,0.5c7.4,0,13.8-2.9,19.2-8.6
		c5.4-5.7,8.1-13.2,8.1-22.3c0-6.3-1.3-12.1-3.9-17.5c-2.6-5.4-6.2-9.4-10.9-12.1s-10.1-4-16-4c-3.6,0-8.3,0.7-14,2V162H102.9z"/>
</g>
</svg>
