<?xml version="1.0" encoding="utf-8"?>
<!-- Generator: Adobe Illustrator 19.0.0, SVG Export Plug-In . SVG Version: 6.00 Build 0)  -->
<svg version="1.1" id="图层_1" xmlns="http://www.w3.org/2000/svg" xmlns:xlink="http://www.w3.org/1999/xlink" x="0px" y="0px"
	 viewBox="0 0 340.2 340.2" style="enable-background:new 0 0 340.2 340.2;" xml:space="preserve">
<style type="text/css">
	.st0{fill:none;stroke:#000000;stroke-width:5;stroke-miterlimit:10;}
	.st1{fill:none;stroke:#000000;stroke-width:7;stroke-miterlimit:10;}
</style>
<rect id="XMLID_1_" x="12" y="42" class="st0" width="316.1" height="256.1"/>
<g id="XMLID_7_">
	<path id="XMLID_8_" d="M144.8,98.5v46.1h-3.6c-1.2-8.8-3.3-15.9-6.3-21.1c-3-5.2-7.4-9.4-13-12.5s-11.5-4.6-17.5-4.6
		c-6.8,0-12.5,2.1-16.9,6.2c-4.5,4.2-6.7,8.9-6.7,14.2c0,4.1,1.4,7.8,4.2,11.1c4.1,4.9,13.7,11.5,29,19.7
		c12.5,6.7,21,11.8,25.5,15.4c4.6,3.6,8.1,7.8,10.5,12.6c2.5,4.9,3.7,9.9,3.7,15.2c0,10.1-3.9,18.8-11.8,26.1
		c-7.8,7.3-17.9,11-30.2,11c-3.9,0-7.5-0.3-10.9-0.9c-2-0.3-6.2-1.5-12.6-3.6s-10.4-3.1-12.1-3.1c-1.6,0-2.9,0.5-3.9,1.5
		s-1.7,3-2.1,6.1h-3.6v-45.7H70c1.7,9.6,4,16.7,6.9,21.5s7.3,8.7,13.2,11.8c5.9,3.1,12.4,4.7,19.5,4.7c8.2,0,14.7-2.2,19.4-6.5
		c4.8-4.3,7.1-9.4,7.1-15.3c0-3.3-0.9-6.6-2.7-9.9c-1.8-3.3-4.6-6.5-8.4-9.3c-2.6-2-9.5-6.1-20.9-12.5s-19.5-11.5-24.3-15.3
		s-8.5-8-11-12.6s-3.7-9.6-3.7-15.1c0-9.6,3.7-17.8,11-24.7c7.3-6.9,16.7-10.4,28-10.4c7.1,0,14.6,1.7,22.5,5.2
		c3.7,1.6,6.3,2.5,7.8,2.5c1.7,0,3.1-0.5,4.2-1.5c1.1-1,2-3.1,2.6-6.1h3.6V98.5z"/>
</g>
<line id="XMLID_3_" class="st1" x1="227.1" y1="90.5" x2="227.1" y2="203.5"/>
<line id="XMLID_4_" class="st1" x1="162.5" y1="203.5" x2="291.7" y2="203.5"/>
<line id="XMLID_5_" class="st1" x1="186.7" y1="226.3" x2="268.2" y2="226.3"/>
<line id="XMLID_6_" class="st1" x1="211.7" y1="248.1" x2="243.3" y2="248.1"/>
</svg>
