<?xml version="1.0" encoding="utf-8"?>
<!-- Generator: Adobe Illustrator 19.0.0, SVG Export Plug-In . SVG Version: 6.00 Build 0)  -->
<svg version="1.1" id="图层_1" xmlns="http://www.w3.org/2000/svg" xmlns:xlink="http://www.w3.org/1999/xlink" x="0px" y="0px"
	 viewBox="0 0 340.2 340.2" style="enable-background:new 0 0 340.2 340.2;" xml:space="preserve">
<style type="text/css">
	.st0{fill:none;stroke:#000000;stroke-width:5;stroke-miterlimit:10;}
</style>
<rect id="XMLID_1_" x="42" y="20.3" class="st0" width="256.1" height="299.5"/>
<g id="XMLID_3_">
	<path id="XMLID_4_" d="M109,184H76.4l-5.7,20c-1.4,4.9-2.1,8.6-2.1,11.1c0,1.9,0.6,3.6,1.8,5.1c1.2,1.5,3.9,2.4,7.9,2.9v3.5H51.8
		v-3.5c3.5-0.9,5.8-2.2,6.8-3.7c2.1-3,4.4-9.1,7-18.3L95.3,96.5h2.2l29.3,105.8c2.4,8.5,4.5,14,6.4,16.5s4.6,4,8,4.3v3.5H108v-3.5
		c3.4-0.2,5.6-1.1,6.8-2.5c1.2-1.4,1.8-3.2,1.8-5.3c0-2.8-0.8-7.1-2.5-13L109,184z M107.2,177L93,125.7L78.3,177H107.2z"/>
	<path id="XMLID_7_" d="M168.6,106.3v50H184c3.5,0,6.1-1.2,7.7-3.5c1.6-2.3,2.7-7,3.3-13.9h2.3v43H195c0-4.9-0.5-8.6-1.3-10.9
		c-0.8-2.3-1.9-4-3.4-5.2c-1.4-1.2-3.5-1.7-6.4-1.7h-15.3V204c0,6.4,0.3,10.7,0.8,12.8c0.4,1.6,1.3,2.9,2.6,4
		c1.8,1.5,3.7,2.3,5.7,2.3h3v3.5h-36.1v-3.5h3c3.5,0,6-1.5,7.6-4.6c1-2,1.5-6.8,1.5-14.4V122c0-6.4-0.3-10.7-0.8-12.8
		c-0.4-1.6-1.3-2.9-2.5-4c-1.8-1.5-3.7-2.3-5.7-2.3h-3v-3.5h62.6l0.8,27.9h-2.2c-1.1-5.9-2.3-10.3-3.8-13.1c-1.4-2.8-3.2-4.8-5.3-6
		c-2.1-1.3-5.3-1.9-9.7-1.9H168.6z"/>
	<path id="XMLID_9_" d="M286.2,191.4l2,0.7l-7.2,34.5h-65.2v-3.5h3.2c3.6,0,6.1-1.7,7.6-5.3c0.9-2,1.3-6.6,1.3-13.9v-82
		c0-7.9-0.6-12.9-1.7-14.9c-1.6-2.8-4-4.1-7.2-4.1h-3.2v-3.5H254v3.5c-4.5-0.1-7.6,0.6-9.4,1.9c-1.8,1.3-3,3-3.7,5s-1,6.8-1,14.3
		V204c0,5.2,0.3,8.8,1,10.7c0.5,1.3,1.3,2.3,2.3,2.9c1,0.6,4.3,0.9,9.7,0.9h6.1c6.5,0,11-0.7,13.6-2.2c2.6-1.4,5-4,7.1-7.6
		C281.9,205,284.1,199.3,286.2,191.4z"/>
</g>
</svg>
