<?xml version="1.0" encoding="utf-8"?>
<!-- Generator: Adobe Illustrator 19.0.0, SVG Export Plug-In . SVG Version: 6.00 Build 0)  -->
<svg version="1.1" id="图层_1" xmlns="http://www.w3.org/2000/svg" xmlns:xlink="http://www.w3.org/1999/xlink" x="0px" y="0px"
	 viewBox="0 0 340.2 340.2" style="enable-background:new 0 0 340.2 340.2;" xml:space="preserve">
<style type="text/css">
	.st0{fill:none;stroke:#040000;stroke-width:5;stroke-miterlimit:10;}
	.st1{fill:none;stroke:#000000;stroke-width:5;stroke-miterlimit:10;}
</style>
<rect id="XMLID_1_" x="12" y="42" class="st0" width="316.1" height="256.1"/>
<path id="XMLID_35_" class="st0" d="M275.6,171.2c0-19.6-17.2-36.5-34.3-36.5"/>
<path id="XMLID_34_" class="st1" d="M241.3,134.7c-23.2-0.4-35.5,17-35.5,36.5"/>
<path id="XMLID_33_" class="st0" d="M205.8,171.2c0-19.6-19.3-36.5-35-36.5"/>
<path id="XMLID_18_" class="st0" d="M170.8,134.7c-14.5,0-35,16-35,36.5"/>
<path id="XMLID_7_" class="st0" d="M135.8,171.2c0-19.6-18.5-35.5-35.6-35.5"/>
<path id="XMLID_6_" class="st0" d="M100.1,135.7c-20.1,0-35.4,16.5-35.4,35.5"/>
<line id="XMLID_2_" class="st0" x1="64.8" y1="171.2" x2="16.5" y2="171.2"/>
<line id="XMLID_17_" class="st0" x1="323.7" y1="171.2" x2="275.4" y2="171.2"/>
<line id="XMLID_3_" class="st0" x1="194.7" y1="92.3" x2="138.3" y2="190"/>
<line id="XMLID_4_" class="st0" x1="213.1" y1="93" x2="156.7" y2="190.7"/>
</svg>
