<?xml version="1.0" encoding="utf-8"?>
<!-- Generator: Adobe Illustrator 19.0.0, SVG Export Plug-In . SVG Version: 6.00 Build 0)  -->
<svg version="1.1" id="图层_1" xmlns="http://www.w3.org/2000/svg" xmlns:xlink="http://www.w3.org/1999/xlink" x="0px" y="0px"
	 viewBox="0 0 340.2 340.2" style="enable-background:new 0 0 340.2 340.2;" xml:space="preserve">
<style type="text/css">
	.st0{fill:none;stroke:#000000;stroke-width:5;stroke-miterlimit:10;}
</style>
<rect id="XMLID_1_" x="12" y="42" class="st0" width="316.1" height="256.1"/>
<g id="XMLID_4_">
	<path id="XMLID_5_" d="M131.3,140.2l-0.7,2.2H93.3l0.9-2.2c3.7-0.1,6.2-0.4,7.4-0.8c2-0.7,3.4-1.6,4.4-2.8c1.5-1.9,3-5.2,4.6-10
		l15.8-48.5c1.3-4,2-7.1,2-9.1c0-1-0.3-1.9-0.9-2.6s-1.5-1.3-2.6-1.6c-1.2-0.4-3.5-0.6-6.9-0.6l0.8-2.2h35.1l-0.7,2.2
		c-2.9,0-5,0.2-6.4,0.8c-2,0.8-3.5,1.9-4.6,3.4c-1,1.5-2.4,4.7-4.1,9.7l-15.7,48.5c-1.4,4.5-2.1,7.3-2.1,8.5c0,1,0.3,1.8,0.8,2.5
		c0.6,0.7,1.4,1.2,2.7,1.6C124.9,139.7,127.5,140,131.3,140.2z"/>
</g>
<g id="XMLID_10_">
	<path id="XMLID_11_" d="M248.3,103.9l-75.4,28.9v-5.3l64.9-24.9l-64.9-25.2v-5.6l75.4,29.2L248.3,103.9L248.3,103.9z"/>
</g>
<path id="XMLID_14_" d="M93,172.5c3.6-3.6,5.8-5.7,6.4-6.2c1.6-1.4,3.4-2.4,5.3-3.2s3.7-1.1,5.6-1.1c3.1,0,5.8,0.9,8,2.7
	s3.7,4.4,4.5,7.9c3.7-4.3,6.9-7.2,9.4-8.5c2.6-1.4,5.2-2,7.9-2c2.6,0,5,0.7,7,2c2,1.4,3.7,3.6,4.9,6.6c0.8,2.1,1.2,5.4,1.2,9.9V202
	c0,3.1,0.2,5.2,0.7,6.4c0.4,0.8,1,1.5,2,2c1,0.6,2.6,0.8,4.8,0.8v2h-24.5v-2h1c2.1,0,3.8-0.4,5-1.2c0.8-0.6,1.4-1.5,1.8-2.8
	c0.1-0.6,0.2-2.4,0.2-5.3v-21.4c0-4.1-0.5-6.9-1.5-8.6c-1.4-2.3-3.7-3.5-6.8-3.5c-1.9,0-3.8,0.5-5.8,1.4c-1.9,1-4.3,2.7-7,5.3
	l-0.1,0.6l0.1,2.3v23.7c0,3.4,0.2,5.5,0.6,6.4c0.4,0.8,1.1,1.5,2.1,2.1s2.8,0.8,5.4,0.8v2h-25.1v-2c2.7,0,4.6-0.3,5.7-1
	c1-0.7,1.7-1.6,2.1-2.9c0.2-0.6,0.3-2.4,0.3-5.4v-21.4c0-4.1-0.6-7-1.8-8.7c-1.6-2.3-3.8-3.5-6.7-3.5c-2,0-3.9,0.5-5.8,1.6
	c-3,1.6-5.3,3.4-6.9,5.4v26.6c0,3.3,0.2,5.4,0.7,6.4s1.1,1.7,2,2.2s2.7,0.7,5.4,0.7v2H76.5v-2c2.3,0,3.9-0.2,4.8-0.7
	s1.6-1.3,2.1-2.3c0.5-1.1,0.7-3.1,0.7-6.2v-19c0-5.5-0.2-9-0.5-10.6c-0.3-1.2-0.7-2-1.2-2.5s-1.3-0.7-2.2-0.7c-1,0-2.2,0.3-3.6,0.8
	l-0.8-2l15-6.1H93V172.5z"/>
<path id="XMLID_18_" d="M229.4,167.2c1.8-4.3,4.1-7.6,6.9-10c2.8-2.3,6.3-3.5,10.4-3.5c5.1,0,9.1,1.7,11.8,5c2.1,2.5,3.1,5.1,3.1,8
	c0,4.7-2.9,9.5-8.8,14.4c3.9,1.5,6.9,3.7,8.9,6.6c2,2.9,3,6.2,3,10.1c0,5.5-1.8,10.3-5.3,14.4c-4.6,5.3-11.2,7.9-20,7.9
	c-4.3,0-7.2-0.5-8.8-1.6s-2.3-2.2-2.3-3.4c0-0.9,0.4-1.7,1.1-2.4s1.6-1,2.7-1c0.8,0,1.6,0.1,2.4,0.4c0.5,0.2,1.7,0.7,3.6,1.7
	c1.9,1,3.2,1.6,3.9,1.8c1.2,0.3,2.4,0.5,3.7,0.5c3.2,0,6-1.2,8.4-3.7s3.6-5.4,3.6-8.8c0-2.5-0.6-4.9-1.7-7.3c-0.8-1.8-1.7-3.1-2.7-4
	c-1.4-1.3-3.2-2.4-5.6-3.4c-2.4-1-4.8-1.5-7.2-1.5H239V186c2.5-0.3,5-1.2,7.5-2.7s4.3-3.3,5.5-5.3s1.7-4.4,1.7-6.8
	c0-3.2-1-5.9-3-7.9s-4.6-3-7.6-3c-4.9,0-9,2.6-12.2,7.8L229.4,167.2z"/>
<g id="XMLID_3_">
	<path id="XMLID_7_" d="M168.6,182.1h50.5v3.8h-50.5V182.1z M168.6,197.4h50.5v3.8h-50.5V197.4z"/>
</g>
<line id="XMLID_2_" class="st0" x1="35.9" y1="247.1" x2="35.9" y2="276.8"/>
<line id="XMLID_13_" class="st0" x1="35.9" y1="262" x2="305.7" y2="262"/>
<line id="XMLID_16_" class="st0" x1="305.7" y1="247.1" x2="305.7" y2="276.8"/>
<line id="XMLID_17_" class="st0" x1="182.6" y1="226.8" x2="203.8" y2="248"/>
<line id="XMLID_20_" class="st0" x1="193.8" y1="237.9" x2="153.4" y2="278.4"/>
</svg>
