<?xml version="1.0" encoding="utf-8"?>
<!-- Generator: Adobe Illustrator 19.0.0, SVG Export Plug-In . SVG Version: 6.00 Build 0)  -->
<svg version="1.1" id="图层_1" xmlns="http://www.w3.org/2000/svg" xmlns:xlink="http://www.w3.org/1999/xlink" x="0px" y="0px"
	 viewBox="0 0 340.2 340.2" style="enable-background:new 0 0 340.2 340.2;" xml:space="preserve">
<style type="text/css">
	.st0{fill:none;stroke:#040000;stroke-width:5;stroke-miterlimit:10;}
	.st1{fill:#040000;}
	.st2{fill:none;stroke:#040000;stroke-width:10;stroke-miterlimit:10;}
</style>
<circle id="XMLID_1_" class="st0" cx="170.1" cy="171.1" r="156.3"/>
<g id="XMLID_3_">
	<path id="XMLID_4_" class="st1" d="M234.1,49.7l4.5,65.5h-4.5c-4.6-16.3-10.5-28.6-17.7-36.9c-10.4-11.9-23.9-17.9-40.3-17.9
		c-22.3,0-39.3,10.5-51,31.4c-9.8,17.7-14.6,38.7-14.6,63.1c0,19.8,3.2,37.9,9.7,54.2s14.9,28.3,25.4,35.9s21.2,11.4,32.3,11.4
		c6.5,0,12.7-1,18.8-2.9c6-1.9,11.9-4.8,17.5-8.6v-60c0-10.4-0.7-17.2-2-20.4s-3.4-5.7-6.2-7.3c-2.8-1.7-7.7-2.5-14.8-2.5v-5.8h68
		v5.8H256c-6.7,0-11.3,2.7-13.8,8c-1.7,3.8-2.6,11.2-2.6,22.3v63.5c-9.9,6.3-19.7,11-29.4,13.9c-9.7,3-20.4,4.4-32.2,4.4
		c-33.9,0-59.7-12.9-77.3-38.6c-13.2-19.3-19.8-41.5-19.8-66.7c0-18.3,3.7-35.8,11.1-52.5c8.8-19.9,20.9-35.2,36.2-45.9
		c12.9-8.9,28-13.3,45.6-13.3c6.4,0,12.2,0.6,17.4,1.8s12.6,3.9,22.2,8.1c4.8,2.1,8.1,3.2,9.7,3.2c1.6,0,3-0.9,4.2-2.7
		s1.9-5.3,2.1-10.5L234.1,49.7L234.1,49.7z"/>
</g>
<line id="XMLID_2_" class="st2" x1="88" y1="282" x2="251.8" y2="282"/>
</svg>
