<?xml version="1.0" encoding="utf-8"?>
<!-- Generator: Adobe Illustrator 19.0.0, SVG Export Plug-In . SVG Version: 6.00 Build 0)  -->
<svg version="1.1" id="图层_1" xmlns="http://www.w3.org/2000/svg" xmlns:xlink="http://www.w3.org/1999/xlink" x="0px" y="0px"
	 viewBox="0 0 340.2 340.2" style="enable-background:new 0 0 340.2 340.2;" xml:space="preserve">
<style type="text/css">
	.st0{fill:none;stroke:#040000;stroke-width:5;stroke-miterlimit:10;}
	.st1{fill:#040000;}
</style>
<circle id="XMLID_1_" class="st0" cx="169.1" cy="169.1" r="156.3"/>
<g id="XMLID_3_">
	<path id="XMLID_4_" class="st1" d="M152.7,56.7l3,46.2h-3c-3-11.5-6.8-20.2-11.6-26c-6.8-8.4-15.5-12.6-26.2-12.6
		c-14.6,0-25.6,7.4-33.2,22.1c-6.4,12.5-9.5,27.3-9.5,44.5c0,14,2.1,26.7,6.3,38.2c4.2,11.5,9.7,20,16.6,25.3c6.8,5.4,13.8,8,21,8
		c4.2,0,8.3-0.7,12.2-2.1c3.9-1.4,7.7-3.4,11.4-6V152c0-7.3-0.4-12.1-1.3-14.4c-0.9-2.3-2.2-4-4-5.2s-5-1.8-9.7-1.8v-4.1H169v4.1
		h-2.1c-4.4,0-7.4,1.9-9,5.6c-1.1,2.7-1.7,7.9-1.7,15.8v44.8c-6.5,4.5-12.8,7.7-19.1,9.8s-13.3,3.1-21,3.1
		c-22.1,0-38.9-9.1-50.3-27.2c-8.6-13.6-12.9-29.3-12.9-47.1c0-12.9,2.4-25.2,7.3-37c5.7-14,13.6-24.8,23.6-32.4
		c8.4-6.3,18.3-9.4,29.7-9.4c4.2,0,7.9,0.4,11.3,1.3c3.4,0.9,8.2,2.8,14.5,5.7c3.1,1.5,5.3,2.3,6.3,2.3c1.1,0,2-0.6,2.7-1.9
		c0.8-1.3,1.2-3.7,1.4-7.4L152.7,56.7L152.7,56.7z"/>
</g>
<g id="XMLID_6_">
	<path id="XMLID_7_" class="st1" d="M266.6,56.6v50.7h-4.2c-1.4-9.7-3.8-17.5-7.4-23.2c-3.5-5.8-8.6-10.3-15.1-13.7
		c-6.5-3.4-13.3-5.1-20.3-5.1c-7.9,0-14.4,2.3-19.6,6.9c-5.2,4.6-7.8,9.8-7.8,15.6c0,4.5,1.6,8.5,4.9,12.2
		c4.7,5.4,15.9,12.6,33.6,21.6c14.4,7.3,24.3,13,29.6,16.9c5.3,3.9,9.4,8.6,12.2,13.9c2.9,5.3,4.3,10.9,4.3,16.7
		c0,11.1-4.5,20.7-13.6,28.7s-20.8,12-35.1,12c-4.5,0-8.7-0.3-12.7-1c-2.4-0.4-7.2-1.7-14.7-3.9c-7.4-2.3-12.1-3.4-14.1-3.4
		c-1.9,0-3.4,0.5-4.5,1.6s-1.9,3.3-2.5,6.7h-4.2v-50.2h4.2c2,10.5,4.6,18.4,8,23.6c3.3,5.2,8.5,9.6,15.3,13
		c6.9,3.5,14.4,5.2,22.6,5.2c9.5,0,17-2.4,22.5-7.1s8.3-10.4,8.3-16.9c0-3.6-1-7.2-3.1-10.9s-5.3-7.1-9.7-10.3
		c-3-2.2-11.1-6.8-24.3-13.8s-22.6-12.6-28.2-16.8c-5.6-4.2-9.8-8.8-12.7-13.8s-4.3-10.6-4.3-16.6c0-10.5,4.3-19.6,12.8-27.2
		s19.3-11.4,32.5-11.4c8.2,0,16.9,1.9,26.1,5.7c4.3,1.8,7.3,2.7,9,2.7c2,0,3.6-0.6,4.8-1.7c1.3-1.1,2.3-3.4,3-6.8L266.6,56.6
		L266.6,56.6z"/>
</g>
<g id="XMLID_13_">
	<path id="XMLID_14_" class="st1" d="M67.9,273.8c16-44.4,39.3-50.9,55.7-50.9c17.3,0,31.1,5,52.7,16.5c20.3,9.5,34.1,17,49.2,17
		c19.9,0,29.4-12,38.4-39.9l12.9,7c-8.2,33.4-26.8,52.9-53.5,52.9c-21.1,0-41-10.5-59.6-20c-16-8-26.8-13.5-41.9-13.5
		c-19.4,0-31.5,13.5-40.1,39.9L67.9,273.8z"/>
</g>
</svg>
