<?xml version="1.0" encoding="utf-8"?>
<!-- Generator: Adobe Illustrator 19.0.0, SVG Export Plug-In . SVG Version: 6.00 Build 0)  -->
<svg version="1.1" id="图层_1" xmlns="http://www.w3.org/2000/svg" xmlns:xlink="http://www.w3.org/1999/xlink" x="0px" y="0px"
	 viewBox="0 0 340.2 340.2" style="enable-background:new 0 0 340.2 340.2;" xml:space="preserve">
<style type="text/css">
	.st0{fill:none;stroke:#040000;stroke-width:5;stroke-miterlimit:10;}
	.st1{fill:#040000;}
</style>
<circle id="XMLID_1_" class="st0" cx="170.1" cy="169.3" r="156.3"/>
<g id="XMLID_7_">
	<path id="XMLID_8_" d="M154.9,64.7v69.8h32.7c7.5,0,13-1.6,16.5-4.9c3.5-3.3,5.8-9.8,6.9-19.4h4.9v60.1H211c-0.1-6.9-1-12-2.7-15.2
		s-4.1-5.7-7.1-7.3s-7.6-2.4-13.6-2.4h-32.7v55.8c0,9,0.6,14.9,1.7,17.8c0.9,2.2,2.7,4.1,5.6,5.6c3.9,2.1,7.9,3.1,12.2,3.1h6.5v4.8
		h-77v-4.8h6.3c7.4,0,12.8-2.1,16.1-6.4c2.1-2.8,3.2-9.5,3.2-20.2V86.4c0-9-0.6-14.9-1.7-17.8c-0.9-2.2-2.7-4.1-5.4-5.6
		c-3.8-2.1-7.8-3.1-12.2-3.1h-6.3V55h133.4l1.7,39h-4.6c-2.3-8.3-5-14.4-8-18.3s-6.8-6.7-11.2-8.4c-4.5-1.7-11.3-2.6-20.7-2.6H154.9
		z"/>
</g>
<g id="XMLID_13_">
	<path id="XMLID_14_" class="st1" d="M95.6,285.4c12.1-33.6,29.8-38.5,42.2-38.5c13.1,0,23.6,3.8,39.9,12.5
		c15.4,7.1,25.8,12.8,37.3,12.8c15.1,0,22.2-9,29.2-30.3l9.8,5.3c-6.3,25.4-20.3,40.1-40.5,40.1c-16.1,0-31.1-7.9-45.1-15.1
		c-12.1-6-20.3-10.2-31.7-10.2c-14.7,0-23.9,10.2-30.4,30.3L95.6,285.4z"/>
</g>
</svg>
