<?xml version="1.0" encoding="utf-8"?>
<!-- Generator: Adobe Illustrator 19.0.0, SVG Export Plug-In . SVG Version: 6.00 Build 0)  -->
<svg version="1.1" id="图层_1" xmlns="http://www.w3.org/2000/svg" xmlns:xlink="http://www.w3.org/1999/xlink" x="0px" y="0px"
	 viewBox="0 0 340.2 340.2" style="enable-background:new 0 0 340.2 340.2;" xml:space="preserve">
<style type="text/css">
	.st0{fill:none;stroke:#000000;stroke-width:5;stroke-miterlimit:10;}
</style>
<rect id="XMLID_1_" x="13" y="42" class="st0" width="316.1" height="256.1"/>
<g id="XMLID_4_">
	<path id="XMLID_5_" d="M145,230.1l-1.2,3.9h-59l1.5-3.9c5.9-0.1,9.8-0.6,11.7-1.5c3.1-1.2,5.4-2.9,6.9-5c2.3-3.3,4.7-9.2,7.2-17.8
		l25-86.6c2.1-7.2,3.2-12.6,3.2-16.3c0-1.8-0.5-3.4-1.4-4.7c-0.9-1.3-2.3-2.2-4.2-2.9c-1.9-0.7-5.5-1-11-1l1.3-3.9h55.4l-1.2,3.9
		c-4.5-0.1-7.9,0.4-10.1,1.5c-3.2,1.4-5.6,3.4-7.2,6c-1.7,2.6-3.8,8.4-6.4,17.4l-24.9,86.6c-2.3,8-3.4,13.1-3.4,15.2
		c0,1.8,0.4,3.3,1.3,4.5s2.3,2.2,4.2,2.9C134.8,229.1,138.9,229.7,145,230.1z"/>
</g>
<g id="XMLID_2_">
	<path id="XMLID_7_" d="M154.8,180.1h13.4l30.1,43.9v-33.8c0-3.6-0.3-5.8-1-6.7c-0.9-1.2-2.3-1.8-4.2-1.8h-1.7v-1.6h17.1v1.6h-1.7
		c-2.1,0-3.6,0.7-4.4,2.2c-0.5,0.9-0.8,3-0.8,6.3v49.4h-1.3l-32.5-47.2v36.1c0,3.6,0.3,5.8,1,6.7c0.9,1.2,2.3,1.8,4.2,1.8h1.7v1.6
		h-17.1V237h1.7c2.1,0,3.6-0.7,4.5-2.2c0.5-0.9,0.8-3,0.8-6.3v-40.7c-1.4-2-2.5-3.3-3.2-3.9c-0.7-0.6-1.8-1.2-3.2-1.8
		c-0.7-0.3-1.8-0.4-3.2-0.4v-1.6H154.8z"/>
	<path id="XMLID_9_" d="M212.5,215.5h18.8v6.5h-18.8V215.5z"/>
	<path id="XMLID_11_" d="M233.2,180.1h13.4l30.1,43.9v-33.8c0-3.6-0.3-5.8-1-6.7c-0.9-1.2-2.3-1.8-4.2-1.8h-1.7v-1.6h17.1v1.6h-1.7
		c-2.1,0-3.6,0.7-4.4,2.2c-0.5,0.9-0.8,3-0.8,6.3v49.4h-1.3l-32.5-47.2v36.1c0,3.6,0.3,5.8,1,6.7c0.9,1.2,2.3,1.8,4.2,1.8h1.7v1.6
		H236V237h1.7c2.1,0,3.6-0.7,4.5-2.2c0.5-0.9,0.8-3,0.8-6.3v-40.7c-1.4-2-2.5-3.3-3.2-3.9c-0.7-0.6-1.8-1.2-3.2-1.8
		c-0.7-0.3-1.8-0.4-3.2-0.4v-1.6H233.2z"/>
</g>
</svg>
