<?xml version="1.0" encoding="utf-8"?>
<!-- Generator: Adobe Illustrator 19.0.0, SVG Export Plug-In . SVG Version: 6.00 Build 0)  -->
<svg version="1.1" id="图层_1" xmlns="http://www.w3.org/2000/svg" xmlns:xlink="http://www.w3.org/1999/xlink" x="0px" y="0px"
	 viewBox="0 0 340.2 340.2" style="enable-background:new 0 0 340.2 340.2;" xml:space="preserve">
<style type="text/css">
	.st0{fill:none;stroke:#000000;stroke-width:5;stroke-miterlimit:10;}
</style>
<rect id="XMLID_1_" x="12" y="42" class="st0" width="316.1" height="256.1"/>
<g id="XMLID_4_">
	<path id="XMLID_5_" d="M127,154.3l-0.7,2.4H90l0.9-2.4c3.6-0.1,6-0.4,7.2-0.9c1.9-0.7,3.3-1.8,4.2-3.1c1.4-2,2.9-5.7,4.4-10.9
		L122,86.2c1.3-4.4,2-7.8,2-10c0-1.1-0.3-2.1-0.8-2.9c-0.6-0.8-1.4-1.4-2.6-1.8c-1.1-0.4-3.4-0.6-6.7-0.6l0.8-2.4h34.1l-0.7,2.4
		c-2.8,0-4.8,0.3-6.2,0.9c-2,0.9-3.4,2.1-4.5,3.7c-1,1.6-2.3,5.2-3.9,10.7l-15.3,53.2c-1.4,4.9-2.1,8-2.1,9.4c0,1.1,0.3,2,0.8,2.8
		s1.4,1.3,2.6,1.8C120.7,153.7,123.2,154,127,154.3z"/>
</g>
<g id="XMLID_3_">
	<path id="XMLID_7_" d="M134,137.3c0-5.4,0.8-10.1,2.5-14c1.6-3.9,3.8-6.8,6.5-8.8c2.1-1.5,4.3-2.3,6.5-2.3c3.7,0,6.9,1.9,9.8,5.6
		c3.6,4.6,5.4,10.9,5.4,18.8c0,5.5-0.8,10.2-2.4,14.1s-3.6,6.7-6.1,8.4s-4.9,2.6-7.2,2.6c-4.5,0-8.3-2.7-11.4-8.1
		C135.3,149.1,134,143.7,134,137.3z M140.9,138.2c0,6.6,0.8,11.9,2.4,16.1c1.3,3.5,3.3,5.2,6,5.2c1.3,0,2.6-0.6,3.9-1.7
		c1.4-1.1,2.4-3,3.1-5.7c1.1-4,1.6-9.7,1.6-17.1c0-5.4-0.6-10-1.7-13.6c-0.8-2.7-1.9-4.6-3.3-5.7c-1-0.8-2.1-1.2-3.5-1.2
		c-1.6,0-3,0.7-4.3,2.1c-1.7,1.9-2.8,5-3.4,9.2C141.2,130,140.9,134.1,140.9,138.2z"/>
</g>
<g id="XMLID_10_">
	<path id="XMLID_11_" d="M252.3,113.7l-59.7,25.8v-4.8l51.4-22.3l-51.4-22.5v-5l59.7,26.1V113.7z"/>
</g>
<g id="XMLID_13_">
	<path id="XMLID_14_" d="M102.2,215.8c3.1-3.1,4.9-4.8,5.4-5.3c1.4-1.2,2.9-2.1,4.5-2.7c1.6-0.6,3.2-1,4.7-1c2.6,0,4.9,0.8,6.8,2.3
		s3.2,3.8,3.8,6.7c3.2-3.7,5.8-6.1,8-7.2c2.2-1.1,4.4-1.7,6.7-1.7c2.2,0,4.2,0.6,6,1.7c1.7,1.1,3.1,3,4.1,5.6c0.7,1.8,1,4.6,1,8.4
		v18.1c0,2.6,0.2,4.4,0.6,5.4c0.3,0.7,0.9,1.2,1.7,1.7s2.2,0.7,4,0.7v1.7h-20.8v-1.7h0.9c1.8,0,3.2-0.4,4.2-1.1
		c0.7-0.5,1.2-1.3,1.5-2.3c0.1-0.5,0.2-2,0.2-4.5v-18.1c0-3.4-0.4-5.9-1.2-7.3c-1.2-2-3.1-2.9-5.7-2.9c-1.6,0-3.3,0.4-4.9,1.2
		c-1.6,0.8-3.6,2.3-6,4.5l-0.1,0.5l0.1,2v20.1c0,2.9,0.2,4.7,0.5,5.4s0.9,1.3,1.8,1.8c0.9,0.5,2.4,0.7,4.6,0.7v1.7h-21.3v-1.7
		c2.3,0,3.9-0.3,4.8-0.8c0.9-0.6,1.5-1.4,1.8-2.5c0.2-0.5,0.2-2,0.2-4.6v-18.1c0-3.4-0.5-5.9-1.5-7.4c-1.3-2-3.2-2.9-5.7-2.9
		c-1.7,0-3.3,0.4-4.9,1.3c-2.5,1.3-4.5,2.9-5.9,4.6v22.6c0,2.8,0.2,4.6,0.6,5.4c0.4,0.8,0.9,1.4,1.7,1.9c0.8,0.4,2.3,0.6,4.6,0.6
		v1.7H88.2v-1.7c1.9,0,3.3-0.2,4-0.6c0.8-0.4,1.3-1.1,1.7-2c0.4-0.9,0.6-2.7,0.6-5.3v-16.1c0-4.6-0.1-7.6-0.4-9
		c-0.2-1-0.6-1.7-1-2.1s-1.1-0.6-1.9-0.6c-0.9,0-1.9,0.2-3.1,0.7l-0.7-1.7l12.7-5.1h2v9H102.2z"/>
	<path id="XMLID_16_" d="M161.7,217.7l49.5-21.4v4l-42.6,18.5l42.6,18.7v4.1L161.7,220V217.7z"/>
	<path id="XMLID_18_" d="M217.8,199.7c1.8-4.2,4-7.4,6.7-9.7s6.1-3.4,10.1-3.4c5,0,8.8,1.6,11.5,4.9c2,2.4,3,5,3,7.8
		c0,4.5-2.8,9.2-8.5,14.1c3.8,1.5,6.7,3.6,8.7,6.4c2,2.8,2.9,6.1,2.9,9.8c0,5.4-1.7,10.1-5.1,14c-4.5,5.1-11,7.7-19.4,7.7
		c-4.2,0-7.1-0.5-8.6-1.6c-1.5-1-2.3-2.2-2.3-3.4c0-0.9,0.4-1.7,1.1-2.3c0.7-0.7,1.6-1,2.6-1c0.8,0,1.5,0.1,2.3,0.4
		c0.5,0.2,1.7,0.7,3.5,1.7s3.1,1.5,3.8,1.7c1.1,0.3,2.3,0.5,3.6,0.5c3.1,0,5.8-1.2,8.2-3.6s3.5-5.3,3.5-8.6c0-2.4-0.5-4.8-1.6-7.1
		c-0.8-1.7-1.7-3-2.6-3.9c-1.3-1.2-3.1-2.3-5.4-3.3c-2.3-1-4.6-1.5-7-1.5h-1.5v-1.4c2.4-0.3,4.8-1.2,7.3-2.6
		c2.4-1.4,4.2-3.2,5.3-5.2s1.7-4.2,1.7-6.7c0-3.2-1-5.7-3-7.7c-2-1.9-4.4-2.9-7.4-2.9c-4.7,0-8.7,2.5-11.9,7.6L217.8,199.7z"/>
</g>
</svg>
