<?xml version="1.0" encoding="utf-8"?>
<!-- Generator: Adobe Illustrator 19.0.0, SVG Export Plug-In . SVG Version: 6.00 Build 0)  -->
<svg version="1.1" id="图层_1" xmlns="http://www.w3.org/2000/svg" xmlns:xlink="http://www.w3.org/1999/xlink" x="0px" y="0px"
	 viewBox="0 0 340.2 340.2" style="enable-background:new 0 0 340.2 340.2;" xml:space="preserve">
<style type="text/css">
	.st0{fill:none;stroke:#000000;stroke-width:5;stroke-miterlimit:10;}
</style>
<line id="XMLID_1_" class="st0" x1="191.1" y1="27" x2="191.1" y2="120.4"/>
<line id="XMLID_4_" class="st0" x1="139.2" y1="116.4" x2="191.1" y2="199.5"/>
<line id="XMLID_5_" class="st0" x1="191.1" y1="198.5" x2="191.1" y2="313.3"/>
<line id="XMLID_2_" class="st0" x1="179.7" y1="119.4" x2="201.7" y2="119.4"/>
<circle id="XMLID_3_" class="st0" cx="191.1" cy="125.4" r="5.5"/>
<g id="XMLID_7_">
	<path id="XMLID_8_" d="M147.8,161.4c-0.2-1.9-0.5-3.6-1.2-5.5c-0.9-2.6-1.4-4.4-1.4-5.5c0-1.4,0.3-2.4,1-3.2c0.7-0.9,1.5-1,2.4-1
		c0.9,0,1.5,0.3,2.2,1s0.9,1.7,0.9,3.1c0,1.2-0.3,2.9-1,4.9c-0.7,2-1.2,4.1-1.4,6c1.5-0.9,2.7-2,3.9-3.4c1.9-2,3.2-3.4,4.1-3.9
		c0.9-0.5,1.7-0.7,2.7-0.7c0.9,0,1.5,0.3,2.2,0.9c0.7,0.5,0.9,1.4,0.9,2.2c0,1-0.5,1.9-1.4,2.6c-0.9,0.7-3.1,1.5-6.6,2.4
		c-2,0.5-3.8,1-5.1,1.5c1.4,0.7,3.1,1.2,5.1,1.7c3.2,0.5,5.3,1.4,6.3,2.2s1.5,1.9,1.5,2.9c0,0.9-0.3,1.5-0.9,2s-1.4,0.9-2,0.9
		s-1.7-0.3-2.7-0.9s-2.2-1.9-3.9-3.8c-1-1.4-2.4-2.6-4.1-3.8c0,1.5,0.3,3.2,0.9,4.9c1,3.1,1.4,5.3,1.4,6.5c0,1-0.3,2-1,2.7
		s-1.4,1-2,1c-1,0-1.9-0.3-2.7-1.2c-0.5-0.5-0.9-1.5-0.9-2.7c0-1.4,0.3-2.9,0.9-4.6s1-3.1,1.2-3.8s0.3-1.7,0.5-3.1
		c-1.5,1-2.9,2.2-4.1,3.4c-1.9,2.2-3.4,3.6-4.4,4.1c-0.7,0.5-1.4,0.7-2.2,0.7c-0.9,0-1.7-0.3-2.4-0.9s-1-1.4-1-2s0.3-1.4,0.9-2
		s1.4-1.4,2.4-1.9c0.7-0.3,2.4-0.7,4.9-1.4c1.7-0.3,3.2-0.9,4.8-1.5c-1.4-0.7-3.2-1.4-5.1-1.7c-3.2-0.7-5.3-1.4-6.1-1.9
		c-1.2-0.9-1.9-1.9-1.9-3.2c0-0.7,0.3-1.4,0.9-2s1.4-0.9,2-0.9c0.9,0,1.9,0.3,2.7,0.9c0.9,0.5,2.2,1.7,3.8,3.4
		C144,158.7,146.2,160.5,147.8,161.4z"/>
</g>
</svg>
