<?xml version="1.0" encoding="utf-8"?>
<!-- Generator: Adobe Illustrator 19.0.0, SVG Export Plug-In . SVG Version: 6.00 Build 0)  -->
<svg version="1.1" id="图层_1" xmlns="http://www.w3.org/2000/svg" xmlns:xlink="http://www.w3.org/1999/xlink" x="0px" y="0px"
	 viewBox="0 0 340.2 340.2" style="enable-background:new 0 0 340.2 340.2;" xml:space="preserve">
<style type="text/css">
	.st0{fill:none;stroke:#FFFF00;stroke-width:5;stroke-miterlimit:10;}
	.st1{fill:#FFFF00;}
	.st2{fill:none;stroke:#FFFF00;stroke-width:10;stroke-miterlimit:10;}
</style>
<circle id="XMLID_1_" class="st0" cx="170.1" cy="170.1" r="156.3"/>
<g id="XMLID_3_">
	<path id="XMLID_4_" class="st1" d="M217.7,63.4l3.4,48.8h-3.4c-3.4-12.2-7.8-21.3-13.2-27.5c-7.8-8.9-17.8-13.3-30-13.3
		c-16.6,0-29.3,7.8-38,23.4c-7.3,13.1-10.9,28.8-10.9,47c0,14.7,2.4,28.2,7.2,40.3c4.8,12.2,11.1,21.1,18.9,26.7
		c7.8,5.7,15.8,8.5,24,8.5c4.8,0,9.5-0.7,14-2.2c4.5-1.4,8.8-3.6,13-6.4V164c0-7.7-0.5-12.8-1.5-15.2s-2.5-4.2-4.6-5.5
		s-5.8-1.9-11-1.9v-4.3h50.6v4.3h-2.4c-5,0-8.4,2-10.3,5.9c-1.3,2.8-1.9,8.4-1.9,16.6v47.3c-7.4,4.7-14.7,8.2-21.9,10.4
		s-15.2,3.3-24,3.3c-25.2,0-44.4-9.6-57.5-28.7c-9.8-14.4-14.7-30.9-14.7-49.7c0-13.6,2.8-26.6,8.3-39.1c6.6-14.8,15.5-26.2,27-34.2
		c9.6-6.6,20.9-9.9,33.9-9.9c4.8,0,9.1,0.5,13,1.4c3.9,0.9,9.4,2.9,16.5,6c3.6,1.6,6,2.4,7.2,2.4s2.3-0.7,3.1-2
		c0.9-1.3,1.4-3.9,1.6-7.8L217.7,63.4L217.7,63.4z"/>
</g>
<line id="XMLID_2_" class="st2" x1="99.8" y1="246" x2="240" y2="246"/>
</svg>
