<?xml version="1.0" encoding="utf-8"?>
<!-- Generator: Adobe Illustrator 19.0.0, SVG Export Plug-In . SVG Version: 6.00 Build 0)  -->
<svg version="1.1" id="图层_1" xmlns="http://www.w3.org/2000/svg" xmlns:xlink="http://www.w3.org/1999/xlink" x="0px" y="0px"
	 viewBox="0 0 340.2 340.2" style="enable-background:new 0 0 340.2 340.2;" xml:space="preserve">
<style type="text/css">
	.st0{fill:none;stroke:#000000;stroke-width:5;stroke-miterlimit:10;}
</style>
<circle id="XMLID_1_" class="st0" cx="170.1" cy="170.1" r="162.3"/>
<g id="XMLID_3_">
	<path id="XMLID_4_" d="M89.2,180.6c-1.7,9.3-5,16.5-9.9,21.6s-10.4,7.6-16.4,7.6c-7.1,0-13.3-3.4-18.6-10.1c-5.3-6.8-8-15.9-8-27.4
		c0-11.2,2.9-20.2,8.8-27.2s12.9-10.5,21.1-10.5c6.2,0,11.2,1.8,15.2,5.5s6,7.5,6,11.5c0,2-0.6,3.6-1.7,4.8s-2.7,1.8-4.7,1.8
		c-2.7,0-4.7-1-6.1-2.9c-0.8-1.1-1.3-3.1-1.5-6.2c-0.3-3-1.2-5.4-2.8-7c-1.6-1.5-3.8-2.3-6.6-2.3c-4.6,0-8.2,1.9-11,5.7
		c-3.7,5.1-5.6,11.7-5.6,20.1c0,8.5,1.8,15.9,5.5,22.4s8.6,9.7,14.9,9.7c4.5,0,8.5-1.7,12.1-5.2c2.5-2.4,5-6.7,7.3-12.9L89.2,180.6z
		"/>
	<path id="XMLID_6_" d="M128.9,134.5c9.5,0,17.1,4.1,22.9,12.2c4.9,7,7.3,15,7.3,24c0,6.4-1.3,12.8-4,19.3s-6.4,11.4-11.1,14.7
		c-4.7,3.3-10,5-15.8,5c-9.5,0-17-4.3-22.6-12.8c-4.7-7.2-7.1-15.2-7.1-24.2c0-6.5,1.4-13,4.3-19.4s6.6-11.2,11.3-14.3
		C118.8,136,123.7,134.5,128.9,134.5z M126.8,139.5c-2.4,0-4.9,0.8-7.3,2.4s-4.4,4.5-5.9,8.6s-2.3,9.3-2.3,15.7
		c0,10.3,1.8,19.2,5.4,26.7s8.4,11.2,14.4,11.2c4.4,0,8.1-2.1,11-6.2c2.9-4.1,4.3-11.2,4.3-21.3c0-12.6-2.4-22.5-7.2-29.7
		C136,142,131.8,139.5,126.8,139.5z"/>
	<path id="XMLID_9_" d="M209,134.5v24.2h-2.3c-1.7-7.6-4-12.8-6.7-15.5s-6.2-4.1-10.4-4.1c-3.2,0-5.8,1-7.7,2.9
		c-2,1.9-2.9,4-2.9,6.4c0,2.9,0.7,5.4,2.2,7.4c1.4,2.1,4.3,4.4,8.6,6.7l10,5.5c9.3,5.1,13.9,11.9,13.9,20.2c0,6.5-2.2,11.7-6.5,15.6
		c-4.3,4-9.2,5.9-14.5,5.9c-3.8,0-8.2-0.8-13.2-2.3c-1.5-0.5-2.7-0.8-3.7-0.8c-1.1,0-1.9,0.7-2.5,2H171v-25.3h2.3
		c1.3,7.2,3.7,12.7,7.3,16.3c3.6,3.7,7.7,5.5,12.1,5.5c3.2,0,5.7-1,7.7-3.1s3-4.6,3-7.6c0-3.6-1.1-6.6-3.3-9s-6.6-5.5-13.3-9.2
		s-11-7.1-13-10.1c-2.1-2.9-3.1-6.7-3.1-11.2c0-5.8,1.8-10.7,5.3-14.6c3.5-3.9,8.1-5.9,13.7-5.9c2.5,0,5.5,0.6,9,1.8
		c2.3,0.8,3.9,1.2,4.7,1.2c0.7,0,1.3-0.2,1.7-0.5c0.4-0.4,0.9-1.2,1.4-2.4L209,134.5L209,134.5z"/>
	<path id="XMLID_11_" d="M247.9,106.1l18.5-8.8h3V141c4.2-4.3,8.4-6.5,12.7-6.5c5.9,0,11,3.7,15.2,11s6.3,16.2,6.3,26.6
		c0,10.2-2.1,19-6.4,26.4s-9.5,11.1-15.6,11.1c-4.5,0-8.6-2.3-12.1-6.8v21.9c0,5.2,0.3,8.5,0.8,9.9s1.5,2.4,2.8,3
		c1.4,0.6,4.2,0.9,8.6,0.9v2.9h-33.8v-2.9c4.6,0,7.5-0.7,8.9-2.2c1.3-1.5,2-5.3,2-11.6v-21.9c-3.4,4.5-7.4,6.8-12.1,6.8
		c-6.4,0-11.6-3.7-15.8-11.2c-4.2-7.4-6.3-16.5-6.3-27.2c0-9.7,2-18.2,6-25.7s9.3-11.2,15.8-11.2c4.8,0,8.9,2.5,12.4,7.4v-19.2
		c0-6.6-0.4-10.8-1.1-12.6c-0.7-1.8-2-2.7-3.8-2.7c-1.5,0-3.2,0.4-4.9,1.3L247.9,106.1z M258.8,148.8c-2.6-6.1-5.8-9.1-9.9-9.1
		c-3.9,0-6.9,2.9-9.1,8.6c-2.2,5.8-3.3,14.3-3.3,25.7c0,10,1.1,17.6,3.3,22.7c2.2,5.1,5.2,7.7,9.1,7.7c3.6,0,6.9-2.3,9.9-7V148.8z
		 M269.4,196.1c0.9,2.7,2.4,4.8,4.3,6.2c2,1.4,3.8,2.2,5.6,2.2c3.5,0,6.4-2.5,8.7-7.5c2.3-5,3.4-12.8,3.4-23.5
		c0-22.5-4-33.8-11.9-33.8c-3.3,0-6.7,2.1-10.1,6.3V196.1z"/>
</g>
</svg>
