<?xml version="1.0" encoding="utf-8"?>
<!-- Generator: Adobe Illustrator 19.0.0, SVG Export Plug-In . SVG Version: 6.00 Build 0)  -->
<svg version="1.1" id="图层_1" xmlns="http://www.w3.org/2000/svg" xmlns:xlink="http://www.w3.org/1999/xlink" x="0px" y="0px"
	 viewBox="0 0 340.2 340.2" style="enable-background:new 0 0 340.2 340.2;" xml:space="preserve">
<style type="text/css">
	.st0{fill:none;stroke:#000000;stroke-width:5;stroke-miterlimit:10;}
	.st1{stroke:#000000;stroke-miterlimit:10;}
</style>
<rect id="XMLID_1_" x="12" y="42" class="st0" width="316.1" height="256.1"/>
<g id="XMLID_3_">
	<path id="XMLID_4_" d="M155.7,159.1v51.8c0,11.2,1.2,18.1,3.7,20.8c3.3,3.8,8.3,5.8,15.1,5.8h6.8v4.9h-76.2v-4.9h6.7
		c7.5,0,12.9-2.4,16.1-7.3c1.7-2.7,2.6-9.1,2.6-19.3V96c0-11.2-1.2-18.1-3.5-20.8c-3.4-3.8-8.5-5.8-15.2-5.8h-6.7v-4.9h65.2
		c15.9,0,28.5,1.6,37.6,4.9c9.2,3.3,16.9,8.8,23.2,16.6s9.4,17,9.4,27.7c0,14.5-4.8,26.3-14.4,35.4c-9.6,9.1-23.1,13.6-40.6,13.6
		c-4.3,0-8.9-0.3-13.9-0.9C166.7,161.2,161.4,160.3,155.7,159.1z M155.7,151.6c4.6,0.9,8.7,1.5,12.3,2c3.6,0.4,6.6,0.7,9.2,0.7
		c9.1,0,16.9-3.5,23.5-10.6c6.6-7,9.9-16.1,9.9-27.3c0-7.7-1.6-14.8-4.7-21.4c-3.1-6.6-7.6-11.5-13.4-14.8
		c-5.8-3.3-12.3-4.9-19.7-4.9c-4.5,0-10.2,0.8-17.2,2.5L155.7,151.6L155.7,151.6z"/>
</g>
<line id="XMLID_2_" class="st0" x1="72.3" y1="268" x2="261.3" y2="268"/>
<polygon id="XMLID_7_" class="st1" points="129.9,256.7 188.1,268.2 129.9,279.6 "/>
</svg>
