<?xml version="1.0" encoding="utf-8"?>
<!-- Generator: Adobe Illustrator 19.0.0, SVG Export Plug-In . SVG Version: 6.00 Build 0)  -->
<svg version="1.1" id="图层_1" xmlns="http://www.w3.org/2000/svg" xmlns:xlink="http://www.w3.org/1999/xlink" x="0px" y="0px"
	 viewBox="0 0 340.2 340.2" style="enable-background:new 0 0 340.2 340.2;" xml:space="preserve">
<style type="text/css">
	.st0{fill:none;stroke:#000000;stroke-width:5;stroke-miterlimit:10;}
</style>
<rect id="XMLID_1_" x="42" y="20.3" class="st0" width="256.1" height="299.5"/>
<g id="XMLID_3_">
	<path id="XMLID_4_" d="M104.3,183.2H72.2l-5.6,20.4c-1.4,5-2.1,8.7-2.1,11.2c0,2,0.6,3.7,1.8,5.2c1.2,1.5,3.8,2.5,7.8,2.9v3.5H48
		v-3.5c3.5-1,5.7-2.2,6.7-3.7c2.1-3,4.4-9.2,6.9-18.5L90.8,94.5H93l28.9,107.3c2.3,8.6,4.4,14.2,6.3,16.8s4.5,4,7.9,4.3v3.5h-32.8
		v-3.5c3.3-0.3,5.5-1.1,6.7-2.6s1.7-3.2,1.7-5.3c0-2.8-0.8-7.2-2.4-13.2L104.3,183.2z M102.6,176.2l-14.1-52.1l-14.4,52.1H102.6z"/>
	<path id="XMLID_7_" d="M197.3,101v-3.5h29.4v3.5h-3.1c-3.3,0-5.8,2.1-7.5,6.4c-0.9,2-1.3,6.5-1.3,13.7v52.3c0,12.9-0.8,23-2.5,30.1
		s-4.9,13.3-9.7,18.4s-11.4,7.7-19.7,7.7c-9.1,0-15.9-2.4-20.6-7.3c-4.7-4.9-8-11.4-10-19.7c-1.3-5.6-2-16.2-2-31.8v-50.4
		c0-7.9-0.7-13.1-2.1-15.6c-1.4-2.5-3.7-3.7-6.8-3.7h-3.1v-3.5h35.9v3.5H171c-3.4,0-5.9,1.7-7.3,5c-1,2.3-1.5,7-1.5,14.3v56.2
		c0,5,0.3,10.7,0.9,17.2s1.7,11.5,3.2,15.1c1.6,3.6,3.8,6.6,6.7,8.9c2.9,2.3,6.5,3.5,10.7,3.5c5.4,0,10.3-1.8,14.6-5.5
		s7.2-8.4,8.8-14.1c1.6-5.7,2.4-15.5,2.4-29.1v-52.2c0-8.1-0.6-13.1-1.7-15.1c-1.6-2.8-4-4.2-7.1-4.2L197.3,101L197.3,101z"/>
	<path id="XMLID_9_" d="M253.7,104.5v50.7h15.1c3.5,0,6-1.2,7.6-3.6c1.6-2.4,2.7-7.1,3.2-14.1h2.3v43.7h-2.3c0-5-0.5-8.7-1.3-11
		s-1.9-4.1-3.3-5.3s-3.5-1.8-6.3-1.8h-15.1v40.5c0,6.5,0.3,10.8,0.8,12.9c0.4,1.6,1.3,2.9,2.6,4.1c1.8,1.5,3.7,2.3,5.6,2.3h3v3.5
		H230v-3.5h2.9c3.4,0,5.9-1.6,7.5-4.7c1-2,1.5-6.9,1.5-14.6v-83.3c0-6.5-0.3-10.8-0.8-12.9c-0.4-1.6-1.2-2.9-2.5-4.1
		c-1.8-1.5-3.6-2.3-5.6-2.3h-2.9v-3.5h61.8l0.8,28.3h-2.1c-1.1-6-2.3-10.4-3.7-13.3c-1.4-2.8-3.1-4.9-5.2-6.1
		c-2.1-1.3-5.3-1.9-9.6-1.9L253.7,104.5L253.7,104.5z"/>
</g>
</svg>
