<?xml version="1.0" encoding="utf-8"?>
<!-- Generator: Adobe Illustrator 19.0.0, SVG Export Plug-In . SVG Version: 6.00 Build 0)  -->
<svg version="1.1" id="图层_1" xmlns="http://www.w3.org/2000/svg" xmlns:xlink="http://www.w3.org/1999/xlink" x="0px" y="0px"
	 viewBox="0 0 340.2 340.2" style="enable-background:new 0 0 340.2 340.2;" xml:space="preserve">
<style type="text/css">
	.st0{fill:none;stroke:#000000;stroke-width:5;stroke-miterlimit:10;}
</style>
<rect id="XMLID_1_" x="12" y="42" class="st0" width="316.1" height="256.1"/>
<g id="XMLID_3_">
	<path id="XMLID_4_" d="M119.9,93.3l0.8-3.5l27.9-5.6h4.5l-13.7,54.7c5.2-7.6,11-11.4,17.5-11.4c5.4,0,9.9,2.5,13.6,7.6
		c3.7,5.1,5.6,11.6,5.6,19.6c0,15.9-4.5,30.4-13.6,43.3c-9.1,12.9-18.5,19.4-28.3,19.4c-6.4,0-10.3-3.7-11.7-11.2l-5.4,21.2
		c-2,8-3,13.4-3,16.2c0,5.5,3.4,8.5,10.3,8.9l-0.9,3.5H79.3l0.9-3.5c3.7-0.3,6.7-1.7,8.9-4.3c2.2-2.6,4.3-8.1,6.4-16.4l6.5-26.1
		c-5.2,7.8-10.9,11.7-17.1,11.7c-5.5,0-10.1-2.6-13.7-7.8s-5.4-11.9-5.4-20.1c0-8.1,1.4-16.1,4.3-24.1s6.6-14.9,11.2-20.8
		c4.6-5.9,9.1-10.2,13.6-12.9s8.6-4,12.3-4c6,0,10,3.5,11.9,10.4l6.8-27.2c1.5-6.1,2.3-10.1,2.3-11.9c0-1.4-0.5-2.6-1.4-3.6
		C126,94.2,123.7,93.6,119.9,93.3z M109.9,135.7c-6.4,0-12.2,9.4-17.4,28.1c-5.2,18.7-7.8,31.5-7.8,38.3c0,5.5,1.9,8.2,5.8,8.2
		c3.3,0,6.6-2.8,10-8.5c3.3-5.7,6.8-15.5,10.5-29.4c3.6-13.9,5.5-23.4,5.5-28.5C116.4,138.4,114.2,135.7,109.9,135.7z M151.2,135.7
		c-3.6,0-7,2.7-10.1,8.2s-6.5,15-10.2,28.6s-5.5,23.2-5.5,28.7c0,2.4,0.7,4.5,2.1,6.4s3.1,2.8,5.2,2.8c3.5,0,6.5-2.4,9-7.1
		s5.8-14.1,9.7-28.2c3.9-14.1,5.9-24.7,5.9-31.9C157.2,138.2,155.2,135.7,151.2,135.7z"/>
	<path id="XMLID_8_" d="M188.4,123.3l89.9,41.9v7.7l-89.9,42.4v-13.1l69.6-33.1l-69.6-32.7V123.3z"/>
</g>
</svg>
