<?xml version="1.0" encoding="utf-8"?>
<!-- Generator: Adobe Illustrator 19.0.0, SVG Export Plug-In . SVG Version: 6.00 Build 0)  -->
<svg version="1.1" id="图层_1" xmlns="http://www.w3.org/2000/svg" xmlns:xlink="http://www.w3.org/1999/xlink" x="0px" y="0px"
	 viewBox="0 0 340.2 340.2" style="enable-background:new 0 0 340.2 340.2;" xml:space="preserve">
<style type="text/css">
	.st0{fill:none;stroke:#000000;stroke-width:5;stroke-miterlimit:10;}
</style>
<rect id="XMLID_1_" x="41" y="20.3" class="st0" width="256.1" height="299.5"/>
<g id="XMLID_3_">
	<path id="XMLID_4_" d="M104.8,182.9H73.3l-5.5,19.6c-1.4,4.8-2,8.4-2,10.8c0,1.9,0.6,3.6,1.8,5c1.2,1.4,3.7,2.4,7.6,2.8v3.4H49.6
		v-3.4c3.4-0.9,5.6-2.1,6.6-3.6c2-2.9,4.3-8.9,6.8-17.9L91.5,97.5h2.1l28.2,103.4c2.3,8.3,4.3,13.7,6.2,16.2s4.4,3.9,7.8,4.2v3.4
		h-32v-3.4c3.2-0.2,5.4-1.1,6.6-2.5c1.1-1.4,1.7-3.1,1.7-5.1c0-2.7-0.8-6.9-2.4-12.7L104.8,182.9z M103.1,176.2L89.3,126l-14.1,50.2
		H103.1z"/>
	<path id="XMLID_7_" d="M162.3,107.1v48.8h14.8c3.4,0,5.9-1.1,7.5-3.4c1.6-2.3,2.6-6.8,3.1-13.6h2.2V181h-2.2
		c0-4.8-0.4-8.4-1.2-10.6c-0.8-2.3-1.9-4-3.2-5.1c-1.4-1.1-3.4-1.7-6.1-1.7h-14.8v39c0,6.3,0.3,10.4,0.8,12.5
		c0.4,1.5,1.2,2.8,2.5,3.9c1.8,1.5,3.6,2.2,5.5,2.2h2.9v3.4h-34.8v-3.4h2.9c3.4,0,5.8-1.5,7.3-4.5c1-2,1.4-6.7,1.4-14.1v-80.3
		c0-6.3-0.3-10.4-0.8-12.5c-0.4-1.5-1.2-2.8-2.5-3.9c-1.7-1.5-3.6-2.2-5.5-2.2h-2.9v-3.4h60.4l0.8,27.3h-2.1
		c-1-5.8-2.2-10.1-3.6-12.8c-1.4-2.7-3.1-4.7-5.1-5.9c-2-1.2-5.1-1.8-9.4-1.8L162.3,107.1L162.3,107.1z"/>
	<path id="XMLID_9_" d="M250.2,97.5c10.5,0,19.7,6.1,27.4,18.4c7.7,12.2,11.6,27.5,11.6,45.9c0,18.9-3.9,34.5-11.7,47
		s-17.2,18.7-28.2,18.7c-11.2,0-20.6-6.1-28.2-18.2c-7.6-12.2-11.4-27.9-11.4-47.2c0-19.7,4.4-35.8,13.2-48.3
		C230.5,102.9,239.6,97.5,250.2,97.5z M249,104.1c-7.3,0-13.1,4.1-17.5,12.4c-5.5,10.3-8.2,25.3-8.2,45.1c0,20.3,2.8,35.9,8.5,46.8
		c4.3,8.3,10.1,12.5,17.2,12.5c7.6,0,13.9-4.5,18.9-13.7c5-9.1,7.5-23.5,7.5-43.1c0-21.3-2.7-37.1-8.2-47.6
		C262.9,108.3,256.8,104.1,249,104.1z"/>
</g>
</svg>
