<?xml version="1.0" encoding="utf-8"?>
<!-- Generator: Adobe Illustrator 19.0.0, SVG Export Plug-In . SVG Version: 6.00 Build 0)  -->
<svg version="1.1" id="图层_1" xmlns="http://www.w3.org/2000/svg" xmlns:xlink="http://www.w3.org/1999/xlink" x="0px" y="0px"
	 viewBox="0 0 340.2 340.2" style="enable-background:new 0 0 340.2 340.2;" xml:space="preserve">
<style type="text/css">
	.st0{fill:none;stroke:#000000;stroke-width:5;stroke-miterlimit:10;}
</style>
<rect id="XMLID_1_" x="7.8" y="7.8" class="st0" width="324.5" height="324.5"/>
<g id="XMLID_3_">
	<path id="XMLID_4_" d="M46.5,109.5h41v4.9h-2.7c-2.5,0-4.4,0.8-5.7,2.5c-1.3,1.7-2,4-2,6.8c0,3.1,0.7,6.8,2,11.1l20.3,67.4l20.4-70
		c1.5-5,2.2-8.7,2.2-11.3c0-1.2-0.3-2.3-0.8-3.1c-0.7-1.3-1.6-2.2-2.7-2.7s-3.3-0.7-6.6-0.7v-4.9h28.5v4.9c-3.3,0.4-5.6,1.3-6.9,2.8
		c-2.2,2.7-4.2,7.1-6,13.3L96.8,235.3h-3.9l-31.1-103c-1.4-4.8-2.7-8.2-4-10.3c-1.3-2.1-2.9-3.8-4.9-5.3c-1.1-0.8-3.2-1.6-6.4-2.3
		V109.5z"/>
	<path id="XMLID_6_" d="M197.9,214c-8.9,9.7-14.6,15.3-16.9,16.8c-3.4,2.2-7.1,3.3-10.9,3.3c-6,0-11-2.9-14.9-8.7
		s-5.9-13.4-5.9-22.8c0-6,1-11.1,2.9-15.5c2.6-6,7.1-11.7,13.6-17.1c6.4-5.3,17.2-11.8,32.1-19.5v-4.8c0-12.2-1.4-20.5-4.1-25.1
		c-2.8-4.5-6.8-6.8-12-6.8c-4,0-7.2,1.5-9.5,4.5c-2.4,3-3.6,6.5-3.6,10.4l0.2,7.7c0,4.1-0.7,7.2-2.2,9.5c-1.5,2.2-3.4,3.3-5.9,3.3
		c-2.3,0-4.3-1.2-5.8-3.5s-2.2-5.5-2.2-9.5c0-7.6,2.8-14.7,8.4-21.1c5.6-6.4,13.4-9.6,23.5-9.6c7.7,0,14.1,1.8,19,5.5
		c3.7,2.8,6.5,7.1,8.3,12.9c1.1,3.8,1.7,11.6,1.7,23.5v41.4c0,11.6,0.2,18.8,0.5,21.4c0.3,2.6,0.8,4.4,1.6,5.3
		c0.7,0.9,1.6,1.3,2.5,1.3c1,0,1.9-0.3,2.7-0.9c1.3-1.2,3.9-4.4,7.7-9.7v7.5c-7.1,13.3-13.9,20-20.4,20c-3.1,0-5.6-1.5-7.4-4.5
		C198.9,226.4,198,221.3,197.9,214z M197.9,205.3v-46.5c-9.6,5.3-15.8,9.1-18.6,11.3c-5,3.9-8.6,8-10.8,12.3s-3.2,8.9-3.2,14
		c0,6.4,1.4,11.7,4.1,15.9c2.7,4.2,5.9,6.3,9.4,6.3C183.7,218.6,190,214.2,197.9,205.3z"/>
	<path id="XMLID_9_" d="M260.6,105.9v27.5c7.3-18.3,14.8-27.5,22.5-27.5c3.5,0,6.4,1.5,8.7,4.5c2.3,3,3.4,6.4,3.4,10.3
		c0,3.5-0.8,6.4-2.5,8.8c-1.7,2.4-3.6,3.6-5.9,3.6c-2.2,0-4.7-1.5-7.5-4.6c-2.8-3.1-4.8-4.6-6.1-4.6c-1.1,0-2.4,0.9-3.7,2.7
		c-2.9,3.6-5.8,9.6-8.9,18V203c0,6.8,0.6,11.9,1.8,15.3c0.8,2.4,2.3,4.4,4.4,6s5.1,2.4,9,2.4v4.8h-44.7v-4.8c4.4,0,7.7-1,9.9-2.9
		c1.6-1.4,2.7-3.7,3.3-6.8c0.3-1.5,0.5-5.8,0.5-12.9v-47.3c0-14.2-0.2-22.7-0.6-25.4c-0.4-2.7-1.2-4.7-2.3-5.9
		c-1.1-1.2-2.5-1.9-4.1-1.9c-2,0-4.2,0.7-6.7,2l-1-4.8l26.4-14.9H260.6z"/>
</g>
</svg>
