<?xml version="1.0" encoding="utf-8"?>
<!-- Generator: Adobe Illustrator 19.0.0, SVG Export Plug-In . SVG Version: 6.00 Build 0)  -->
<svg version="1.1" id="图层_1" xmlns="http://www.w3.org/2000/svg" xmlns:xlink="http://www.w3.org/1999/xlink" x="0px" y="0px"
	 viewBox="0 0 340.2 340.2" style="enable-background:new 0 0 340.2 340.2;" xml:space="preserve">
<style type="text/css">
	.st0{fill:none;stroke:#000000;stroke-width:5;stroke-miterlimit:10;}
</style>
<rect id="XMLID_1_" x="7.8" y="7.8" class="st0" width="324.5" height="324.5"/>
<g id="XMLID_3_">
	<path id="XMLID_4_" d="M296.3,61v5.8c-4.7,0-8.5,1-11.4,3s-5.7,5.7-8.3,11.2c-1.8,3.7-4.6,12.5-8.3,26.4l-50.1,172.5h-5.3
		l-41-136.8l-40.7,136.8h-4.8L72.9,102.1c-4-13.3-6.5-21.1-7.6-23.5c-1.8-4-4.2-7-7.2-8.9s-7.2-2.9-12.4-2.9V61h66.5v5.8H109
		c-4.7,0-8.3,1.3-10.7,3.8c-2.5,2.5-3.7,5.6-3.7,9.2c0,3.7,1.9,12.1,5.8,25.4l35.4,120.1l29.8-102.1l-5.3-18l-4.2-14.4
		c-1.9-5.3-3.9-9.9-6.2-13.9c-1.1-2-2.6-3.7-4.2-5c-2.2-1.9-4.4-3.3-6.6-4.1c-1.7-0.6-4.3-0.9-8-0.9V61h70v5.8h-4.8
		c-4.9,0-8.6,1.3-10.9,3.8c-2.3,2.5-3.4,5.9-3.4,10.3c0,5.4,2,14.7,6,28.1l34.5,116.3l34.2-117.9c3.9-13,5.8-22.1,5.8-27.1
		c0-2.4-0.6-4.7-1.9-6.8c-1.3-2.1-2.9-3.6-4.8-4.4c-3.4-1.5-7.7-2.2-13.1-2.2V61H296.3z"/>
</g>
</svg>
