<?xml version="1.0" encoding="utf-8"?>
<!-- Generator: Adobe Illustrator 19.0.0, SVG Export Plug-In . SVG Version: 6.00 Build 0)  -->
<svg version="1.1" id="图层_1" xmlns="http://www.w3.org/2000/svg" xmlns:xlink="http://www.w3.org/1999/xlink" x="0px" y="0px"
	 viewBox="0 0 340.2 340.2" style="enable-background:new 0 0 340.2 340.2;" xml:space="preserve">
<style type="text/css">
	.st0{fill:none;stroke:#000000;stroke-width:5;stroke-miterlimit:10;}
</style>
<rect id="XMLID_1_" x="7.8" y="7.8" class="st0" width="324.5" height="324.5"/>
<g id="XMLID_3_">
	<path id="XMLID_4_" d="M292.3,57.5v6.3c-8.2,1.5-14.3,4.1-18.5,7.8c-6,5.6-11.3,14.1-16,25.5l-80.4,196.2h-6.3L84.7,94.5
		c-4.4-10.2-7.5-16.4-9.4-18.7c-2.8-3.5-6.3-6.3-10.5-8.2c-4.1-2-9.7-3.3-16.7-3.8v-6.3h94.2v6.3c-10.7,1-17.6,2.8-20.7,5.4
		c-3.2,2.6-4.8,6-4.8,10c0,5.7,2.6,14.5,7.8,26.5l58.7,135.2l54.4-133.5c5.3-13.1,8-22.3,8-27.4c0-3.3-1.6-6.4-4.9-9.4
		c-3.3-3-8.8-5.1-16.7-6.4c-0.6-0.1-1.5-0.3-2.9-0.5v-6.3h71.1V57.5z"/>
</g>
</svg>
