<?xml version="1.0" encoding="utf-8"?>
<!-- Generator: Adobe Illustrator 19.0.0, SVG Export Plug-In . SVG Version: 6.00 Build 0)  -->
<svg version="1.1" id="图层_1" xmlns="http://www.w3.org/2000/svg" xmlns:xlink="http://www.w3.org/1999/xlink" x="0px" y="0px"
	 viewBox="0 0 340.2 340.2" style="enable-background:new 0 0 340.2 340.2;" xml:space="preserve">
<style type="text/css">
	.st0{fill:none;stroke:#000000;stroke-width:5;stroke-miterlimit:10;}
</style>
<rect id="XMLID_1_" x="7.8" y="7.8" class="st0" width="324.5" height="324.5"/>
<g id="XMLID_3_">
	<path id="XMLID_4_" d="M204.1,205.6h-88.5l-15.5,36.1c-3.8,8.9-5.7,15.5-5.7,19.9c0,3.5,1.7,6.5,5,9.2c3.3,2.6,10.5,4.4,21.5,5.1
		v6.2h-72v-6.2c9.5-1.7,15.7-3.9,18.5-6.6c5.7-5.4,12.1-16.3,19-32.9l80.4-188.1h5.9l79.5,190.1c6.4,15.3,12.2,25.2,17.4,29.7
		s12.5,7.1,21.8,7.7v6.2h-90.2v-6.2c9.1-0.4,15.3-2,18.5-4.6s4.8-5.7,4.8-9.4c0-4.9-2.2-12.7-6.7-23.4L204.1,205.6z M199.4,193.2
		l-38.8-92.4l-39.8,92.4H199.4z"/>
</g>
</svg>
