<?xml version="1.0" encoding="utf-8"?>
<!-- Generator: Adobe Illustrator 19.0.0, SVG Export Plug-In . SVG Version: 6.00 Build 0)  -->
<svg version="1.1" id="图层_1" xmlns="http://www.w3.org/2000/svg" xmlns:xlink="http://www.w3.org/1999/xlink" x="0px" y="0px"
	 viewBox="0 0 340.2 340.2" style="enable-background:new 0 0 340.2 340.2;" xml:space="preserve">
<style type="text/css">
	.st0{fill:none;stroke:#000000;stroke-width:5;stroke-miterlimit:10;}
</style>
<rect id="XMLID_1_" x="42.1" y="6" class="st0" width="256.4" height="327.6"/>
<line id="XMLID_2_" class="st0" x1="42.1" y1="100.3" x2="298.6" y2="100.3"/>
<g id="XMLID_4_">
	<path id="XMLID_5_" d="M166.2,210.7c-0.6-10.3-2.7-20.5-6.3-30.6c-5.1-14.6-7.6-24.6-7.6-30.2c0-7.7,1.8-13.6,5.5-17.6
		c3.6-4,8.2-6,13.5-6c4.6,0,8.6,2,12.1,6c3.4,4,5.1,9.8,5.1,17.2c0,6.7-2,16-5.9,28s-6.4,23-7.3,33.2c8.2-5.2,15.6-11.5,22.1-19
		c10.1-11.8,17.6-19.1,22.6-21.9c4.9-2.8,9.9-4.2,15-4.2c4.9,0,9,1.7,12.4,5c3.4,3.4,5,7.3,5,12c0,5.5-2.5,10.4-7.4,14.7
		s-17.2,8.6-36.9,13c-11.5,2.5-21,5.4-28.6,8.7c7.7,4,17.2,7.1,28.4,9.2c18,3.3,29.8,7.4,35.4,12.3s8.4,10.3,8.4,16.1
		c0,4.5-1.7,8.3-5,11.6c-3.4,3.3-7.3,4.9-11.7,4.9s-9.4-1.6-14.9-4.7c-5.4-3.1-12.8-10.1-22-21c-6.1-7.3-13.7-14.1-22.8-20.6
		c0.3,8.5,2,17.7,5.1,27.7c5.4,17.6,8,29.6,8,36c0,6-1.8,11-5.4,15.1c-3.6,4.1-7.4,6.1-11.4,6.1c-5.5,0-10.5-2.2-15-6.5
		c-3.1-3.1-4.7-8.1-4.7-15c0-7.1,1.7-15.7,5.1-25.8c3.4-10.1,5.6-17,6.5-20.8s1.7-9.4,2.5-16.9c-8.8,5.8-16.5,12.3-23,19.4
		c-10.9,12.2-19.1,20-24.6,23.2c-3.9,2.4-7.9,3.6-12.1,3.6c-5.1,0-9.4-1.7-13-5.1s-5.4-7.2-5.4-11.4c0-3.7,1.5-7.6,4.6-11.7
		c3-4.1,7.6-7.5,13.7-10.2c4-1.8,13.2-4.2,27.5-7.1c9.2-1.9,18.2-4.8,27-8.5c-8-4-17.6-7.1-28.8-9.4c-18.3-3.9-29.6-7.4-34-10.5
		c-6.7-4.9-10.1-10.9-10.1-17.9c0-4,1.7-7.7,5-11.1c3.4-3.4,7.3-5,11.7-5c4.9,0,10.1,1.6,15.6,4.7c5.5,3.1,12.4,9.4,20.6,18.9
		C149.4,198.1,157.7,205.5,166.2,210.7z"/>
</g>
</svg>
