<?xml version="1.0" encoding="utf-8"?>
<!-- Generator: Adobe Illustrator 19.0.0, SVG Export Plug-In . SVG Version: 6.00 Build 0)  -->
<svg version="1.1" id="图层_1" xmlns="http://www.w3.org/2000/svg" xmlns:xlink="http://www.w3.org/1999/xlink" x="0px" y="0px"
	 viewBox="0 0 340.2 340.2" style="enable-background:new 0 0 340.2 340.2;" xml:space="preserve">
<style type="text/css">
	.st0{fill:none;stroke:#00FF00;stroke-width:5;stroke-miterlimit:10;}
	.st1{fill:#00FF00;}
</style>
<circle id="XMLID_1_" class="st0" cx="170.1" cy="170.1" r="156.3"/>
<g id="XMLID_7_">
	<path id="XMLID_8_" class="st1" d="M163.9,214.2l-49-128.7v102.2c0,9.4,0.8,15.3,2.5,17.6c2.3,3.2,6,4.7,10.9,4.7h4.5v4.2H88.7V210
		h4.5c5.4,0,9.2-2,11.4-5.9c1.4-2.4,2.1-7.9,2.1-16.5V87.8c0-6.8-0.6-11.7-1.9-14.7c-0.9-2.2-2.5-4-4.8-5.5s-6.1-2.2-11.3-2.2v-4.2
		h35.9l46,119.7l45.3-119.7h35.9v4.2h-4.4c-5.4,0-9.3,2-11.5,5.9c-1.4,2.4-2.1,7.9-2.1,16.5v99.9c0,9.4,0.9,15.3,2.6,17.6
		c2.3,3.2,6,4.7,10.9,4.7h4.4v4.2h-53.9V210h4.5c5.4,0,9.2-2,11.4-5.9c1.4-2.4,2.1-7.9,2.1-16.5V85.5L167,214.2H163.9z"/>
</g>
<g id="XMLID_13_">
	<path id="XMLID_14_" class="st1" d="M88.7,274.1c12.4-34.6,30.6-39.7,43.4-39.7c13.5,0,24.2,3.9,41,12.8
		c15.8,7.4,26.6,13.2,38.4,13.2c15.5,0,22.9-9.3,29.9-31.1l10.1,5.4c-6.4,26-20.9,41.2-41.7,41.2c-16.5,0-32-8.2-46.4-15.6
		c-12.5-6.2-20.9-10.5-32.6-10.5c-15.1,0-24.6,10.5-31.3,31.1L88.7,274.1z"/>
</g>
</svg>
