<?xml version="1.0" encoding="utf-8"?>
<!-- Generator: Adobe Illustrator 19.0.0, SVG Export Plug-In . SVG Version: 6.00 Build 0)  -->
<svg version="1.1" id="图层_1" xmlns="http://www.w3.org/2000/svg" xmlns:xlink="http://www.w3.org/1999/xlink" x="0px" y="0px"
	 viewBox="0 0 340.2 340.2" style="enable-background:new 0 0 340.2 340.2;" xml:space="preserve">
<style type="text/css">
	.st0{fill:none;stroke:#040000;stroke-width:5;stroke-miterlimit:10;}
	.st1{fill:#040000;}
	.st2{fill:none;stroke:#000000;stroke-width:10;stroke-miterlimit:10;}
</style>
<rect id="XMLID_1_" x="6.8" y="56.5" class="st0" width="327" height="227.5"/>
<g id="XMLID_4_">
	<path id="XMLID_5_" class="st1" d="M143.4,255.5c13.2-47.4,32.5-54.4,46.1-54.4c14.3,0,25.7,5.3,43.6,17.6
		c16.8,10.1,28.2,18.1,40.7,18.1c16.4,0,24.3-12.8,31.8-42.6l10.7,7.5c-6.8,35.7-22.2,56.5-44.3,56.5c-17.5,0-34-11.2-49.3-21.3
		c-13.2-8.5-22.2-14.4-34.7-14.4c-16.1,0-26.1,14.4-33.2,42.6L143.4,255.5z"/>
</g>
<line id="XMLID_9_" class="st0" x1="333.8" y1="56.5" x2="6.8" y2="284"/>
<line id="XMLID_2_" class="st2" x1="20.8" y1="110.4" x2="198.8" y2="110.4"/>
</svg>
