<?xml version="1.0" encoding="utf-8"?>
<!-- Generator: Adobe Illustrator 19.0.0, SVG Export Plug-In . SVG Version: 6.00 Build 0)  -->
<svg version="1.1" id="图层_1" xmlns="http://www.w3.org/2000/svg" xmlns:xlink="http://www.w3.org/1999/xlink" x="0px" y="0px"
	 viewBox="0 0 340.2 340.2" style="enable-background:new 0 0 340.2 340.2;" xml:space="preserve">
<style type="text/css">
	.st0{fill:none;stroke:#040000;stroke-width:5;stroke-miterlimit:10;}
	.st1{fill:#040000;}
	.st2{fill:none;stroke:#000000;stroke-width:10;stroke-miterlimit:10;}
	.st3{fill:none;stroke:#000000;stroke-width:5;stroke-miterlimit:10;}
</style>
<rect id="XMLID_1_" x="49.1" y="86" class="st0" width="242.3" height="168.6"/>
<g id="XMLID_4_">
	<path id="XMLID_5_" class="st1" d="M154.9,231.2c9.1-31.1,22.4-35.6,31.8-35.6c9.9,0,17.7,3.5,30,11.5
		c11.6,6.6,19.5,11.9,28.1,11.9c11.3,0,16.7-8.4,21.9-28l7.4,4.9c-4.7,23.4-15.3,37-30.5,37c-12.1,0-23.4-7.3-34-14
		c-9.1-5.6-15.3-9.4-23.9-9.4c-11.1,0-18,9.4-22.9,28L154.9,231.2z"/>
</g>
<line id="XMLID_9_" class="st0" x1="291.5" y1="86" x2="49.1" y2="254.5"/>
<line id="XMLID_2_" class="st2" x1="68.5" y1="125.9" x2="184" y2="125.9"/>
<line id="XMLID_3_" class="st3" x1="0" y1="170.1" x2="49.1" y2="170.1"/>
<line id="XMLID_7_" class="st3" x1="291.5" y1="170.1" x2="340.2" y2="170.1"/>
</svg>
