<?xml version="1.0" encoding="utf-8"?>
<!-- Generator: Adobe Illustrator 19.0.0, SVG Export Plug-In . SVG Version: 6.00 Build 0)  -->
<svg version="1.1" id="图层_1" xmlns="http://www.w3.org/2000/svg" xmlns:xlink="http://www.w3.org/1999/xlink" x="0px" y="0px"
	 viewBox="0 0 340.2 340.2" style="enable-background:new 0 0 340.2 340.2;" xml:space="preserve">
<style type="text/css">
	.st0{fill:none;stroke:#000000;stroke-width:5;stroke-miterlimit:10;}
</style>
<rect id="XMLID_1_" x="12" y="42" class="st0" width="316.1" height="256.1"/>
<g id="XMLID_3_">
	<path id="XMLID_4_" d="M85.7,169.7v48.7c0,10.5,1.2,17.1,3.5,19.6c3.1,3.6,7.9,5.4,14.2,5.4h6.5v4.6H38v-4.6h6.4
		c7,0,12.1-2.3,15.2-6.9c1.6-2.5,2.4-8.5,2.4-18.1V110.2c0-10.5-1.2-17.1-3.4-19.6c-3.2-3.6-8-5.4-14.3-5.4H38v-4.6h61.5
		c15,0,26.8,1.5,35.5,4.6c8.7,3.1,15.9,8.3,21.8,15.6c5.9,7.3,8.9,16.1,8.9,26.1c0,13.6-4.5,24.8-13.5,33.4
		c-9,8.5-21.7,12.8-38.2,12.8c-4,0-8.4-0.2-13.1-0.8C96.1,171.8,91,170.8,85.7,169.7z M85.7,162.6c4.4,0.8,8.2,1.4,11.7,1.8
		c3.4,0.5,6.2,0.6,8.7,0.6c8.5,0,15.9-3.4,22.2-9.9c6.2-6.6,9.4-15.2,9.4-25.8c0-7.3-1.5-14-4.5-20.2c-3-6.2-7.2-10.9-12.6-14
		c-5.4-3.1-11.7-4.6-18.5-4.6c-4.2,0-9.6,0.8-16.2,2.3v69.8H85.7z"/>
</g>
<g id="XMLID_2_">
	<g id="XMLID_17_">
		<g id="XMLID_20_">
			<g>
				<line class="st0" x1="214.3" y1="170.1" x2="315" y2="170.1"/>
				<g>
					<polygon points="224.3,184.6 170.1,170.1 224.3,155.5 					"/>
				</g>
			</g>
		</g>
		<g id="XMLID_18_">
			<line id="XMLID_5_" x1="172.4" y1="167.2" x2="172.4" y2="173"/>
		</g>
	</g>
</g>
</svg>
