<?xml version="1.0" encoding="utf-8"?>
<!-- Generator: Adobe Illustrator 19.0.0, SVG Export Plug-In . SVG Version: 6.00 Build 0)  -->
<svg version="1.1" id="图层_1" xmlns="http://www.w3.org/2000/svg" xmlns:xlink="http://www.w3.org/1999/xlink" x="0px" y="0px"
	 viewBox="0 0 340.2 340.2" style="enable-background:new 0 0 340.2 340.2;" xml:space="preserve">
<style type="text/css">
	.st0{fill:none;stroke:#000000;stroke-width:5;stroke-miterlimit:10;}
</style>
<circle id="XMLID_1_" class="st0" cx="170.1" cy="170.1" r="162.3"/>
<g id="XMLID_3_">
	<path id="XMLID_4_" d="M96.4,157.1h61.2v-46.8c0-8.4-0.4-13.9-1.3-16.5c-0.6-2-2-3.7-4.1-5.2c-2.8-1.9-5.7-2.9-8.8-2.9h-4.7v-4.5
		H195v4.5h-4.7c-3.1,0-6.1,0.9-8.8,2.8c-2.1,1.3-3.5,3.2-4.2,5.9c-0.7,2.6-1.1,7.9-1.1,16V216c0,8.3,0.4,13.8,1.3,16.4
		c0.6,2,2,3.7,4,5.2c2.8,1.9,5.8,2.9,8.9,2.9h4.7v4.5h-56.3v-4.5h4.7c5.4,0,9.3-2,11.8-5.9c1.6-2.6,2.4-8.8,2.4-18.6v-50H96.4v49.9
		c0,8.3,0.4,13.8,1.3,16.4c0.6,2,2,3.7,4.1,5.2c2.8,1.9,5.7,2.9,8.8,2.9h4.8v4.5H58.9v-4.5h4.7c5.4,0,9.4-2,11.9-5.9
		c1.6-2.6,2.3-8.8,2.3-18.6V110.3c0-8.4-0.4-13.9-1.3-16.5c-0.6-2-2-3.7-4-5.2c-2.9-1.9-5.8-2.9-8.9-2.9h-4.7v-4.5h56.4v4.5h-4.8
		c-3.1,0-6.1,0.9-8.8,2.8c-2,1.3-3.4,3.2-4.2,5.9c-0.8,2.6-1.2,7.9-1.2,16L96.4,157.1L96.4,157.1z"/>
	<path id="XMLID_6_" d="M282.7,210.9l-1.1,33.9h-78.5v-4.3l59.1-97.8h-29.1c-6.3,0-10.4,0.5-12.3,1.5c-1.9,1-3.5,2.9-4.8,5.7
		c-1.7,4-2.8,9-3,15h-3.9l0.6-30.7h74.6v4.5l-59.6,98h32.4c6.8,0,11.4-0.7,13.8-2.1c2.4-1.4,4.4-3.9,5.9-7.4c1-2.6,1.9-8,2.6-16.3
		L282.7,210.9L282.7,210.9z"/>
</g>
</svg>
