<?xml version="1.0" encoding="utf-8"?>
<!-- Generator: Adobe Illustrator 19.0.0, SVG Export Plug-In . SVG Version: 6.00 Build 0)  -->
<svg version="1.1" id="图层_1" xmlns="http://www.w3.org/2000/svg" xmlns:xlink="http://www.w3.org/1999/xlink" x="0px" y="0px"
	 viewBox="0 0 340.2 340.2" style="enable-background:new 0 0 340.2 340.2;" xml:space="preserve">
<style type="text/css">
	.st0{fill:none;stroke:#000000;stroke-width:5;stroke-miterlimit:10;}
</style>
<rect id="XMLID_1_" x="41" y="20.3" class="st0" width="256.1" height="299.5"/>
<g id="XMLID_3_">
	<path id="XMLID_4_" d="M113.1,183.5H75.5l-6.6,20.6c-1.6,5.1-2.4,8.9-2.4,11.4c0,2,0.7,3.7,2.1,5.2s4.4,2.5,9.1,2.9v3.6H47.2v-3.6
		c4.1-1,6.7-2.2,7.9-3.8c2.4-3.1,5.1-9.3,8.1-18.8L97.3,93.7h2.5l33.8,108.6c2.7,8.7,5.2,14.4,7.4,17s5.3,4.1,9.3,4.4v3.6H112v-3.6
		c3.9-0.3,6.5-1.1,7.8-2.6c1.4-1.5,2-3.3,2-5.4c0-2.8-1-7.3-2.9-13.4L113.1,183.5z M111.1,176.4l-16.5-52.8l-16.9,52.8H111.1z"/>
	<path id="XMLID_7_" d="M182.5,103.8v51.6h21.3c5.5,0,9.2-1.1,11.1-3.4c2.5-3,3.9-8.2,4.1-15.6h2.6v45.5H219
		c-0.7-6.4-1.3-10.4-2-12.2c-0.9-2.2-2.3-4-4.2-5.3c-2-1.3-5-1.9-9-1.9h-21.3v43c0,5.8,0.2,9.3,0.6,10.5c0.4,1.3,1,2.2,2,3
		c1,0.7,2.8,1.1,5.4,1.1H207c5.5,0,9.5-0.5,11.9-1.5c2.5-1,4.9-3,7.2-6.1c3-4,6-10,9.1-18h2.9l-8.4,32.7h-74.8v-3.6h3.4
		c2.3,0,4.5-0.7,6.5-2.2c1.5-1,2.6-2.6,3.1-4.6c0.5-2.1,0.8-6.3,0.8-12.6v-84.8c0-8.3-0.6-13.4-1.9-15.3c-1.7-2.6-4.6-3.9-8.6-3.9
		h-3.4v-3.6h74.8l1.1,28.6h-2.8c-1-6.9-2.1-11.6-3.3-14.2s-3-4.5-5.4-5.9c-1.9-1-5.3-1.4-10.1-1.4h-26.6V103.8z"/>
	<path id="XMLID_9_" d="M286.5,223.7v3.6H245v-3.6h3.4c4,0,6.9-1.6,8.7-4.7c1.1-2.1,1.7-7,1.7-14.8v-84.4c0-6.6-0.3-11-0.9-13.1
		c-0.5-1.6-1.5-3-2.9-4.1c-2.1-1.5-4.3-2.3-6.6-2.3H245v-3.6h41.6v3.6H283c-4,0-6.8,1.6-8.7,4.7c-1.2,2.1-1.8,7-1.8,14.8v84.4
		c0,6.6,0.3,11,0.9,13.1c0.5,1.6,1.5,3,3,4.1c2.1,1.5,4.2,2.3,6.5,2.3L286.5,223.7L286.5,223.7z"/>
</g>
</svg>
