<?xml version="1.0" encoding="utf-8"?>
<!-- Generator: Adobe Illustrator 19.0.0, SVG Export Plug-In . SVG Version: 6.00 Build 0)  -->
<svg version="1.1" id="图层_1" xmlns="http://www.w3.org/2000/svg" xmlns:xlink="http://www.w3.org/1999/xlink" x="0px" y="0px"
	 viewBox="0 0 340.2 340.2" style="enable-background:new 0 0 340.2 340.2;" xml:space="preserve">
<style type="text/css">
	.st0{fill:none;stroke:#000000;stroke-width:5;stroke-miterlimit:10;}
</style>
<rect id="XMLID_1_" x="41" y="20.3" class="st0" width="256.1" height="299.5"/>
<g id="XMLID_3_">
	<path id="XMLID_4_" d="M101.9,183.2H71.2L65.8,204c-1.3,5.1-2,8.9-2,11.5c0,2,0.6,3.8,1.7,5.3c1.2,1.5,3.6,2.5,7.5,3v3.6H48v-3.6
		c3.3-1,5.5-2.2,6.4-3.8c2-3.1,4.2-9.4,6.6-18.9L89,92.6h2l27.6,109.6c2.2,8.8,4.2,14.5,6.1,17.1c1.8,2.6,4.3,4.1,7.6,4.4v3.6H101
		v-3.6c3.2-0.3,5.3-1.1,6.4-2.6s1.7-3.3,1.7-5.4c0-2.8-0.8-7.3-2.3-13.5L101.9,183.2z M100.3,176l-13.5-53.2L73,176H100.3z"/>
	<path id="XMLID_7_" d="M158.6,102.8v52.1H176c4.5,0,7.5-1.1,9.1-3.4c2-3,3.2-8.2,3.4-15.7h2.2v45.8h-2.2
		c-0.5-6.4-1.1-10.5-1.6-12.3c-0.7-2.3-1.9-4-3.5-5.3s-4.1-1.9-7.4-1.9h-17.4v43.4c0,5.8,0.2,9.4,0.5,10.6c0.3,1.3,0.9,2.3,1.6,3
		c0.8,0.7,2.3,1.1,4.4,1.1h13.5c4.5,0,7.7-0.5,9.8-1.6c2-1,4-3.1,5.8-6.1c2.4-4,4.9-10.1,7.4-18.2h2.3l-6.8,33H136v-3.6h2.8
		c1.9,0,3.6-0.7,5.3-2.2c1.2-1,2.1-2.6,2.5-4.7c0.4-2.1,0.7-6.3,0.7-12.7v-85.6c0-8.4-0.5-13.5-1.5-15.4c-1.4-2.6-3.7-3.9-7-3.9H136
		v-3.6h61.1l0.9,28.8h-2.3c-0.8-6.9-1.7-11.7-2.7-14.3c-1-2.6-2.5-4.6-4.4-5.9c-1.6-1-4.3-1.5-8.2-1.5L158.6,102.8L158.6,102.8z"/>
	<path id="XMLID_9_" d="M208.8,227.3v-3.6h3c3.4,0,5.7-1.8,7.1-5.3c0.9-2.1,1.3-6.9,1.3-14.4v-85.1c0-8.2-0.5-13.4-1.6-15.4
		c-1.5-2.8-3.8-4.3-6.8-4.3h-3v-3.6h32.3c11.9,0,20.9,2.2,27.1,6.7s11.2,11.9,14.9,22.3c3.8,10.4,5.6,22.5,5.6,36.1
		c0,18.3-3.4,33.6-10.1,45.9c-7.5,13.7-19,20.6-34.4,20.6h-35.4V227.3z M231.5,217.8c5,1.8,9.1,2.7,12.5,2.7c9,0,16.6-5.3,22.5-15.8
		c6-10.6,9-24.9,9-42.9c0-18.2-3-32.5-9-43s-13.6-15.7-23-15.7c-3.5,0-7.5,0.9-12,2.8V217.8z"/>
</g>
</svg>
