<?xml version="1.0" encoding="utf-8"?>
<!-- Generator: Adobe Illustrator 19.0.0, SVG Export Plug-In . SVG Version: 6.00 Build 0)  -->
<svg version="1.1" id="图层_1" xmlns="http://www.w3.org/2000/svg" xmlns:xlink="http://www.w3.org/1999/xlink" x="0px" y="0px"
	 viewBox="0 0 340.2 340.2" style="enable-background:new 0 0 340.2 340.2;" xml:space="preserve">
<style type="text/css">
	.st0{fill:none;stroke:#000000;stroke-width:5;stroke-miterlimit:10;}
</style>
<path id="XMLID_51_" class="st0" d="M9.8,195.9c0-10.7,8.1-19.3,18.8-19.3"/>
<path id="XMLID_50_" class="st0" d="M28.6,176.5c14.4,0,20.3,8.4,20.3,19.3"/>
<path id="XMLID_49_" class="st0" d="M48.9,195.9c0-10.7,9.4-19.9,18.7-19.9"/>
<path id="XMLID_48_" class="st0" d="M67.6,176c12.6-0.2,19.3,9.3,19.3,19.9"/>
<path id="XMLID_47_" class="st0" d="M86.9,195.9c0-10.7,10.5-19.9,19.1-19.9"/>
<path id="XMLID_46_" class="st0" d="M106,176c7.9,0,19.1,8.7,19.1,19.9"/>
<path id="XMLID_45_" class="st0" d="M125,195.9c0-10.7,10.1-19.3,19.4-19.3"/>
<path id="XMLID_44_" class="st0" d="M144.4,176.5c10.9,0,19.3,9,19.3,19.3"/>
<line id="XMLID_35_" class="st0" x1="9.8" y1="195.9" x2="9.8" y2="261.7"/>
<line id="XMLID_34_" class="st0" x1="163.7" y1="195.9" x2="163.7" y2="261.7"/>
<path id="XMLID_10_" class="st0" d="M177.1,196.4c0-10.7,8.1-19.3,18.8-19.3"/>
<path id="XMLID_9_" class="st0" d="M195.9,177.1c14.4,0,20.3,8.4,20.3,19.3"/>
<path id="XMLID_8_" class="st0" d="M216.2,196.4c0-10.7,9.4-19.9,18.7-19.9"/>
<path id="XMLID_7_" class="st0" d="M234.9,176.5c12.6-0.2,19.3,9.3,19.3,19.9"/>
<path id="XMLID_6_" class="st0" d="M254.2,196.4c0-10.7,10.5-19.9,19.1-19.9"/>
<path id="XMLID_5_" class="st0" d="M273.3,176.5c7.9,0,19.1,8.7,19.1,19.9"/>
<path id="XMLID_4_" class="st0" d="M292.3,196.4c0-10.7,10.1-19.3,19.4-19.3"/>
<path id="XMLID_3_" class="st0" d="M311.7,177.1c10.9,0,19.3,9,19.3,19.3"/>
<line id="XMLID_2_" class="st0" x1="177.1" y1="196.4" x2="177.1" y2="262.3"/>
<line id="XMLID_1_" class="st0" x1="331" y1="196.4" x2="331" y2="262.3"/>
<path id="XMLID_20_" class="st0" d="M93.8,144.9c0,10.7,8.1,19.3,18.8,19.3"/>
<path id="XMLID_19_" class="st0" d="M112.6,164.2c14.4,0,20.3-8.4,20.3-19.3"/>
<path id="XMLID_18_" class="st0" d="M132.9,144.9c0,10.7,9.4,19.9,18.7,19.9"/>
<path id="XMLID_17_" class="st0" d="M151.6,164.7c12.6,0.2,19.3-9.3,19.3-19.9"/>
<path id="XMLID_16_" class="st0" d="M170.9,144.9c0,10.7,10.5,19.9,19.1,19.9"/>
<path id="XMLID_15_" class="st0" d="M190,164.7c7.9,0,19.1-8.7,19.1-19.9"/>
<path id="XMLID_14_" class="st0" d="M209,144.9c0,10.7,10.1,19.3,19.4,19.3"/>
<path id="XMLID_13_" class="st0" d="M228.4,164.2c10.9,0,19.3-9,19.3-19.3"/>
<line id="XMLID_12_" class="st0" x1="93.8" y1="144.9" x2="93.8" y2="79"/>
<line id="XMLID_11_" class="st0" x1="247.7" y1="144.9" x2="247.7" y2="79"/>
</svg>
