<?xml version="1.0" encoding="utf-8"?>
<!-- Generator: Adobe Illustrator 19.0.0, SVG Export Plug-In . SVG Version: 6.00 Build 0)  -->
<svg version="1.1" id="图层_1" xmlns="http://www.w3.org/2000/svg" xmlns:xlink="http://www.w3.org/1999/xlink" x="0px" y="0px"
	 viewBox="0 0 340.2 340.2" style="enable-background:new 0 0 340.2 340.2;" xml:space="preserve">
<style type="text/css">
	.st0{fill:none;stroke:#000000;stroke-width:5;stroke-miterlimit:10;}
</style>
<path id="XMLID_40_" class="st0" d="M57.7,27c10.2,0,18.5,7.8,18.5,18"/>
<path id="XMLID_39_" class="st0" d="M76.2,45c0,13.9-8.1,19.4-18.5,19.4"/>
<path id="XMLID_38_" class="st0" d="M57.7,64.5c10.2,0,19.1,9,19.1,17.9"/>
<path id="XMLID_37_" class="st0" d="M76.8,82.4C77,94.5,67.9,101,57.7,101"/>
<path id="XMLID_36_" class="st0" d="M57.7,101c10.2,0,19.1,10.1,19.1,18.3"/>
<path id="XMLID_35_" class="st0" d="M76.8,119.3c0,7.6-8.4,18.3-19.1,18.3"/>
<line id="XMLID_1_" class="st0" x1="57.7" y1="27" x2="57.7" y2="9.7"/>
<line id="XMLID_2_" class="st0" x1="57.7" y1="154.9" x2="57.7" y2="137.5"/>
<line id="XMLID_3_" class="st0" x1="56.5" y1="154.9" x2="283.7" y2="154.9"/>
<path id="XMLID_18_" class="st0" d="M169.7,27.4c10.2,0,18.5,7.8,18.5,18"/>
<path id="XMLID_13_" class="st0" d="M188.2,45.5c0,13.9-8.1,19.4-18.5,19.4"/>
<path id="XMLID_9_" class="st0" d="M169.7,64.9c10.2,0,19.1,9,19.1,17.9"/>
<path id="XMLID_8_" class="st0" d="M188.8,82.8c0.2,12.1-8.9,18.6-19.1,18.6"/>
<path id="XMLID_7_" class="st0" d="M169.7,101.4c10.2,0,19.1,10.1,19.1,18.3"/>
<path id="XMLID_6_" class="st0" d="M188.8,119.7c0,7.6-8.4,18.3-19.1,18.3"/>
<line id="XMLID_5_" class="st0" x1="169.7" y1="27.4" x2="169.7" y2="10.1"/>
<line id="XMLID_4_" class="st0" x1="169.7" y1="155.3" x2="169.7" y2="138"/>
<path id="XMLID_33_" class="st0" d="M283.7,27.6c10.2,0,18.5,7.8,18.5,18"/>
<path id="XMLID_32_" class="st0" d="M302.2,45.6c0,13.9-8.1,19.4-18.5,19.4"/>
<path id="XMLID_28_" class="st0" d="M283.7,65c10.2,0,19.1,9,19.1,17.9"/>
<path id="XMLID_23_" class="st0" d="M302.7,83c0.2,12.1-8.9,18.6-19.1,18.6"/>
<path id="XMLID_22_" class="st0" d="M283.7,101.5c10.2,0,19.1,10.1,19.1,18.3"/>
<path id="XMLID_21_" class="st0" d="M302.7,119.8c0,7.6-8.4,18.3-19.1,18.3"/>
<line id="XMLID_20_" class="st0" x1="283.7" y1="27.6" x2="283.7" y2="10.3"/>
<line id="XMLID_19_" class="st0" x1="283.7" y1="155.4" x2="283.7" y2="138.1"/>
<path id="XMLID_65_" class="st0" d="M80.7,314.1c10.2,0,18.5-7.8,18.5-18"/>
<path id="XMLID_64_" class="st0" d="M99.2,296.1c0-13.9-8.1-19.4-18.5-19.4"/>
<path id="XMLID_63_" class="st0" d="M80.7,276.6c10.2,0,19.1-9,19.1-17.9"/>
<path id="XMLID_62_" class="st0" d="M99.8,258.7c0.2-12.1-8.9-18.6-19.1-18.6"/>
<path id="XMLID_61_" class="st0" d="M80.7,240.2c10.2,0,19.1-10.1,19.1-18.3"/>
<path id="XMLID_60_" class="st0" d="M99.8,221.9c0-7.6-8.4-18.3-19.1-18.3"/>
<line id="XMLID_59_" class="st0" x1="80.7" y1="314.1" x2="80.7" y2="331.4"/>
<line id="XMLID_58_" class="st0" x1="80.7" y1="186.3" x2="80.7" y2="203.6"/>
<line id="XMLID_57_" class="st0" x1="23" y1="169.3" x2="306.7" y2="169.3"/>
<path id="XMLID_56_" class="st0" d="M192.7,313.7c10.2,0,18.5-7.8,18.5-18"/>
<path id="XMLID_55_" class="st0" d="M211.2,295.7c0-13.9-8.1-19.4-18.5-19.4"/>
<path id="XMLID_54_" class="st0" d="M192.7,276.2c10.2,0,19.1-9,19.1-17.9"/>
<path id="XMLID_53_" class="st0" d="M211.8,258.3c0.2-12.1-8.9-18.6-19.1-18.6"/>
<path id="XMLID_52_" class="st0" d="M192.7,239.7c10.2,0,19.1-10.1,19.1-18.3"/>
<path id="XMLID_51_" class="st0" d="M211.8,221.4c0-7.6-8.4-18.3-19.1-18.3"/>
<line id="XMLID_50_" class="st0" x1="192.7" y1="313.7" x2="192.7" y2="331"/>
<line id="XMLID_49_" class="st0" x1="192.7" y1="185.8" x2="192.7" y2="203.2"/>
<path id="XMLID_48_" class="st0" d="M306.7,313.6c10.2,0,18.5-7.8,18.5-18"/>
<path id="XMLID_47_" class="st0" d="M325.2,295.5c0-13.9-8.1-19.4-18.5-19.4"/>
<path id="XMLID_46_" class="st0" d="M306.7,276.1c10.2,0,19.1-9,19.1-17.9"/>
<path id="XMLID_45_" class="st0" d="M325.7,258.2c0.2-12.1-8.9-18.6-19.1-18.6"/>
<path id="XMLID_44_" class="st0" d="M306.7,239.6c10.2,0,19.1-10.1,19.1-18.3"/>
<path id="XMLID_43_" class="st0" d="M325.8,221.3c0-7.6-8.4-18.3-19.1-18.3"/>
<line id="XMLID_42_" class="st0" x1="306.7" y1="313.6" x2="306.7" y2="330.9"/>
<line id="XMLID_41_" class="st0" x1="306.7" y1="168.3" x2="306.7" y2="203"/>
<line id="XMLID_34_" class="st0" x1="248.9" y1="330.9" x2="306.7" y2="330.9"/>
<line id="XMLID_66_" class="st0" x1="248.9" y1="330.9" x2="248.9" y2="186.3"/>
<line id="XMLID_67_" class="st0" x1="248.9" y1="186.3" x2="192.7" y2="186.3"/>
<line id="XMLID_68_" class="st0" x1="192.7" y1="331" x2="136.2" y2="331"/>
<line id="XMLID_69_" class="st0" x1="136.2" y1="331" x2="136.2" y2="186.3"/>
<line id="XMLID_70_" class="st0" x1="139.4" y1="186.3" x2="80.7" y2="186.3"/>
<line id="XMLID_71_" class="st0" x1="80.7" y1="331.4" x2="23" y2="331.4"/>
<line id="XMLID_72_" class="st0" x1="23" y1="331.4" x2="23" y2="168.3"/>
</svg>
