<?xml version="1.0" encoding="utf-8"?>
<!-- Generator: Adobe Illustrator 19.0.0, SVG Export Plug-In . SVG Version: 6.00 Build 0)  -->
<svg version="1.1" id="图层_1" xmlns="http://www.w3.org/2000/svg" xmlns:xlink="http://www.w3.org/1999/xlink" x="0px" y="0px"
	 viewBox="0 0 340.2 340.2" style="enable-background:new 0 0 340.2 340.2;" xml:space="preserve">
<style type="text/css">
	.st0{fill:none;stroke:#000000;stroke-width:5;stroke-miterlimit:10;}
</style>
<rect id="XMLID_1_" x="12" y="42" class="st0" width="316.1" height="256.1"/>
<g id="XMLID_3_">
	<path id="XMLID_4_" d="M118.7,82.2c16.4,0,30.6,7.5,42.6,22.5c12,15,18,33.7,18,56.1c0,23.1-6,42.2-18.1,57.5
		c-12.1,15.2-26.7,22.8-43.9,22.8c-17.4,0-32-7.4-43.8-22.3c-11.8-14.9-17.7-34.1-17.7-57.7c0-24.1,6.8-43.8,20.5-59
		C88,88.8,102.2,82.2,118.7,82.2z M116.9,90.4c-11.3,0-20.3,5-27.2,15.1C81.2,118.1,77,136.4,77,160.6c0,24.8,4.4,43.9,13.2,57.2
		C97,228,105.9,233,117,233c11.8,0,21.6-5.6,29.4-16.7c7.7-11.1,11.6-28.7,11.6-52.6c0-26-4.2-45.4-12.7-58.1
		C138.4,95.5,128.9,90.4,116.9,90.4z"/>
	<path id="XMLID_7_" d="M273.9,82.2v52.5h-3.4c-1.1-10.1-3.1-18.1-6-24.1s-7-10.7-12.3-14.2s-10.9-5.3-16.6-5.3
		c-6.5,0-11.8,2.4-16,7.1s-6.3,10.1-6.3,16.2c0,4.6,1.3,8.8,4,12.7c3.8,5.6,13,13.1,27.4,22.4c11.8,7.6,19.8,13.5,24.1,17.5
		c4.3,4.1,7.6,8.9,10,14.4c2.3,5.5,3.5,11.3,3.5,17.4c0,11.5-3.7,21.4-11.1,29.7S254.3,241,242.6,241c-3.7,0-7.1-0.3-10.3-1
		c-1.9-0.4-5.9-1.7-12-4.1c-6-2.4-9.9-3.5-11.5-3.5s-2.8,0.6-3.7,1.7c-0.9,1.1-1.6,3.4-2,6.9h-3.4v-52h3.4
		c1.6,10.9,3.8,19.1,6.5,24.5s6.9,9.9,12.5,13.5s11.8,5.4,18.5,5.4c7.8,0,13.9-2.5,18.4-7.4s6.7-10.8,6.7-17.5
		c0-3.7-0.9-7.5-2.6-11.3s-4.4-7.4-8-10.6c-2.4-2.2-9-7-19.8-14.3s-18.5-13.1-23-17.4c-4.6-4.3-8-9.1-10.4-14.3s-3.5-11-3.5-17.2
		c0-10.9,3.5-20.3,10.4-28.2s15.8-11.8,26.5-11.8c6.7,0,13.8,2,21.3,5.9c3.5,1.9,5.9,2.8,7.4,2.8c1.6,0,2.9-0.6,4-1.7
		c1-1.2,1.8-3.5,2.5-7h3.4V82.2z"/>
</g>
</svg>
