<?xml version="1.0" encoding="utf-8"?>
<!-- Generator: Adobe Illustrator 19.0.0, SVG Export Plug-In . SVG Version: 6.00 Build 0)  -->
<svg version="1.1" id="图层_1" xmlns="http://www.w3.org/2000/svg" xmlns:xlink="http://www.w3.org/1999/xlink" x="0px" y="0px"
	 viewBox="0 0 340.2 340.2" style="enable-background:new 0 0 340.2 340.2;" xml:space="preserve">
<style type="text/css">
	.st0{fill:none;stroke:#000000;stroke-width:5;stroke-miterlimit:10;}
</style>
<g id="XMLID_3_">
	<path id="XMLID_4_" d="M95.8,226.8L67.2,116.2V204c0,8.1,0.5,13.1,1.5,15.1c1.3,2.7,3.5,4.1,6.4,4.1h2.6v3.6H51.9v-3.6h2.6
		c3.1,0,5.3-1.7,6.6-5c0.8-2.1,1.2-6.8,1.2-14.2v-85.9c0-5.8-0.4-10-1.1-12.6c-0.5-1.9-1.4-3.4-2.8-4.7c-1.4-1.3-3.6-1.9-6.6-1.9
		v-3.6h20.9l26.8,102.9l26.4-102.9H147v3.6h-2.6c-3.2,0-5.4,1.7-6.7,5c-0.8,2.1-1.2,6.8-1.2,14.2V204c0,8.1,0.5,13.1,1.5,15.1
		c1.3,2.7,3.5,4.1,6.4,4.1h2.6v3.6h-31.4v-3.6h2.6c3.2,0,5.4-1.7,6.6-5c0.8-2.1,1.2-6.8,1.2-14.2v-87.9L97.6,226.8H95.8z"/>
	<path id="XMLID_6_" d="M172.7,102.5v52h16.2c4.2,0,7-1.1,8.4-3.4c1.9-3,2.9-8.2,3.2-15.7h2v45.8h-2c-0.5-6.4-1-10.5-1.5-12.3
		c-0.7-2.3-1.7-4-3.2-5.3s-3.8-1.9-6.9-1.9h-16.2v43.4c0,5.8,0.1,9.4,0.4,10.6c0.3,1.3,0.8,2.3,1.5,3s2.1,1.1,4.1,1.1h12.5
		c4.2,0,7.2-0.5,9.1-1.6c1.9-1,3.7-3.1,5.4-6.1c2.3-4,4.6-10.1,6.9-18.1h2.2l-6.4,33h-56.9v-3.6h2.6c1.7,0,3.4-0.7,5-2.2
		c1.2-1,2-2.6,2.4-4.7c0.4-2.1,0.6-6.3,0.6-12.7v-85.5c0-8.3-0.5-13.5-1.4-15.4c-1.3-2.6-3.5-3.9-6.5-3.9h-2.6v-3.6h56.9l0.8,28.8
		h-2.1c-0.8-6.9-1.6-11.7-2.5-14.3c-0.9-2.6-2.3-4.6-4.1-5.9c-1.5-1-4-1.5-7.7-1.5C192.9,102.5,172.7,102.5,172.7,102.5z"/>
	<path id="XMLID_8_" d="M292.9,226.8h-19.7l-25-61.5c-1.9,0.1-3.4,0.2-4.5,0.2c-0.5,0-1,0-1.5,0s-1.1-0.1-1.7-0.1v38.2
		c0,8.3,0.5,13.4,1.5,15.4c1.4,2.8,3.5,4.3,6.2,4.3h2.9v3.6h-31.7v-3.6h2.8c3.1,0,5.4-1.8,6.7-5.4c0.8-2,1.1-6.8,1.1-14.3v-85
		c0-8.3-0.5-13.4-1.5-15.4c-1.4-2.8-3.5-4.3-6.3-4.3h-2.8v-3.6h26.9c7.8,0,13.6,1,17.4,3.1s6.9,5.8,9.5,11.3s3.9,12,3.9,19.5
		c0,8.1-1.5,15.1-4.4,21.1c-3,6-7.5,10.2-13.8,12.6l15.3,37.7c3.5,8.7,6.5,14.4,9,17.3c2.5,2.8,5.8,4.7,9.8,5.4L292.9,226.8
		L292.9,226.8z M240.5,159.2c0.7,0,1.3,0,1.8,0s0.9,0,1.3,0c7,0,12.4-2.7,15.9-8.1c3.6-5.4,5.4-12.4,5.4-20.8c0-8.2-1.4-14.9-4.3-20
		s-6.7-7.7-11.5-7.7c-2.1,0-5,0.6-8.6,1.8V159.2z"/>
</g>
<rect id="XMLID_1_" x="42" y="20.3" class="st0" width="256.1" height="299.5"/>
</svg>
