<?xml version="1.0" encoding="utf-8"?>
<!-- Generator: Adobe Illustrator 19.0.0, SVG Export Plug-In . SVG Version: 6.00 Build 0)  -->
<svg version="1.1" id="图层_1" xmlns="http://www.w3.org/2000/svg" xmlns:xlink="http://www.w3.org/1999/xlink" x="0px" y="0px"
	 viewBox="0 0 340.2 340.2" style="enable-background:new 0 0 340.2 340.2;" xml:space="preserve">
<style type="text/css">
	.st0{fill:none;stroke:#000000;stroke-width:5;stroke-miterlimit:10;}
</style>
<rect id="XMLID_1_" x="42" y="20.3" class="st0" width="256.1" height="299.5"/>
<g id="XMLID_3_">
	<path id="XMLID_4_" d="M100.6,182.9H71.8l-5,20c-1.2,4.9-1.9,8.6-1.9,11c0,1.9,0.5,3.6,1.6,5.1s3.4,2.4,7,2.9v3.5H50.2V222
		c3.1-0.9,5.1-2.2,6-3.6c1.9-3,3.9-9.1,6.2-18.2L88.5,95.6h1.9l25.8,105.5c2.1,8.5,4,14,5.7,16.5s4.1,3.9,7.1,4.3v3.5H99.7V222
		c3-0.2,5-1.1,6-2.5s1.6-3.2,1.6-5.2c0-2.7-0.7-7.1-2.2-13L100.6,182.9z M99,176l-12.6-51.3L73.5,176H99z"/>
	<path id="XMLID_7_" d="M181.6,95.6v43.9h-2c-0.7-8.4-1.8-15.1-3.5-20.1s-4.1-9-7.3-11.9c-3.1-2.9-6.4-4.4-9.7-4.4
		c-3.8,0-6.9,2-9.4,5.9c-2.5,4-3.7,8.5-3.7,13.5c0,3.9,0.8,7.4,2.4,10.6c2.3,4.7,7.6,10.9,16.1,18.7c6.9,6.4,11.7,11.2,14.2,14.6
		c2.5,3.4,4.5,7.4,5.9,12s2.1,9.5,2.1,14.5c0,9.6-2.2,17.9-6.5,24.8c-4.4,7-10,10.4-16.8,10.4c-2.2,0-4.2-0.3-6.1-0.8
		c-1.1-0.3-3.5-1.5-7-3.4s-5.8-2.9-6.8-2.9c-0.9,0-1.6,0.5-2.2,1.4s-0.9,2.9-1.2,5.8h-2v-43.5h2c0.9,9.1,2.2,15.9,3.8,20.4
		s4.1,8.3,7.4,11.3c3.3,3,6.9,4.5,10.9,4.5c4.6,0,8.2-2.1,10.8-6.2s4-9,4-14.6c0-3.1-0.5-6.3-1.5-9.5s-2.6-6.1-4.7-8.9
		c-1.4-1.9-5.3-5.8-11.7-11.9c-6.3-6.1-10.9-10.9-13.5-14.6c-2.7-3.6-4.7-7.6-6.1-12c-1.4-4.4-2.1-9.2-2.1-14.4c0-9.1,2-17,6.1-23.5
		c4.1-6.6,9.3-9.9,15.6-9.9c3.9,0,8.1,1.7,12.5,5c2,1.6,3.5,2.3,4.3,2.3c0.9,0,1.7-0.5,2.3-1.5s1.1-2.9,1.5-5.8h1.9V95.6z"/>
	<path id="XMLID_9_" d="M238.5,225.4l-28.7-106.8v84.8c0,7.8,0.5,12.7,1.5,14.6c1.4,2.6,3.5,3.9,6.4,3.9h2.6v3.5h-25.8V222h2.6
		c3.1,0,5.4-1.6,6.7-4.9c0.8-2,1.2-6.6,1.2-13.7v-82.9c0-5.6-0.4-9.7-1.1-12.2c-0.5-1.8-1.5-3.3-2.8-4.5c-1.4-1.2-3.6-1.8-6.6-1.8
		v-3.5h21l26.9,99.3l26.5-99.3h21v3.5h-2.6c-3.2,0-5.4,1.6-6.7,4.9c-0.8,2-1.2,6.6-1.2,13.7v82.9c0,7.8,0.5,12.7,1.5,14.6
		c1.4,2.6,3.5,3.9,6.4,3.9h2.6v3.5h-31.5V222h2.6c3.2,0,5.4-1.6,6.7-4.9c0.8-2,1.2-6.6,1.2-13.7v-84.8l-28.6,106.8L238.5,225.4
		L238.5,225.4z"/>
</g>
</svg>
