<?xml version="1.0" encoding="utf-8"?>
<!-- Generator: Adobe Illustrator 19.0.0, SVG Export Plug-In . SVG Version: 6.00 Build 0)  -->
<svg version="1.1" id="图层_1" xmlns="http://www.w3.org/2000/svg" xmlns:xlink="http://www.w3.org/1999/xlink" x="0px" y="0px"
	 viewBox="0 0 340.2 340.2" style="enable-background:new 0 0 340.2 340.2;" xml:space="preserve">
<style type="text/css">
	.st0{fill:none;stroke:#000000;stroke-width:5;stroke-miterlimit:10;}
	.st1{fill:none;stroke:#000000;stroke-width:4;stroke-miterlimit:10;}
	.st2{fill:none;stroke:#000000;stroke-width:5;stroke-miterlimit:10;stroke-dasharray:12,5;}
</style>
<line id="XMLID_1_" class="st0" x1="113.8" y1="40.8" x2="113.8" y2="155.4"/>
<line id="XMLID_3_" class="st0" x1="64.2" y1="155.6" x2="163.5" y2="155.6"/>
<path id="XMLID_4_" class="st0" d="M57.6,196.7c7.5-14,27.2-27.9,56.2-28.1"/>
<path id="XMLID_5_" class="st0" d="M113.8,168.7c28.9,0,50.1,14,56.2,28.1"/>
<line id="XMLID_2_" class="st0" x1="113.8" y1="168.3" x2="113.8" y2="232.7"/>
<g id="XMLID_7_">
	<g id="XMLID_37_">
		<g id="XMLID_40_">
			<g>
				<line class="st1" x1="25.3" y1="252.1" x2="170.6" y2="106.8"/>
				<g>
					<polygon points="173.2,120.6 195.6,81.7 156.8,104.2 					"/>
				</g>
			</g>
		</g>
		<g id="XMLID_38_">
			<line id="XMLID_6_" x1="191.7" y1="80.9" x2="196.5" y2="85.7"/>
		</g>
	</g>
</g>
<line id="XMLID_21_" class="st0" x1="235" y1="40.8" x2="235" y2="155.4"/>
<line id="XMLID_19_" class="st0" x1="185.4" y1="155.6" x2="284.7" y2="155.6"/>
<path id="XMLID_18_" class="st0" d="M178.8,196.7c7.5-14,27.2-27.9,56.2-28.1"/>
<path id="XMLID_17_" class="st0" d="M235,168.7c28.9,0,50.1,14,56.2,28.1"/>
<line id="XMLID_16_" class="st0" x1="235" y1="168.3" x2="235" y2="232.7"/>
<g id="XMLID_8_">
	<g id="XMLID_32_">
		<g id="XMLID_35_">
			<g>
				<line class="st1" x1="146" y1="252.6" x2="294.4" y2="104.2"/>
				<g>
					<polygon points="297,118 319.5,79.1 280.6,101.5 					"/>
				</g>
			</g>
		</g>
		<g id="XMLID_33_">
			<line id="XMLID_11_" x1="315.4" y1="78.3" x2="320.3" y2="83.1"/>
		</g>
	</g>
</g>
<line id="XMLID_22_" class="st2" x1="25.3" y1="251.6" x2="146.5" y2="251.6"/>
</svg>
