<?xml version="1.0" encoding="utf-8"?>
<!-- Generator: Adobe Illustrator 19.0.0, SVG Export Plug-In . SVG Version: 6.00 Build 0)  -->
<svg version="1.1" id="图层_1" xmlns="http://www.w3.org/2000/svg" xmlns:xlink="http://www.w3.org/1999/xlink" x="0px" y="0px"
	 viewBox="0 0 340.2 340.2" style="enable-background:new 0 0 340.2 340.2;" xml:space="preserve">
<style type="text/css">
	.st0{fill:none;stroke:#000000;stroke-width:5;stroke-miterlimit:10;}
</style>
<path id="XMLID_1_" class="st0" d="M26.2,120.8c0,19.6,14.9,35.5,34.5,35.5"/>
<path id="XMLID_2_" class="st0" d="M60.7,156.3c26.5,0,37.2-15.5,37.2-35.5"/>
<path id="XMLID_3_" class="st0" d="M97.9,120.8c0,19.6,17.2,36.5,34.3,36.5"/>
<path id="XMLID_4_" class="st0" d="M132.2,157.2c23.2,0.4,35.5-17,35.5-36.5"/>
<path id="XMLID_5_" class="st0" d="M167.7,120.8c0,19.6,19.3,36.5,35,36.5"/>
<path id="XMLID_6_" class="st0" d="M202.7,157.2c14.5,0,35-16,35-36.5"/>
<path id="XMLID_7_" class="st0" d="M237.7,120.8c0,19.6,18.5,35.5,35.6,35.5"/>
<path id="XMLID_8_" class="st0" d="M273.4,156.3c20.1,0,35.4-16.5,35.4-35.5"/>
<line id="XMLID_19_" class="st0" x1="26.2" y1="120.8" x2="26.2" y2="0"/>
<line id="XMLID_20_" class="st0" x1="308.7" y1="120.8" x2="308.7" y2="0"/>
<path id="XMLID_51_" class="st0" d="M26.2,219.2c0-19.6,14.9-35.5,34.5-35.5"/>
<path id="XMLID_50_" class="st0" d="M60.7,183.7c26.5,0,37.2,15.5,37.2,35.5"/>
<path id="XMLID_49_" class="st0" d="M97.9,219.2c0-19.6,17.2-36.5,34.3-36.5"/>
<path id="XMLID_48_" class="st0" d="M132.2,182.8c23.2-0.4,35.5,17,35.5,36.5"/>
<path id="XMLID_47_" class="st0" d="M167.7,219.2c0-19.6,19.3-36.5,35-36.5"/>
<path id="XMLID_46_" class="st0" d="M202.7,182.8c14.5,0,35,16,35,36.5"/>
<path id="XMLID_45_" class="st0" d="M237.7,219.2c0-19.6,18.5-35.5,35.6-35.5"/>
<path id="XMLID_44_" class="st0" d="M273.4,183.7c20.1,0,35.4,16.5,35.4,35.5"/>
<line id="XMLID_35_" class="st0" x1="26.2" y1="219.2" x2="26.2" y2="340.2"/>
<line id="XMLID_34_" class="st0" x1="308.7" y1="219.2" x2="308.7" y2="340.2"/>
</svg>
