<?xml version="1.0" encoding="utf-8"?>
<!-- Generator: Adobe Illustrator 19.0.0, SVG Export Plug-In . SVG Version: 6.00 Build 0)  -->
<svg version="1.1" id="图层_1" xmlns="http://www.w3.org/2000/svg" xmlns:xlink="http://www.w3.org/1999/xlink" x="0px" y="0px"
	 viewBox="0 0 340.2 340.2" style="enable-background:new 0 0 340.2 340.2;" xml:space="preserve">
<style type="text/css">
	.st0{fill:none;stroke:#000000;stroke-width:5;stroke-miterlimit:10;}
	.st1{fill:none;stroke:#000000;stroke-width:4;stroke-miterlimit:10;}
	.st2{fill:none;stroke:#000000;stroke-width:5;stroke-miterlimit:10;stroke-dasharray:12,5;}
</style>
<line id="XMLID_7_" class="st0" x1="127.2" y1="56.9" x2="127.2" y2="160.5"/>
<line id="XMLID_2_" class="st0" x1="127.2" y1="180.2" x2="127.2" y2="240.3"/>
<line id="XMLID_3_" class="st0" x1="83.2" y1="160.5" x2="170.4" y2="160.5"/>
<line id="XMLID_4_" class="st0" x1="83.2" y1="180.2" x2="170.4" y2="180.2"/>
<g id="XMLID_5_">
	<g id="XMLID_34_">
		<g id="XMLID_37_">
			<g>
				<line class="st1" x1="39.9" y1="261.4" x2="184.9" y2="116.4"/>
				<g>
					<polygon points="187.5,130.3 209.9,91.4 171.1,113.8 					"/>
				</g>
			</g>
		</g>
		<g id="XMLID_35_">
			<line id="XMLID_9_" x1="206.1" y1="90.7" x2="210.7" y2="95.4"/>
		</g>
	</g>
</g>
<line id="XMLID_21_" class="st0" x1="226.9" y1="56.9" x2="226.9" y2="160.5"/>
<line id="XMLID_20_" class="st0" x1="226.9" y1="180.2" x2="226.9" y2="240.3"/>
<line id="XMLID_14_" class="st0" x1="184.9" y1="160.5" x2="268.3" y2="160.5"/>
<line id="XMLID_13_" class="st0" x1="184.9" y1="180.2" x2="268.3" y2="180.2"/>
<g id="XMLID_6_">
	<g id="XMLID_29_">
		<g id="XMLID_32_">
			<g>
				<line class="st1" x1="141.2" y1="260.4" x2="285.1" y2="116.4"/>
				<g>
					<polygon points="287.8,130.3 310.2,91.4 271.3,113.8 					"/>
				</g>
			</g>
		</g>
		<g id="XMLID_30_">
			<line id="XMLID_1_" x1="306.3" y1="90.7" x2="311" y2="95.4"/>
		</g>
	</g>
</g>
<line id="XMLID_8_" class="st2" x1="38.9" y1="258.4" x2="147" y2="258.4"/>
</svg>
