<?xml version="1.0" encoding="utf-8"?>
<!-- Generator: Adobe Illustrator 19.0.0, SVG Export Plug-In . SVG Version: 6.00 Build 0)  -->
<svg version="1.1" id="图层_1" xmlns="http://www.w3.org/2000/svg" xmlns:xlink="http://www.w3.org/1999/xlink" x="0px" y="0px"
	 viewBox="0 0 340.2 340.2" style="enable-background:new 0 0 340.2 340.2;" xml:space="preserve">
<style type="text/css">
	.st0{fill:none;stroke:#FFFF00;stroke-width:5;stroke-miterlimit:10;}
	.st1{fill:none;stroke:#FFFF00;stroke-width:10;stroke-miterlimit:10;}
	.st2{fill:#FFFF00;}
	.st3{display:none;}
	.st4{display:inline;fill:none;stroke:#DDD949;stroke-miterlimit:10;}
</style>
<g id="图层_1_1_">
	<rect id="XMLID_1_" x="35.1" y="6.7" class="st0" width="268.4" height="327"/>
	<line id="XMLID_2_" class="st0" x1="303.5" y1="6.7" x2="35.1" y2="333.7"/>
</g>
<line id="XMLID_3_" class="st1" x1="289.4" y1="275.8" x2="113.4" y2="275.8"/>
<g id="XMLID_5_">
	<path id="XMLID_6_" class="st2" d="M142.1,72.3c-6.2,13.4-10,22.6-17.5,28.9c-6.2,5.2-12.8,9.2-23.4,9.2c-8.4,0-21.1-2.4-28.7-8.8
		c-8.8-7.3-13.4-14.3-15-28.6c-0.7-5.8,0.9-13.4,2.9-18.3c2.4-6,7.9-13.3,12.1-16.2c2.8-1.9,7.8-3.6,14.4-4.5
		c11-1.5,22.9-2.1,25.9-1.8L112,45.3c-17.8-1.3-24.4-0.1-30.5,2.3C74.7,50,68.4,66,69.4,73.7c1.3,10,4.4,15,11.3,19.7
		c5.7,3.9,12.1,5.5,18.8,5.5c6.1,0,11-1.7,14.6-5.1S124.2,81,132,66.1c6.5-12.6,10.3-18.6,17-25.5c6.2-6.2,15.2-9.6,24.7-9.6
		c10.1,0,23.3,1.4,31.4,11.7C214,54.1,214,54.1,216.5,70c1.8,11.4-2,20.3-6,25c-4.5,5.4-7,7.1-12.3,9.1c-2.7,1-1.7,1.2-11.2,3.2
		c-9.7,2-16.7,3.7-23,3.2l0.7-12.5c12.9-0.3,24.4-3.5,32.4-7.3c7.8-3.8,8.9-15,7.3-23.2c-1.7-9.3-2.8-10.4-8.4-16.9
		c-4.6-5.4-11.6-8.6-22.1-8.6c-5.6,0-11,2.5-16.3,7.4C152.3,54.3,147,61.9,142.1,72.3z"/>
</g>
<g id="图层_3" class="st3">
	<circle id="XMLID_4_" class="st4" cx="136.8" cy="56.8" r="32.2"/>
	<circle id="XMLID_8_" class="st4" cx="136.8" cy="121.2" r="32.2"/>
</g>
</svg>
