<?xml version="1.0" encoding="utf-8"?>
<!-- Generator: Adobe Illustrator 19.0.0, SVG Export Plug-In . SVG Version: 6.00 Build 0)  -->
<svg version="1.1" id="图层_1" xmlns="http://www.w3.org/2000/svg" xmlns:xlink="http://www.w3.org/1999/xlink" x="0px" y="0px"
	 viewBox="0 0 340.2 340.2" style="enable-background:new 0 0 340.2 340.2;" xml:space="preserve">
<style type="text/css">
	.st0{fill:none;stroke:#FFFF00;stroke-width:7;stroke-miterlimit:10;}
	.st1{fill:#FFFF00;}
</style>
<g id="图层_1_1_">
	<rect id="XMLID_1_" x="6.8" y="56.5" class="st0" width="327" height="227.5"/>
	<line id="XMLID_2_" class="st0" x1="6.8" y1="56.5" x2="333.8" y2="284"/>
</g>
<g id="图层_2">
	<g id="XMLID_4_">
		<path id="XMLID_5_" class="st1" d="M152.6,130.4C164.2,83,181.1,76,193,76c12.5,0,22.5,5.3,38.2,17.6
			c14.7,10.1,24.7,18.1,35.7,18.1c14.4,0,21.3-12.8,27.9-42.6l9.4,7.5c-5.9,35.7-19.4,56.5-38.8,56.5c-15.3,0-29.7-11.2-43.2-21.3
			c-11.6-8.5-19.4-14.4-30.4-14.4c-14.1,0-22.9,14.4-29.1,42.6L152.6,130.4z"/>
	</g>
	<g id="XMLID_3_">
		<path id="XMLID_7_" class="st1" d="M35.6,263.4C47.2,216,64.1,209,76,209c12.5,0,22.5,5.3,38.2,17.6
			c14.7,10.1,24.7,18.1,35.7,18.1c14.4,0,21.3-12.8,27.9-42.6l9.4,7.5c-5.9,35.7-19.4,56.5-38.8,56.5c-15.3,0-29.7-11.2-43.2-21.3
			c-11.6-8.5-19.4-14.4-30.4-14.4c-14.1,0-22.9,14.4-29.1,42.6L35.6,263.4z"/>
	</g>
</g>
</svg>
