<?xml version="1.0" encoding="utf-8"?>
<!-- Generator: Adobe Illustrator 19.0.0, SVG Export Plug-In . SVG Version: 6.00 Build 0)  -->
<svg version="1.1" id="图层_1" xmlns="http://www.w3.org/2000/svg" xmlns:xlink="http://www.w3.org/1999/xlink" x="0px" y="0px"
	 viewBox="0 0 340.2 340.2" style="enable-background:new 0 0 340.2 340.2;" xml:space="preserve">
<style type="text/css">
	.st0{fill:none;stroke:#000000;stroke-width:5;stroke-miterlimit:10;}
</style>
<circle id="XMLID_1_" class="st0" cx="170.1" cy="170.1" r="162.3"/>
<g id="XMLID_3_">
	<path id="XMLID_4_" d="M171.5,55.3c17.9,0,32.9,10.4,45.2,31.3s18.4,48.1,18.4,81.6c0,36.2-6.6,64.7-19.8,85.5
		s-28.5,31.2-45.8,31.2c-17,0-32-10.1-45-30.4c-13-20.2-19.4-47.7-19.4-82.4c0-34.8,6.4-63,19.3-84.5S152.9,55.3,171.5,55.3z
		 M205.6,164.7c0-66.8-11.7-100.2-35.2-100.2c-24.1,0-36.2,33.4-36.2,100.2H205.6z M134.2,174.5c0,34.6,3.2,60.1,9.7,76.5
		c6.4,16.4,15.1,24.7,26,24.7c23.6,0,35.5-33.7,35.7-101.2L134.2,174.5L134.2,174.5z"/>
</g>
</svg>
