<?xml version="1.0" encoding="utf-8"?>
<!-- Generator: Adobe Illustrator 19.0.0, SVG Export Plug-In . SVG Version: 6.00 Build 0)  -->
<svg version="1.1" id="图层_1" xmlns="http://www.w3.org/2000/svg" xmlns:xlink="http://www.w3.org/1999/xlink" x="0px" y="0px"
	 viewBox="0 0 340.2 340.2" style="enable-background:new 0 0 340.2 340.2;" xml:space="preserve">
<style type="text/css">
	.st0{fill:none;stroke:#000000;stroke-width:5;stroke-miterlimit:10;}
</style>
<circle id="XMLID_1_" class="st0" cx="170.1" cy="170.1" r="162.3"/>
<g id="XMLID_3_">
	<path id="XMLID_4_" d="M47.8,107.6h40.3v4.8h-2.6c-2.4,0-4.3,0.8-5.6,2.5c-1.3,1.7-1.9,3.9-1.9,6.7c0,3.1,0.7,6.7,2,10.9l19.9,66.2
		l20-68.7c1.4-4.9,2.1-8.6,2.1-11.1c0-1.2-0.2-2.2-0.7-3c-0.7-1.3-1.6-2.2-2.6-2.7c-1.1-0.5-3.2-0.7-6.4-0.7v-4.8h27.9v4.8
		c-3.2,0.3-5.5,1.3-6.7,2.7c-2.2,2.6-4.1,7-5.9,13.1L97.1,231.1h-3.8L62.8,130c-1.4-4.7-2.7-8.1-3.9-10.1s-2.8-3.8-4.8-5.2
		c-1.1-0.8-3.1-1.5-6.3-2.2V107.6z"/>
	<path id="XMLID_6_" d="M196.4,210.2c-8.8,9.5-14.3,15-16.5,16.5c-3.4,2.2-6.9,3.3-10.7,3.3c-5.9,0-10.8-2.8-14.6-8.5
		s-5.7-13.1-5.7-22.4c0-5.8,0.9-10.9,2.8-15.2c2.6-5.9,7-11.5,13.3-16.7s16.8-11.6,31.5-19.1v-4.7c0-12-1.4-20.2-4.1-24.6
		c-2.7-4.4-6.7-6.7-11.8-6.7c-3.9,0-7,1.5-9.3,4.4c-2.4,3-3.6,6.4-3.6,10.2l0.2,7.6c0,4-0.7,7.1-2.2,9.3s-3.4,3.3-5.7,3.3
		s-4.2-1.1-5.7-3.4c-1.5-2.3-2.2-5.4-2.2-9.3c0-7.5,2.7-14.4,8.2-20.7c5.5-6.3,13.2-9.4,23.1-9.4c7.6,0,13.8,1.8,18.7,5.4
		c3.7,2.7,6.4,6.9,8.1,12.7c1.1,3.8,1.7,11.4,1.7,23v40.7c0,11.4,0.2,18.4,0.5,21s0.8,4.3,1.5,5.2s1.5,1.3,2.5,1.3s1.9-0.3,2.6-0.9
		c1.3-1.1,3.8-4.3,7.6-9.6v7.3c-7,13.1-13.6,19.6-20,19.6c-3.1,0-5.5-1.5-7.3-4.4S196.5,217.3,196.4,210.2z M196.4,201.7V156
		c-9.4,5.2-15.5,8.9-18.2,11.1c-4.9,3.8-8.4,7.9-10.6,12c-2.1,4.2-3.2,8.8-3.2,13.7c0,6.3,1.3,11.5,4,15.6s5.8,6.2,9.3,6.2
		C182.5,214.8,188.7,210.4,196.4,201.7z"/>
	<path id="XMLID_9_" d="M257.9,104.1v27c7.2-18,14.5-27,22.1-27c3.4,0,6.3,1.5,8.5,4.4s3.4,6.3,3.4,10.1c0,3.4-0.8,6.3-2.4,8.6
		c-1.6,2.4-3.6,3.5-5.8,3.5c-2.2,0-4.6-1.5-7.3-4.5c-2.7-3-4.7-4.5-6-4.5c-1.1,0-2.3,0.9-3.6,2.6c-2.8,3.6-5.7,9.5-8.7,17.7v57.4
		c0,6.6,0.6,11.6,1.8,15c0.8,2.4,2.2,4.3,4.3,5.9s5,2.4,8.9,2.4v4.7H229v-4.7c4.4,0,7.6-1,9.7-2.9c1.6-1.4,2.6-3.6,3.3-6.7
		c0.3-1.5,0.5-5.7,0.5-12.7V154c0-14-0.2-22.3-0.6-24.9c-0.4-2.7-1.2-4.6-2.2-5.8c-1.1-1.2-2.4-1.8-4.1-1.8c-1.9,0-4.1,0.7-6.5,2
		l-0.9-4.7l25.9-14.7C254.1,104.1,257.9,104.1,257.9,104.1z"/>
</g>
</svg>
