<?xml version="1.0" encoding="utf-8"?>
<!-- Generator: Adobe Illustrator 19.0.0, SVG Export Plug-In . SVG Version: 6.00 Build 0)  -->
<svg version="1.1" id="图层_1" xmlns="http://www.w3.org/2000/svg" xmlns:xlink="http://www.w3.org/1999/xlink" x="0px" y="0px"
	 viewBox="0 0 340.2 340.2" style="enable-background:new 0 0 340.2 340.2;" xml:space="preserve">
<style type="text/css">
	.st0{fill:none;stroke:#000000;stroke-width:5;stroke-miterlimit:10;}
</style>
<rect id="XMLID_1_" x="42.1" y="6" class="st0" width="256.4" height="327.6"/>
<line id="XMLID_2_" class="st0" x1="42.1" y1="100.3" x2="298.6" y2="100.3"/>
<g id="XMLID_4_">
	<path id="XMLID_5_" d="M47.6,196.2h29.3v3.4H75c-1.8,0-3.1,0.6-4,1.8s-1.4,2.7-1.4,4.7c0,2.2,0.5,4.7,1.4,7.7l14.5,46.7L100,212
		c1-3.4,1.6-6.1,1.6-7.9c0-0.9-0.2-1.6-0.5-2.1c-0.5-0.9-1.1-1.6-1.9-1.9c-0.8-0.3-2.3-0.5-4.7-0.5v-3.4h20.3v3.4
		c-2.4,0.2-4,0.9-4.9,1.9c-1.6,1.8-3,4.9-4.3,9.2l-22.1,72.6h-2.8L58.5,212c-1-3.3-1.9-5.7-2.9-7.2c-0.9-1.4-2.1-2.7-3.5-3.6
		c-0.8-0.6-2.3-1.1-4.6-1.6L47.6,196.2L47.6,196.2z"/>
	<path id="XMLID_7_" d="M155.7,268.6c-6.4,6.7-10.4,10.6-12,11.6c-2.4,1.5-5.1,2.3-7.8,2.3c-4.3,0-7.8-2-10.6-6s-4.2-9.3-4.2-15.8
		c0-4.1,0.7-7.7,2-10.7c1.9-4.2,5.1-8.1,9.7-11.8s12.2-8.2,22.9-13.5v-3.3c0-8.4-1-14.2-3-17.4c-2-3.1-4.8-4.7-8.6-4.7
		c-2.9,0-5.1,1-6.8,3.1s-2.6,4.5-2.6,7.2l0.1,5.4c0,2.8-0.5,5-1.6,6.6c-1.1,1.5-2.5,2.3-4.2,2.3s-3-0.8-4.1-2.4
		c-1.1-1.6-1.6-3.8-1.6-6.6c0-5.3,2-10.2,6-14.6c4-4.4,9.6-6.6,16.8-6.6c5.5,0,10.1,1.3,13.6,3.8c2.7,1.9,4.6,4.9,5.9,9
		c0.8,2.6,1.2,8.1,1.2,16.3v28.7c0,8.1,0.1,13,0.3,14.8c0.2,1.8,0.6,3,1.1,3.6s1.1,0.9,1.8,0.9s1.4-0.2,1.9-0.6c1-0.8,2.8-3,5.5-6.7
		v5.2c-5.1,9.2-9.9,13.9-14.5,13.9c-2.2,0-4-1-5.3-3.1S155.7,273.6,155.7,268.6z M155.7,262.6v-32.2c-6.8,3.7-11.3,6.3-13.2,7.9
		c-3.6,2.7-6.1,5.5-7.7,8.5c-1.5,3-2.3,6.2-2.3,9.7c0,4.4,1,8.1,2.9,11s4.2,4.4,6.7,4.4C145.5,271.8,150,268.7,155.7,262.6z"/>
	<path id="XMLID_10_" d="M200.4,193.7v19c5.2-12.7,10.6-19,16-19c2.5,0,4.6,1,6.2,3.1c1.6,2.1,2.4,4.4,2.4,7.2
		c0,2.4-0.6,4.4-1.8,6.1s-2.6,2.5-4.2,2.5c-1.6,0-3.4-1.1-5.3-3.2c-2-2.1-3.4-3.2-4.4-3.2c-0.8,0-1.7,0.6-2.6,1.8
		c-2,2.5-4.1,6.7-6.3,12.5V261c0,4.7,0.4,8.2,1.3,10.6c0.6,1.7,1.6,3,3.1,4.2s3.6,1.7,6.5,1.7v3.3h-31.9v-3.3c3.2,0,5.5-0.7,7.1-2
		c1.1-1,1.9-2.6,2.4-4.7c0.2-1,0.3-4,0.3-9V229c0-9.9-0.1-15.7-0.4-17.6c-0.3-1.9-0.8-3.2-1.6-4.1c-0.8-0.9-1.8-1.3-3-1.3
		c-1.4,0-3,0.5-4.8,1.4l-0.7-3.3l18.8-10.3L200.4,193.7L200.4,193.7z"/>
	<path id="XMLID_12_" d="M246.8,149.4v61.9c5-7.5,9-12.3,12-14.5c2.9-2.1,5.9-3.2,8.8-3.2c3.5,0,6.6,1.3,9.1,4
		c2.5,2.6,4.4,6.8,5.6,12.5c0.9,3.9,1.3,11.1,1.3,21.6v29.9c0,5.4,0.3,9,1,11c0.5,1.5,1.2,2.6,2.3,3.5s3.1,1.3,6,1.3v3.3h-30.6v-3.3
		h1.4c2.9,0,4.9-0.6,6-1.8c1.1-1.2,1.9-3,2.4-5.3c0.1-1,0.2-3.9,0.2-8.7v-29.9c0-9.2-0.4-15.3-1.1-18.2s-1.8-5.1-3.4-6.5
		c-1.5-1.4-3.4-2.2-5.6-2.2s-4.5,0.8-6.9,2.4c-2.4,1.6-5.3,4.8-8.6,9.7v44.7c0,5.8,0.2,9.4,0.7,10.8s1.4,2.6,2.6,3.6
		c1.3,1,3.5,1.4,6.7,1.4v3.3H226v-3.3c2.8,0,4.9-0.6,6.5-1.8c0.9-0.6,1.6-1.8,2.2-3.5s0.8-5.2,0.8-10.5V185c0-9.7-0.2-15.6-0.5-17.8
		s-0.9-3.7-1.6-4.5c-0.7-0.8-1.6-1.2-2.8-1.2c-1,0-2.5,0.5-4.6,1.5l-1-3.2l18.6-10.3h3.2V149.4z"/>
</g>
</svg>
