<?xml version="1.0" encoding="utf-8"?>
<!-- Generator: Adobe Illustrator 19.0.0, SVG Export Plug-In . SVG Version: 6.00 Build 0)  -->
<svg version="1.1" id="图层_1" xmlns="http://www.w3.org/2000/svg" xmlns:xlink="http://www.w3.org/1999/xlink" x="0px" y="0px"
	 viewBox="0 0 340.2 340.2" style="enable-background:new 0 0 340.2 340.2;" xml:space="preserve">
<style type="text/css">
	.st0{fill:none;stroke:#000000;stroke-width:5;stroke-miterlimit:10;}
</style>
<circle id="XMLID_1_" class="st0" cx="170.1" cy="170.1" r="162.3"/>
<g id="XMLID_3_">
	<path id="XMLID_4_" d="M283,84.7V90c-4.2,0-7.7,0.9-10.3,2.7c-2.6,1.8-5.1,5.2-7.5,10.1c-1.6,3.3-4.1,11.2-7.5,23.8l-45.2,155.5
		h-4.8l-36.9-123.4L134,282.1h-4.3L81.6,121.8c-3.6-12-5.9-19-6.8-21.2c-1.6-3.6-3.8-6.3-6.5-8c-2.7-1.8-6.5-2.6-11.2-2.6v-5.3h60
		V90h-2.9c-4.2,0-7.5,1.1-9.7,3.4s-3.3,5-3.3,8.3s1.8,11,5.3,22.9l31.9,108.3l26.9-92.1l-4.8-16.2l-3.8-13
		c-1.7-4.7-3.5-8.9-5.6-12.5c-1-1.8-2.3-3.3-3.8-4.6c-2-1.7-4-2.9-6-3.7c-1.5-0.6-3.9-0.9-7.2-0.9v-5.3h63.1V90h-4.3
		c-4.5,0-7.7,1.1-9.8,3.4s-3.1,5.4-3.1,9.3c0,4.8,1.8,13.3,5.4,25.3l31.1,104.9l30.8-106.3c3.5-11.8,5.3-19.9,5.3-24.5
		c0-2.2-0.6-4.2-1.7-6.1c-1.2-1.9-2.6-3.2-4.4-4c-3-1.3-7-2-11.8-2v-5.3C234.7,84.7,283,84.7,283,84.7z"/>
</g>
</svg>
