<?xml version="1.0" encoding="utf-8"?>
<!-- Generator: Adobe Illustrator 19.0.0, SVG Export Plug-In . SVG Version: 6.00 Build 0)  -->
<svg version="1.1" id="图层_1" xmlns="http://www.w3.org/2000/svg" xmlns:xlink="http://www.w3.org/1999/xlink" x="0px" y="0px"
	 viewBox="0 0 340.2 340.2" style="enable-background:new 0 0 340.2 340.2;" xml:space="preserve">
<style type="text/css">
	.st0{fill:none;stroke:#000000;stroke-width:5;stroke-miterlimit:10;}
</style>
<rect id="XMLID_1_" x="42.1" y="6" class="st0" width="256.4" height="327.6"/>
<line id="XMLID_2_" class="st0" x1="42.1" y1="100.3" x2="298.6" y2="100.3"/>
<g id="XMLID_4_">
	<path id="XMLID_5_" d="M203.9,153v3.5c-2.7,0-5,0.6-6.7,1.8s-3.3,3.4-4.9,6.7c-1,2.2-2.7,7.4-4.9,15.7l-29.4,103h-3.1l-24-81.7
		L107,283.7h-2.8L72.9,177.6c-2.3-7.9-3.8-12.6-4.4-14c-1-2.4-2.4-4.2-4.2-5.3c-1.8-1.2-4.2-1.7-7.3-1.7V153h39v3.5h-1.9
		c-2.7,0-4.8,0.8-6.3,2.3s-2.2,3.3-2.2,5.5s1.1,7.3,3.4,15.2l20.8,71.7l17.5-61l-3.1-10.7l-2.5-8.6c-1.1-3.1-2.3-5.9-3.7-8.3
		c-0.7-1.2-1.5-2.2-2.5-3c-1.3-1.1-2.6-1.9-3.9-2.5c-1-0.4-2.5-0.6-4.7-0.6V153h41v3.5h-2.8c-2.9,0-5,0.8-6.4,2.3
		c-1.3,1.5-2,3.5-2,6.1c0,3.2,1.2,8.8,3.5,16.8l20.2,69.5l20.1-70.4c2.3-7.8,3.4-13.2,3.4-16.2c0-1.4-0.4-2.8-1.1-4.1
		c-0.8-1.3-1.7-2.1-2.8-2.6c-2-0.9-4.5-1.3-7.7-1.3V153H203.9z"/>
	<path id="XMLID_7_" d="M231,146.8v63.1c5.8-7.7,10.3-12.6,13.7-14.7c3.4-2.2,6.7-3.3,10.1-3.3c4,0,7.5,1.4,10.4,4.1
		c2.9,2.7,5.1,6.9,6.5,12.7c1,4,1.5,11.4,1.5,22.1v30.5c0,5.5,0.4,9.2,1.1,11.2c0.5,1.5,1.4,2.7,2.6,3.6s3.5,1.3,6.8,1.3v3.4h-35
		v-3.4h1.6c3.3,0,5.6-0.6,6.9-1.8s2.2-3,2.7-5.4c0.2-1,0.2-4,0.2-8.9v-30.5c0-9.4-0.4-15.6-1.2-18.6c-0.8-3-2.1-5.2-3.8-6.6
		c-1.8-1.5-3.9-2.2-6.4-2.2s-5.2,0.8-7.9,2.5c-2.7,1.6-6,4.9-9.9,9.9v45.6c0,5.9,0.3,9.6,0.8,11s1.6,2.7,3,3.6c1.5,1,4,1.5,7.7,1.5
		v3.4h-35.3v-3.4c3.2,0,5.6-0.6,7.5-1.8c1-0.6,1.9-1.8,2.5-3.6c0.6-1.8,0.9-5.3,0.9-10.7v-78.1c0-9.9-0.2-15.9-0.6-18.2
		c-0.4-2.3-1-3.8-1.8-4.6s-1.9-1.2-3.2-1.2c-1.1,0-2.9,0.5-5.3,1.5l-1.1-3.3l21.3-10.6L231,146.8L231,146.8z"/>
</g>
</svg>
