<?xml version="1.0" encoding="utf-8"?>
<!-- Generator: Adobe Illustrator 19.0.0, SVG Export Plug-In . SVG Version: 6.00 Build 0)  -->
<svg version="1.1" id="图层_1" xmlns="http://www.w3.org/2000/svg" xmlns:xlink="http://www.w3.org/1999/xlink" x="0px" y="0px"
	 viewBox="0 0 340.2 340.2" style="enable-background:new 0 0 340.2 340.2;" xml:space="preserve">
<style type="text/css">
	.st0{fill:none;stroke:#000000;stroke-width:5;stroke-miterlimit:10;}
	.st1{stroke:#000000;stroke-miterlimit:10;}
</style>
<rect id="XMLID_1_" x="42.1" y="7" class="st0" width="256.4" height="327.6"/>
<line id="XMLID_2_" class="st0" x1="42.1" y1="101.3" x2="298.6" y2="101.3"/>
<g id="XMLID_4_">
	<path id="XMLID_5_" d="M206,150.1v3.7c-2.9,0-5.3,0.6-7.1,1.9c-1.8,1.3-3.6,3.6-5.2,7.1c-1.1,2.3-2.8,7.9-5.2,16.7l-31.3,109.5
		h-3.3l-25.5-86.9L103,289.1h-3L66.7,176.2c-2.5-8.4-4.1-13.4-4.7-14.9c-1.1-2.5-2.6-4.4-4.5-5.7c-1.9-1.2-4.5-1.9-7.7-1.9v-3.7
		h41.5v3.7h-2c-2.9,0-5.2,0.8-6.7,2.4c-1.5,1.6-2.3,3.5-2.3,5.8c0,2.3,1.2,7.7,3.6,16.1l22.1,76.3l18.6-64.8l-3.3-11.4l-2.6-9.1
		c-1.2-3.3-2.5-6.3-3.9-8.8c-0.7-1.3-1.6-2.3-2.6-3.2c-1.4-1.2-2.8-2.1-4.1-2.6c-1-0.4-2.7-0.6-5-0.6v-3.7h43.7v3.7h-3
		c-3.1,0-5.3,0.8-6.8,2.4c-1.4,1.6-2.1,3.8-2.1,6.5c0,3.4,1.2,9.4,3.7,17.8l21.5,73.9l21.3-74.9c2.4-8.3,3.6-14,3.6-17.2
		c0-1.5-0.4-3-1.2-4.3c-0.8-1.3-1.8-2.3-3-2.8c-2.1-0.9-4.8-1.4-8.2-1.4v-3.7H206z"/>
	<path id="XMLID_7_" d="M234.9,143.5v67.1c6.1-8.2,11-13.4,14.6-15.7s7.2-3.5,10.7-3.5c4.3,0,8,1.4,11.1,4.3
		c3.1,2.9,5.4,7.4,6.9,13.5c1,4.3,1.6,12.1,1.6,23.5v32.5c0,5.8,0.4,9.8,1.2,11.9c0.6,1.6,1.5,2.9,2.8,3.8s3.7,1.4,7.3,1.4v3.6
		h-37.2v-3.6h1.7c3.5,0,6-0.7,7.4-2s2.3-3.2,2.9-5.8c0.2-1.1,0.2-4.2,0.2-9.4v-32.5c0-10-0.4-16.6-1.3-19.7
		c-0.9-3.1-2.2-5.5-4.1-7.1c-1.9-1.6-4.1-2.4-6.8-2.4c-2.7,0-5.5,0.9-8.4,2.6c-2.9,1.7-6.4,5.2-10.5,10.5v48.5
		c0,6.3,0.3,10.2,0.9,11.7s1.7,2.8,3.2,3.9s4.3,1.6,8.1,1.6v3.6h-37.5v-3.6c3.4,0,6-0.6,7.9-1.9c1.1-0.7,2-1.9,2.6-3.8
		c0.7-1.9,1-5.7,1-11.4v-83.1c0-10.5-0.2-16.9-0.6-19.3s-1-4-1.9-4.9c-0.9-0.9-2-1.3-3.4-1.3c-1.2,0-3,0.5-5.6,1.6l-1.2-3.5
		l22.7-11.2H234.9z"/>
</g>
<line id="XMLID_9_" class="st0" x1="55.6" y1="49" x2="283.3" y2="49"/>
<polygon id="XMLID_3_" class="st1" points="153.5,43.2 200.5,49 153.5,54.8 "/>
<line id="XMLID_10_" class="st0" x1="56.5" y1="27.6" x2="56.5" y2="70.3"/>
</svg>
