<?xml version="1.0" encoding="utf-8"?>
<!-- Generator: Adobe Illustrator 19.0.0, SVG Export Plug-In . SVG Version: 6.00 Build 0)  -->
<svg version="1.1" id="图层_1" xmlns="http://www.w3.org/2000/svg" xmlns:xlink="http://www.w3.org/1999/xlink" x="0px" y="0px"
	 viewBox="0 0 340.2 340.2" style="enable-background:new 0 0 340.2 340.2;" xml:space="preserve">
<style type="text/css">
	.st0{fill:none;stroke:#000000;stroke-width:5;stroke-miterlimit:10;}
	.st1{fill:none;stroke:#040000;stroke-width:5;stroke-miterlimit:10;}
</style>
<rect id="XMLID_1_" x="12" y="42" class="st0" width="316.1" height="256.1"/>
<path id="XMLID_8_" d="M275.4,96.3L197.2,129l78.2,33.1v13.1l-101.1-42.4V125l101.1-41.9V96.3z"/>
<g id="XMLID_3_">
	<path id="XMLID_4_" d="M64.8,81.2h25l56.4,70.8V97.6c0-5.8-0.6-9.4-1.9-10.9c-1.7-1.9-4.3-2.9-8-2.9h-3.2v-2.6h32.1v2.6H162
		c-3.9,0-6.7,1.2-8.3,3.6c-1,1.5-1.5,4.9-1.5,10.2v79.6h-2.4l-60.8-76v58.1c0,5.8,0.6,9.4,1.8,10.9c1.7,1.9,4.4,2.9,8,2.9h3.3v2.6
		H69.9V173h3.2c3.9,0,6.7-1.2,8.4-3.6c1-1.5,1.5-4.9,1.5-10.2V93.6c-2.7-3.2-4.7-5.3-6.1-6.3s-3.4-2-6.1-2.9c-1.3-0.4-3.3-0.6-6-0.6
		V81.2z"/>
</g>
<path id="XMLID_35_" class="st1" d="M275.6,239.2c0-19.6-17.2-36.5-34.3-36.5"/>
<path id="XMLID_34_" class="st0" d="M241.3,202.7c-23.2-0.4-35.5,17-35.5,36.5"/>
<path id="XMLID_33_" class="st1" d="M205.8,239.2c0-19.6-19.3-36.5-35-36.5"/>
<path id="XMLID_18_" class="st1" d="M170.8,202.7c-14.5,0-35,16-35,36.5"/>
<path id="XMLID_7_" class="st1" d="M135.8,239.2c0-19.6-18.5-35.5-35.6-35.5"/>
<path id="XMLID_6_" class="st1" d="M100.1,203.7c-20.1,0-35.4,16.5-35.4,35.5"/>
<line id="XMLID_2_" class="st1" x1="64.8" y1="239.2" x2="16.5" y2="239.2"/>
<line id="XMLID_17_" class="st1" x1="323.7" y1="239.2" x2="275.4" y2="239.2"/>
</svg>
