<?xml version="1.0" encoding="utf-8"?>
<!-- Generator: Adobe Illustrator 19.0.0, SVG Export Plug-In . SVG Version: 6.00 Build 0)  -->
<svg version="1.1" id="图层_1" xmlns="http://www.w3.org/2000/svg" xmlns:xlink="http://www.w3.org/1999/xlink" x="0px" y="0px"
	 viewBox="0 0 340.2 340.2" style="enable-background:new 0 0 340.2 340.2;" xml:space="preserve">
<style type="text/css">
	.st0{fill:none;stroke:#040000;stroke-width:5;stroke-miterlimit:10;}
	.st1{fill:#040000;}
	.st2{fill:none;stroke:#000000;stroke-width:10;stroke-miterlimit:10;}
	.st3{fill:none;stroke:#040000;stroke-miterlimit:10;}
</style>
<rect id="XMLID_1_" x="6.8" y="56.5" class="st0" width="327" height="227.5"/>
<g id="XMLID_4_">
	<path id="XMLID_5_" class="st1" d="M20.8,131.4C34,84,53.3,77,66.9,77c14.3,0,25.7,5.3,43.6,17.6c16.8,10.1,28.2,18.1,40.7,18.1
		c16.4,0,24.3-12.8,31.8-42.6l10.7,7.5c-6.8,35.7-22.2,56.5-44.3,56.5c-17.5,0-34-11.2-49.3-21.3C86.9,104.2,78,98.4,65.5,98.4
		c-16.1,0-26.1,14.4-33.2,42.6L20.8,131.4z"/>
</g>
<line id="XMLID_9_" class="st0" x1="333.8" y1="56.5" x2="6.8" y2="284"/>
<line id="XMLID_2_" class="st2" x1="142.3" y1="226.8" x2="320.3" y2="226.8"/>
<g id="XMLID_3_">
	<g id="XMLID_20_">
		<line id="XMLID_25_" class="st3" x1="15.7" y1="284" x2="325" y2="284"/>
		<g id="XMLID_23_">
			<polygon id="XMLID_24_" class="st1" points="17.6,286.9 6.8,284 17.6,281.1 			"/>
		</g>
		<g id="XMLID_21_">
			<polygon id="XMLID_22_" class="st1" points="323,286.9 333.8,284 323,281.1 			"/>
		</g>
	</g>
</g>
</svg>
