<?xml version="1.0" encoding="utf-8"?>
<!-- Generator: Adobe Illustrator 19.0.0, SVG Export Plug-In . SVG Version: 6.00 Build 0)  -->
<svg version="1.1" id="图层_1" xmlns="http://www.w3.org/2000/svg" xmlns:xlink="http://www.w3.org/1999/xlink" x="0px" y="0px"
	 viewBox="0 0 340.2 340.2" style="enable-background:new 0 0 340.2 340.2;" xml:space="preserve">
<style type="text/css">
	.st0{fill:none;stroke:#000000;stroke-width:5;stroke-miterlimit:10;}
</style>
<circle id="XMLID_1_" class="st0" cx="170.1" cy="170.1" r="162.3"/>
<g id="XMLID_4_">
	<path id="XMLID_5_" d="M165.3,159.9c-0.7-12.5-3.3-25-7.6-37.3c-6.2-17.8-9.3-30.1-9.3-36.8c0-9.4,2.2-16.6,6.7-21.5
		c4.4-4.9,9.9-7.4,16.5-7.4c5.6,0,10.5,2.5,14.7,7.4s6.3,11.9,6.3,21c0,8.2-2.4,19.6-7.2,34.2s-7.8,28.1-8.9,40.4
		c10-6.4,19-14.1,27-23.2c12.3-14.3,21.5-23.2,27.5-26.7c6-3.4,12.1-5.2,18.2-5.2c6,0,11,2,15.1,6.1c4.1,4.1,6.1,8.9,6.1,14.6
		c0,6.7-3,12.7-9,18s-21,10.5-44.9,15.8c-14,3.1-25.6,6.6-34.9,10.6c9.4,4.9,21,8.6,34.6,11.2c22,4,36.4,9,43.2,15
		s10.2,12.5,10.2,19.6c0,5.4-2,10.2-6.1,14.2s-8.9,6-14.3,6c-5.4,0-11.5-1.9-18.1-5.7s-15.6-12.3-26.8-25.6
		c-7.4-8.9-16.7-17.3-27.8-25.1c0.4,10.4,2.5,21.6,6.3,33.8c6.5,21.4,9.8,36,9.8,43.9c0,7.3-2.2,13.4-6.5,18.4
		c-4.4,5-9,7.5-13.9,7.5c-6.7,0-12.8-2.6-18.2-7.9c-3.8-3.8-5.7-9.9-5.7-18.2c0-8.7,2.1-19.2,6.3-31.5s6.8-20.7,7.9-25.3
		c1.1-4.6,2.1-11.5,3-20.6c-10.7,7.1-20.1,15-28.1,23.7c-13.3,14.9-23.2,24.3-30,28.3c-4.7,2.9-9.6,4.4-14.7,4.4
		c-6.2,0-11.4-2.1-15.8-6.3s-6.5-8.8-6.5-13.9c0-4.5,1.9-9.3,5.6-14.3s9.3-9.1,16.8-12.4c4.9-2.2,16.1-5.1,33.5-8.7
		c11.3-2.4,22.2-5.8,33-10.4c-9.8-4.9-21.5-8.7-35.1-11.4c-22.3-4.7-36.1-9-41.4-12.8c-8.2-6-12.3-13.3-12.3-21.8
		c0-4.9,2-9.4,6.1-13.5s8.9-6.1,14.3-6.1c6,0,12.3,1.9,19.1,5.7c6.7,3.8,15.1,11.5,25.1,23C144.8,144.6,155,153.5,165.3,159.9z"/>
</g>
</svg>
