<?xml version="1.0" encoding="utf-8"?>
<!-- Generator: Adobe Illustrator 19.0.0, SVG Export Plug-In . SVG Version: 6.00 Build 0)  -->
<svg version="1.1" id="图层_1" xmlns="http://www.w3.org/2000/svg" xmlns:xlink="http://www.w3.org/1999/xlink" x="0px" y="0px"
	 viewBox="0 0 340.2 340.2" style="enable-background:new 0 0 340.2 340.2;" xml:space="preserve">
<style type="text/css">
	.st0{fill:none;stroke:#000000;stroke-width:5;stroke-miterlimit:10;}
</style>
<circle id="XMLID_1_" class="st0" cx="170.1" cy="170.1" r="162.3"/>
<g id="XMLID_3_">
	<path id="XMLID_4_" d="M134.4,109.6c21.2-28.2,41.4-42.3,60.6-42.3c9.9,0,18.4,2.7,25.5,8.2c7.1,5.4,12.8,14.4,17,26.9
		c2.9,8.7,4.3,22.1,4.3,40.1v85.2c0,12.6,0.9,21.2,2.8,25.7c1.4,3.6,3.8,6.5,7,8.5s9.2,3.1,17.9,3.1v7.8H180V265h3.8
		c8.4,0,14.3-1.4,17.7-4.2c3.4-2.8,5.7-7,7-12.5c0.5-2.2,0.8-9,0.8-20.5V146c0-18.2-2.1-31.3-6.4-39.5c-4.3-8.2-11.5-12.3-21.6-12.3
		c-15.7,0-31.3,9.4-46.8,28.3v105.2c0,13.5,0.7,21.9,2.2,25.1c1.8,4.2,4.4,7.3,7.6,9.3c3.2,2,9.8,2.9,19.6,2.9v7.8H74.4V265h3.9
		c9.2,0,15.4-2.6,18.7-7.7c3.2-5.2,4.8-15,4.8-29.5v-74.1c0-24-0.5-38.6-1.5-43.8c-1-5.2-2.5-8.8-4.5-10.7c-2-1.9-4.8-2.8-8.2-2.8
		c-3.7,0-8.1,1.1-13.2,3.3l-3-7.8l54.5-24.4h8.5L134.4,109.6L134.4,109.6z"/>
</g>
</svg>
