<?xml version="1.0" encoding="utf-8"?>
<!-- Generator: Adobe Illustrator 19.0.0, SVG Export Plug-In . SVG Version: 6.00 Build 0)  -->
<svg version="1.1" id="图层_1" xmlns="http://www.w3.org/2000/svg" xmlns:xlink="http://www.w3.org/1999/xlink" x="0px" y="0px"
	 viewBox="0 0 340.2 340.2" style="enable-background:new 0 0 340.2 340.2;" xml:space="preserve">
<style type="text/css">
	.st0{fill:none;stroke:#000000;stroke-width:5;stroke-miterlimit:10;}
	.st1{fill:none;stroke:#000000;stroke-width:7;stroke-miterlimit:10;}
</style>
<rect id="XMLID_1_" x="12" y="42" class="st0" width="316.1" height="256.1"/>
<g id="XMLID_7_">
	<path id="XMLID_8_" d="M183.7,237h-34l-43.2-63.3c-3.2,0.1-5.8,0.2-7.8,0.2c-0.8,0-1.7,0-2.6,0s-1.9-0.1-2.9-0.1v39.3
		c0,8.5,0.9,13.8,2.6,15.9c2.4,2.9,6,4.4,10.7,4.4h5v3.7H56.8v-3.7h4.8c5.4,0,9.2-1.9,11.6-5.6c1.3-2.1,2-7,2-14.7v-87.5
		c0-8.5-0.9-13.8-2.6-15.9c-2.4-2.9-6.1-4.4-10.9-4.4h-4.8v-3.7h46.5c13.5,0,23.5,1,30,3.1c6.4,2.1,11.9,6,16.4,11.6
		s6.7,12.3,6.7,20.1c0,8.3-2.6,15.5-7.7,21.7c-5.1,6.1-13,10.5-23.8,13l26.3,38.8c6,8.9,11.2,14.8,15.5,17.8
		c4.3,2.9,10,4.8,16.9,5.6L183.7,237L183.7,237z M93.1,167.4c1.2,0,2.2,0,3.1,0s1.6,0,2.2,0c12.2,0,21.3-2.8,27.5-8.4
		c6.2-5.6,9.3-12.7,9.3-21.4c0-8.5-2.5-15.3-7.5-20.6c-5-5.3-11.6-7.9-19.8-7.9c-3.6,0-8.6,0.6-14.8,1.9
		C93.1,111,93.1,167.4,93.1,167.4z"/>
</g>
<line id="XMLID_3_" class="st1" x1="226.9" y1="91.3" x2="226.9" y2="204.3"/>
<line id="XMLID_4_" class="st1" x1="162.3" y1="204.3" x2="291.5" y2="204.3"/>
<line id="XMLID_5_" class="st1" x1="186.5" y1="227.1" x2="268" y2="227.1"/>
<line id="XMLID_6_" class="st1" x1="211.5" y1="248.9" x2="243.1" y2="248.9"/>
</svg>
