<?xml version="1.0" encoding="utf-8"?>
<!-- Generator: Adobe Illustrator 19.0.0, SVG Export Plug-In . SVG Version: 6.00 Build 0)  -->
<svg version="1.1" id="图层_1" xmlns="http://www.w3.org/2000/svg" xmlns:xlink="http://www.w3.org/1999/xlink" x="0px" y="0px"
	 viewBox="0 0 340.2 340.2" style="enable-background:new 0 0 340.2 340.2;" xml:space="preserve">
<style type="text/css">
	.st0{fill:none;stroke:#000000;stroke-width:5;stroke-miterlimit:10;}
</style>
<rect id="XMLID_1_" x="12" y="42" class="st0" width="316.1" height="256.1"/>
<line id="XMLID_2_" class="st0" x1="35.9" y1="218.1" x2="35.9" y2="247.8"/>
<line id="XMLID_13_" class="st0" x1="35.9" y1="233" x2="305.7" y2="233"/>
<line id="XMLID_16_" class="st0" x1="305.7" y1="218.1" x2="305.7" y2="247.8"/>
<g id="XMLID_5_">
	<path id="XMLID_6_" d="M30.8,123.3c0-10.5,1.6-19.5,4.7-27.1c3.2-7.6,7.4-13.2,12.6-16.9c4.1-2.9,8.3-4.4,12.6-4.4
		c7,0,13.4,3.6,19,10.8c7,8.9,10.5,21,10.5,36.2c0,10.7-1.5,19.7-4.6,27.2s-7,12.9-11.8,16.2c-4.8,3.4-9.4,5.1-13.8,5.1
		c-8.8,0-16.1-5.2-21.9-15.5C33.3,146.1,30.8,135.6,30.8,123.3z M44.1,125c0,12.7,1.6,23,4.7,31c2.6,6.7,6.4,10.1,11.5,10.1
		c2.4,0,5-1.1,7.6-3.3s4.6-5.9,6-11C76,144,77,133.1,77,118.9c0-10.5-1.1-19.2-3.3-26.2c-1.6-5.2-3.7-8.9-6.3-11
		c-1.9-1.5-4.1-2.2-6.7-2.2c-3.1,0-5.8,1.4-8.2,4.1c-3.3,3.8-5.5,9.6-6.6,17.7C44.7,109.3,44.1,117.2,44.1,125z"/>
</g>
<g id="XMLID_3_">
	<path id="XMLID_9_" d="M272.5,86.9l21.7-10.6h2.2v75.2c0,5,0.2,8.1,0.6,9.3s1.3,2.2,2.6,2.8c1.3,0.7,4,1,8,1.1v2.4h-33.5v-2.4
		c4.2-0.1,6.9-0.4,8.1-1.1c1.2-0.6,2.1-1.5,2.6-2.6s0.7-4.3,0.7-9.6v-48.1c0-6.5-0.2-10.6-0.7-12.5c-0.3-1.4-0.9-2.4-1.7-3.1
		c-0.8-0.7-1.8-1-2.9-1c-1.6,0-3.9,0.7-6.8,2L272.5,86.9z"/>
</g>
<g>
	<g>
		<line class="st0" x1="100" y1="123.8" x2="226.7" y2="123.8"/>
		<g>
			<polygon points="216.8,138.3 271,123.8 216.8,109.2 			"/>
		</g>
	</g>
</g>
</svg>
