<?xml version="1.0" encoding="utf-8"?>
<!-- Generator: Adobe Illustrator 19.0.0, SVG Export Plug-In . SVG Version: 6.00 Build 0)  -->
<svg version="1.1" id="图层_1" xmlns="http://www.w3.org/2000/svg" xmlns:xlink="http://www.w3.org/1999/xlink" x="0px" y="0px"
	 viewBox="0 0 340.2 340.2" style="enable-background:new 0 0 340.2 340.2;" xml:space="preserve">
<style type="text/css">
	.st0{fill:none;stroke:#000000;stroke-width:5;stroke-miterlimit:10;}
</style>
<g id="XMLID_3_">
	<path id="XMLID_4_" d="M105,183.9H75.2L70,204c-1.3,4.9-1.9,8.6-1.9,11c0,1.9,0.6,3.6,1.7,5.1s3.5,2.4,7.2,2.9v3.5H52.7V223
		c3.2-0.9,5.3-2.2,6.3-3.7c1.9-3,4.1-9.1,6.4-18.3L92.5,96.6h2l26.8,105.6c2.2,8.5,4.1,14,5.9,16.5c1.8,2.5,4.2,3.9,7.4,4.3v3.5
		h-30.4V223c3.1-0.2,5.1-1.1,6.2-2.5s1.6-3.2,1.6-5.2c0-2.7-0.8-7.1-2.3-13L105,183.9z M103.4,177l-13.1-51.3L76.9,177H103.4z"/>
	<path id="XMLID_7_" d="M160.1,106.4v50.2H177c4.4,0,7.3-1.1,8.8-3.3c2-2.9,3.1-7.9,3.3-15.2h2.1v44.2h-2.1
		c-0.5-6.2-1.1-10.1-1.6-11.9c-0.7-2.2-1.8-3.9-3.4-5.1c-1.6-1.2-3.9-1.9-7.2-1.9H160v41.8c0,5.6,0.2,9,0.5,10.2s0.8,2.2,1.6,2.9
		s2.2,1.1,4.3,1.1h13.1c4.4,0,7.5-0.5,9.5-1.5s3.9-3,5.7-5.9c2.3-3.9,4.8-9.7,7.2-17.5h2.3l-6.6,31.8h-59.4V223h2.7
		c1.8,0,3.5-0.7,5.2-2.2c1.2-1,2-2.5,2.5-4.5c0.4-2,0.7-6.1,0.7-12.3v-82.5c0-8-0.5-13-1.5-14.9c-1.4-2.5-3.6-3.7-6.8-3.7h-2.7v-3.5
		h59.4l0.9,27.8h-2.2c-0.8-6.7-1.7-11.3-2.6-13.8c-1-2.5-2.4-4.4-4.3-5.7c-1.5-0.9-4.2-1.4-8-1.4h-21.4V106.4z"/>
	<path id="XMLID_9_" d="M285.5,226.4H265l-26.1-59.3c-1.9,0.1-3.5,0.2-4.7,0.2c-0.5,0-1,0-1.6,0s-1.2-0.1-1.8-0.1V204
		c0,8,0.5,12.9,1.6,14.9c1.4,2.7,3.6,4.1,6.5,4.1h3v3.5h-33V223h2.9c3.3,0,5.6-1.7,7-5.2c0.8-1.9,1.2-6.5,1.2-13.8v-82
		c0-8-0.5-12.9-1.6-14.9c-1.5-2.7-3.7-4.1-6.6-4.1h-2.9v-3.5H237c8.2,0,14.2,1,18.1,2.9c3.9,2,7.2,5.6,9.9,10.9
		c2.7,5.3,4.1,11.6,4.1,18.9c0,7.8-1.5,14.6-4.6,20.3s-7.9,9.8-14.3,12.2l15.9,36.4c3.6,8.4,6.8,13.9,9.4,16.7
		c2.6,2.7,6,4.5,10.2,5.2v3.4H285.5z M230.8,161.2c0.7,0,1.3,0,1.9,0c0.5,0,1,0,1.3,0c7.3,0,12.9-2.6,16.6-7.9s5.6-11.9,5.6-20
		c0-7.9-1.5-14.4-4.5-19.3s-7-7.4-12-7.4c-2.2,0-5.2,0.6-8.9,1.8L230.8,161.2L230.8,161.2z"/>
</g>
<rect id="XMLID_1_" x="43.2" y="20.3" class="st0" width="256.1" height="299.5"/>
</svg>
