<?xml version="1.0" encoding="utf-8"?>
<!-- Generator: Adobe Illustrator 19.0.0, SVG Export Plug-In . SVG Version: 6.00 Build 0)  -->
<svg version="1.1" id="图层_1" xmlns="http://www.w3.org/2000/svg" xmlns:xlink="http://www.w3.org/1999/xlink" x="0px" y="0px"
	 viewBox="0 0 340.2 340.2" style="enable-background:new 0 0 340.2 340.2;" xml:space="preserve">
<style type="text/css">
	.st0{fill:none;stroke:#000000;stroke-width:5;stroke-miterlimit:10;}
</style>
<rect id="XMLID_1_" x="42" y="20.3" class="st0" width="256.1" height="299.5"/>
<g id="XMLID_3_">
	<path id="XMLID_4_" d="M104.2,183.5H74.6l-5.2,19.6c-1.3,4.8-1.9,8.4-1.9,10.8c0,1.9,0.6,3.6,1.7,5s3.5,2.4,7.2,2.8v3.4h-24v-3.4
		c3.2-0.9,5.2-2.1,6.2-3.6c1.9-2.9,4-8.9,6.4-17.9L91.7,98h2l26.5,103.4c2.1,8.3,4.1,13.7,5.8,16.2s4.2,3.9,7.3,4.2v3.4h-30.1v-3.4
		c3-0.2,5.1-1.1,6.2-2.5s1.6-3.1,1.6-5.1c0-2.7-0.7-6.9-2.2-12.7L104.2,183.5z M102.6,176.7l-12.9-50.2l-13.3,50.2H102.6z"/>
	<path id="XMLID_7_" d="M187.4,183.5h-29.5l-5.2,19.6c-1.3,4.8-1.9,8.4-1.9,10.8c0,1.9,0.6,3.6,1.7,5c1.1,1.4,3.5,2.4,7.2,2.8v3.4
		h-24v-3.4c3.2-0.9,5.2-2.1,6.2-3.6c1.9-2.9,4-8.9,6.4-17.9L174.9,98h2l26.5,103.4c2.1,8.3,4.1,13.7,5.8,16.2s4.2,3.9,7.3,4.2v3.4
		h-30.1v-3.4c3-0.2,5.1-1.1,6.2-2.5c1.1-1.4,1.6-3.1,1.6-5.1c0-2.7-0.7-6.9-2.2-12.7L187.4,183.5z M185.8,176.7l-12.9-50.2
		l-13.3,50.2H185.8z"/>
	<path id="XMLID_10_" d="M287.2,98l1.7,42.3h-1.7c-2.3-12.7-5.6-21.8-10-27.3c-4.3-5.6-9.5-8.3-15.5-8.3c-5.1,0-9.6,2.1-13.7,6.3
		c-4.1,4.2-7.3,10.9-9.6,20s-3.5,20.6-3.5,34.2c0,11.2,1.1,21,3.3,29.2s5.5,14.6,10,19s9.5,6.6,15.2,6.6c4.9,0,9.3-1.7,13.1-5.2
		c3.8-3.5,7.9-10.3,12.5-20.6l1.7,1.8c-3.8,11.1-8.3,19.2-13.4,24.3s-11.2,7.7-18.2,7.7c-12.6,0-22.4-7.6-29.4-22.9
		c-5.2-11.4-7.8-24.8-7.8-40.2c0-12.4,1.7-23.8,5.1-34.2c3.4-10.4,8.1-18.4,14.1-24.2c6-5.7,12.5-8.6,19.6-8.6
		c5.5,0,10.9,2.2,16.3,6.6c1.6,1.3,2.7,2,3.4,2c1,0,1.9-0.6,2.6-1.7c1-1.7,1.7-3.9,2.1-6.9L287.2,98L287.2,98z"/>
</g>
</svg>
