<?xml version="1.0" encoding="utf-8"?>
<!-- Generator: Adobe Illustrator 19.0.0, SVG Export Plug-In . SVG Version: 6.00 Build 0)  -->
<svg version="1.1" id="图层_1" xmlns="http://www.w3.org/2000/svg" xmlns:xlink="http://www.w3.org/1999/xlink" x="0px" y="0px"
	 viewBox="0 0 340.2 340.2" style="enable-background:new 0 0 340.2 340.2;" xml:space="preserve">
<style type="text/css">
	.st0{fill:none;stroke:#000000;stroke-width:5;stroke-miterlimit:10;}
</style>
<rect id="XMLID_1_" x="42" y="20.3" class="st0" width="256.1" height="299.5"/>
<g id="XMLID_3_">
	<path id="XMLID_4_" d="M103.6,184.4H71.9l-5.5,20.4c-1.4,5-2,8.8-2,11.3c0,2,0.6,3.7,1.8,5.2c1.2,1.5,3.7,2.5,7.7,2.9v3.5H48.1
		v-3.5c3.4-1,5.6-2.2,6.6-3.7c2-3.1,4.3-9.3,6.8-18.6L90.3,95.3h2.1L120.8,203c2.3,8.7,4.4,14.3,6.2,16.8c1.9,2.6,4.5,4,7.8,4.3v3.5
		h-32.2v-3.5c3.3-0.3,5.5-1.1,6.6-2.6s1.7-3.2,1.7-5.3c0-2.8-0.8-7.2-2.4-13.3L103.6,184.4z M101.9,177.3L88,125l-14.2,52.3H101.9z"
		/>
	<path id="XMLID_7_" d="M192.9,95.3v44.8h-2.2c-0.7-8.6-2-15.4-3.9-20.5s-4.5-9.1-8-12.1s-7-4.5-10.7-4.5c-4.2,0-7.6,2-10.4,6.1
		c-2.7,4-4.1,8.6-4.1,13.8c0,3.9,0.9,7.5,2.6,10.8c2.5,4.8,8.4,11.1,17.8,19.1c7.6,6.5,12.8,11.5,15.6,14.9
		c2.8,3.5,4.9,7.6,6.4,12.3s2.3,9.6,2.3,14.8c0,9.8-2.4,18.2-7.2,25.3s-11,10.6-18.5,10.6c-2.4,0-4.6-0.3-6.7-0.9
		c-1.2-0.3-3.8-1.5-7.7-3.5s-6.4-3-7.4-3s-1.8,0.5-2.4,1.4c-0.6,1-1,2.9-1.3,5.9h-2.2v-44.4h2.2c1,9.3,2.5,16.2,4.2,20.9
		c1.8,4.6,4.5,8.4,8.1,11.5s7.6,4.6,12,4.6c5,0,9-2.1,11.9-6.3s4.4-9.2,4.4-14.9c0-3.2-0.6-6.4-1.7-9.6s-2.8-6.3-5.2-9.1
		c-1.6-1.9-5.8-6-12.8-12.2s-12-11.2-14.9-14.8c-3-3.7-5.2-7.8-6.7-12.2c-1.5-4.5-2.3-9.4-2.3-14.7c0-9.3,2.3-17.3,6.8-24
		s10.2-10.1,17.2-10.1c4.3,0,8.9,1.7,13.8,5.1c2.3,1.6,3.8,2.4,4.8,2.4s1.9-0.5,2.6-1.5c0.7-1,1.2-3,1.6-6
		C190.9,95.3,192.9,95.3,192.9,95.3z"/>
	<path id="XMLID_9_" d="M261.4,184.4h-31.6l-5.5,20.4c-1.4,5-2,8.8-2,11.3c0,2,0.6,3.7,1.8,5.2s3.7,2.5,7.7,2.9v3.5h-25.7v-3.5
		c3.4-1,5.6-2.2,6.6-3.7c2-3.1,4.3-9.3,6.8-18.6l28.8-106.5h2.1L278.6,203c2.3,8.7,4.4,14.3,6.2,16.8c1.9,2.6,4.5,4,7.8,4.3v3.5
		h-32.2v-3.5c3.3-0.3,5.5-1.1,6.6-2.6s1.7-3.2,1.7-5.3c0-2.8-0.8-7.2-2.4-13.3L261.4,184.4z M259.7,177.3L245.8,125l-14.2,52.3
		H259.7z"/>
</g>
</svg>
