<?xml version="1.0" encoding="utf-8"?>
<!-- Generator: Adobe Illustrator 19.0.0, SVG Export Plug-In . SVG Version: 6.00 Build 0)  -->
<svg version="1.1" id="图层_1" xmlns="http://www.w3.org/2000/svg" xmlns:xlink="http://www.w3.org/1999/xlink" x="0px" y="0px"
	 viewBox="0 0 340.2 340.2" style="enable-background:new 0 0 340.2 340.2;" xml:space="preserve">
<style type="text/css">
	.st0{fill:none;stroke:#000000;stroke-width:5;stroke-miterlimit:10;}
</style>
<rect id="XMLID_1_" x="42" y="20.3" class="st0" width="256.1" height="299.5"/>
<g id="XMLID_3_">
	<path id="XMLID_4_" d="M105.7,183.6H74l-5.6,21c-1.4,5.2-2.1,9-2.1,11.6c0,2,0.6,3.8,1.8,5.3c1.2,1.5,3.8,2.5,7.7,3v3.6H50.1v-3.6
		c3.4-1,5.6-2.3,6.6-3.8c2.1-3.1,4.3-9.5,6.8-19.1L92.4,92.2h2.1L123,202.7c2.3,8.9,4.4,14.6,6.2,17.3c1.9,2.6,4.5,4.1,7.8,4.5v3.6
		h-32.3v-3.6c3.3-0.3,5.5-1.1,6.6-2.6s1.7-3.3,1.7-5.5c0-2.9-0.8-7.4-2.4-13.6L105.7,183.6z M104,176.3l-13.9-53.7l-14.2,53.7H104z"
		/>
	<path id="XMLID_7_" d="M163.8,165.9v38.7c0,8.4,0.6,13.5,1.7,15.6c1.5,2.9,3.8,4.3,6.9,4.3h3.1v3.6h-35.1v-3.6h3.1
		c3.5,0,5.9-1.8,7.4-5.5c0.8-2,1.2-6.8,1.2-14.4v-85.8c0-8.4-0.5-13.5-1.6-15.6c-1.6-2.9-3.9-4.3-7-4.3h-3.1v-3.6h30
		c7.3,0,13.1,1.2,17.3,3.7c4.2,2.4,7.8,6.6,10.7,12.4s4.3,12.7,4.3,20.7c0,10.8-2.2,19.6-6.6,26.4c-4.4,6.8-10.6,10.2-18.7,10.2
		c-2,0-4.1-0.2-6.4-0.7C168.9,167.5,166.4,166.8,163.8,165.9z M163.8,160.3c2.1,0.7,4,1.1,5.7,1.5c1.7,0.3,3.1,0.5,4.2,0.5
		c4.2,0,7.8-2.6,10.8-7.9c3-5.3,4.6-12.1,4.6-20.4c0-5.7-0.7-11.1-2.2-16c-1.4-4.9-3.5-8.6-6.2-11.1c-2.7-2.4-5.7-3.7-9.1-3.7
		c-2.1,0-4.7,0.6-7.9,1.9L163.8,160.3L163.8,160.3z"/>
	<path id="XMLID_10_" d="M290.8,228h-21.9l-27.7-62c-2.1,0.1-3.7,0.2-5,0.2c-0.5,0-1.1,0-1.7,0c-0.6,0-1.2-0.1-1.9-0.1v38.6
		c0,8.4,0.6,13.5,1.7,15.6c1.5,2.9,3.8,4.3,6.9,4.3h3.2v3.6h-35.1v-3.6h3.1c3.5,0,5.9-1.8,7.4-5.5c0.8-2,1.3-6.8,1.3-14.4v-85.8
		c0-8.4-0.6-13.5-1.7-15.6c-1.6-2.9-3.9-4.3-7-4.3h-3.1v-3.6h29.8c8.7,0,15.1,1,19.2,3.1c4.1,2.1,7.6,5.8,10.5,11.4
		c2.9,5.5,4.3,12.1,4.3,19.7c0,8.2-1.6,15.2-4.9,21.2s-8.4,10.2-15.2,12.7l16.9,38.1c3.9,8.7,7.2,14.6,10,17.4
		c2.8,2.9,6.4,4.7,10.9,5.5V228z M232.7,159.8c0.8,0,1.4,0,2,0s1,0,1.4,0c7.8,0,13.7-2.7,17.7-8.2s5.9-12.5,5.9-21
		c0-8.3-1.6-15-4.8-20.2s-7.4-7.8-12.7-7.8c-2.3,0-5.5,0.6-9.5,1.9L232.7,159.8L232.7,159.8z"/>
</g>
</svg>
