<?xml version="1.0" encoding="utf-8"?>
<!-- Generator: Adobe Illustrator 19.0.0, SVG Export Plug-In . SVG Version: 6.00 Build 0)  -->
<svg version="1.1" id="图层_1" xmlns="http://www.w3.org/2000/svg" xmlns:xlink="http://www.w3.org/1999/xlink" x="0px" y="0px"
	 viewBox="0 0 340.2 340.2" style="enable-background:new 0 0 340.2 340.2;" xml:space="preserve">
<style type="text/css">
	.st0{fill:none;stroke:#000000;stroke-width:5;stroke-miterlimit:10;}
	.st1{enable-background:new    ;}
</style>
<rect id="XMLID_1_" x="42" y="20.3" class="st0" width="256.1" height="299.5"/>
<g class="st1">
	<path d="M55.6,108.6c0-6.8,1-12.6,3.1-17.5c2-4.9,4.8-8.5,8.1-10.9c2.6-1.9,5.3-2.8,8.1-2.8c4.6,0,8.6,2.3,12.3,7
		C91.7,90,94,97.8,94,107.7c0,6.9-1,12.7-3,17.6c-2,4.8-4.5,8.3-7.6,10.5c-3.1,2.2-6,3.3-8.9,3.3c-5.7,0-10.4-3.3-14.1-10
		C57.2,123.3,55.6,116.5,55.6,108.6z M64.1,109.7c0,8.2,1,14.8,3,20c1.7,4.3,4.1,6.5,7.4,6.5c1.6,0,3.2-0.7,4.9-2.1
		c1.7-1.4,3-3.8,3.9-7.1c1.3-5,2-12.1,2-21.2c0-6.8-0.7-12.4-2.1-16.9c-1.1-3.4-2.4-5.7-4.1-7.1c-1.2-1-2.6-1.4-4.3-1.4
		c-2,0-3.7,0.9-5.3,2.7c-2.1,2.4-3.5,6.2-4.3,11.4C64.5,99.5,64.1,104.6,64.1,109.7z"/>
</g>
<g class="st1">
	<path d="M262.3,83.8l14.9-7.3h1.5v51.7c0,3.4,0.1,5.6,0.4,6.4c0.3,0.8,0.9,1.5,1.8,1.9c0.9,0.5,2.7,0.7,5.5,0.8v1.7h-23v-1.7
		c2.9-0.1,4.8-0.3,5.6-0.7c0.8-0.4,1.4-1,1.8-1.8c0.3-0.7,0.5-2.9,0.5-6.6v-33c0-4.5-0.2-7.3-0.5-8.6c-0.2-1-0.6-1.7-1.2-2.1
		s-1.2-0.7-2-0.7c-1.1,0-2.7,0.5-4.6,1.4L262.3,83.8z"/>
</g>
<line id="XMLID_5_" class="st0" x1="68.3" y1="197.7" x2="68.3" y2="255.8"/>
<line id="XMLID_6_" class="st0" x1="274.5" y1="197.7" x2="274.5" y2="255.8"/>
<line id="XMLID_7_" class="st0" x1="68.3" y1="226.8" x2="276.5" y2="226.8"/>
<g>
	<g>
		<line class="st0" x1="103" y1="112.1" x2="213.7" y2="112.1"/>
		<g>
			<polygon points="203.8,126.6 258,112.1 203.8,97.6 			"/>
		</g>
	</g>
</g>
</svg>
