<?xml version="1.0" encoding="utf-8"?>
<!-- Generator: Adobe Illustrator 19.0.0, SVG Export Plug-In . SVG Version: 6.00 Build 0)  -->
<svg version="1.1" id="图层_1" xmlns="http://www.w3.org/2000/svg" xmlns:xlink="http://www.w3.org/1999/xlink" x="0px" y="0px"
	 viewBox="0 0 340.2 340.2" style="enable-background:new 0 0 340.2 340.2;" xml:space="preserve">
<style type="text/css">
	.st0{fill:none;stroke:#000000;stroke-width:5;stroke-miterlimit:10;}
</style>
<path id="XMLID_1_" class="st0" d="M29.5,170.2c0,19.6,14.9,35.5,34.5,35.5"/>
<path id="XMLID_2_" class="st0" d="M64,205.7c26.5,0,37.2-15.5,37.2-35.5"/>
<path id="XMLID_3_" class="st0" d="M101.2,170.2c0,19.6,17.2,36.5,34.3,36.5"/>
<path id="XMLID_4_" class="st0" d="M135.5,206.7c23.2,0.4,35.5-17,35.5-36.5"/>
<path id="XMLID_5_" class="st0" d="M171,170.2c0,19.6,19.3,36.5,35,36.5"/>
<path id="XMLID_6_" class="st0" d="M206,206.7c14.5,0,35-16,35-36.5"/>
<path id="XMLID_7_" class="st0" d="M241,170.2c0,19.6,18.5,35.5,35.6,35.5"/>
<path id="XMLID_8_" class="st0" d="M276.6,205.7c20.1,0,35.4-16.5,35.4-35.5"/>
<line id="XMLID_19_" class="st0" x1="29.5" y1="270.1" x2="29.5" y2="49.5"/>
<line id="XMLID_20_" class="st0" x1="312" y1="170.2" x2="312" y2="49.5"/>
<line id="XMLID_9_" class="st0" x1="171" y1="170.2" x2="171" y2="270.1"/>
</svg>
